M48
; DRILL file {KiCad 8.0.2-1} date 2025-02-23T00:33:39-0500
; FORMAT={-:-/ absolute / inch / decimal}
; #@! TF.CreationDate,2025-02-23T00:33:39-05:00
; #@! TF.GenerationSoftware,Kicad,Pcbnew,8.0.2-1
; #@! TF.FileFunction,Plated,1,2,PTH
FMAT,2
INCH
; #@! TA.AperFunction,Plated,PTH,ComponentDrill
T1C0.0315
; #@! TA.AperFunction,Plated,PTH,ComponentDrill
T2C0.0394
; #@! TA.AperFunction,Plated,PTH,ComponentDrill
T3C0.0433
%
G90
G05
T1
X2.9234Y-2.3168
X2.9234Y-3.2168
X3.0234Y-2.3168
X3.0234Y-3.2168
X3.1234Y-2.3168
X3.1234Y-3.2168
X3.2234Y-2.3168
X3.2234Y-3.2168
X3.3234Y-2.3168
X3.3234Y-3.2168
X3.4234Y-2.3168
X3.4234Y-3.2168
X3.5234Y-2.3168
X3.5234Y-3.2168
X3.6234Y-2.3168
X3.6234Y-3.2168
X3.7234Y-2.3168
X3.7234Y-3.2168
X3.8234Y-2.3168
X3.8234Y-3.2168
X3.9234Y-2.3168
X3.9234Y-3.2168
X4.0234Y-2.3168
X4.0234Y-3.2168
X4.1234Y-2.3168
X4.1234Y-3.2168
X4.2234Y-2.3168
X4.2234Y-3.2168
X4.3234Y-2.3168
X4.3234Y-3.2168
T2
X4.775Y-2.45
X4.775Y-2.55
X4.775Y-2.65
X4.775Y-2.75
X4.925Y-2.45
X4.925Y-2.55
X4.925Y-2.65
X4.925Y-2.75
T3
X2.44Y-2.32
X2.44Y-2.42
X2.44Y-3.02
X2.44Y-3.12
X2.44Y-3.22
X4.7478Y-2.9691
X4.7478Y-3.225
X4.925Y-2.9691
X4.925Y-3.225
M30
