M48
; DRILL file {KiCad 9.0.0} date 2025-03-14T11:53:46-0400
; FORMAT={-:-/ absolute / inch / decimal}
; #@! TF.CreationDate,2025-03-14T11:53:46-04:00
; #@! TF.GenerationSoftware,Kicad,Pcbnew,9.0.0
; #@! TF.FileFunction,Plated,1,2,PTH
FMAT,2
INCH
; #@! TA.AperFunction,Plated,PTH,ViaDrill
T1C0.0118
; #@! TA.AperFunction,Plated,PTH,ComponentDrill
T2C0.0315
; #@! TA.AperFunction,Plated,PTH,ComponentDrill
T3C0.0394
; #@! TA.AperFunction,Plated,PTH,ComponentDrill
T4C0.0433
%
G90
G05
T1
X2.82Y-2.83
X3.22Y-2.9
X3.3234Y-2.4766
X3.3234Y-2.52
X3.3234Y-2.56
X3.52Y-2.84
T2
X2.9234Y-2.3168
X2.9234Y-3.2168
X3.0234Y-2.3168
X3.0234Y-3.2168
X3.1234Y-2.3168
X3.1234Y-3.2168
X3.2234Y-2.3168
X3.2234Y-3.2168
X3.3234Y-2.3168
X3.3234Y-3.2168
X3.4234Y-2.3168
X3.4234Y-3.2168
X3.5234Y-2.3168
X3.5234Y-3.2168
X3.6234Y-2.3168
X3.6234Y-3.2168
X3.7234Y-2.3168
X3.7234Y-3.2168
X3.8234Y-2.3168
X3.8234Y-3.2168
X3.9234Y-2.3168
X3.9234Y-3.2168
X4.0234Y-2.3168
X4.0234Y-3.2168
X4.1234Y-2.3168
X4.1234Y-3.2168
X4.2234Y-2.3168
X4.2234Y-3.2168
X4.3234Y-2.3168
X4.3234Y-3.2168
T3
X4.77Y-2.652
X4.77Y-2.752
X4.77Y-2.852
X4.77Y-2.952
X4.925Y-2.651
X4.925Y-2.751
X4.925Y-2.851
X4.925Y-2.951
T4
X2.44Y-2.3
X2.44Y-2.4
X2.44Y-3.04
X2.44Y-3.14
X2.44Y-3.24
X4.7041Y-3.0828
X4.7041Y-3.26
X4.875Y-2.3
X4.875Y-2.4
X4.875Y-2.5
X4.96Y-3.0828
X4.96Y-3.26
M30
