%TF.GenerationSoftware,KiCad,Pcbnew,7.0.9*%
%TF.CreationDate,2023-12-31T20:51:38-05:00*%
%TF.ProjectId,RGB Clock,52474220-436c-46f6-936b-2e6b69636164,rev?*%
%TF.SameCoordinates,Original*%
%TF.FileFunction,Legend,Top*%
%TF.FilePolarity,Positive*%
%FSLAX46Y46*%
G04 Gerber Fmt 4.6, Leading zero omitted, Abs format (unit mm)*
G04 Created by KiCad (PCBNEW 7.0.9) date 2023-12-31 20:51:38*
%MOMM*%
%LPD*%
G01*
G04 APERTURE LIST*
%ADD10C,0.150000*%
%ADD11C,0.120000*%
G04 APERTURE END LIST*
D10*
X59983939Y-120060131D02*
X60682616Y-120208639D01*
X60682616Y-120208639D02*
X60812451Y-120284920D01*
X60812451Y-120284920D02*
X60885807Y-120397878D01*
X60885807Y-120397878D02*
X60902684Y-120547514D01*
X60902684Y-120547514D02*
X60882883Y-120640670D01*
X61160098Y-119336473D02*
X61061093Y-119802258D01*
X61061093Y-119802258D02*
X60082945Y-119594346D01*
X61255052Y-118431681D02*
X61291730Y-118488160D01*
X61291730Y-118488160D02*
X61308607Y-118637796D01*
X61308607Y-118637796D02*
X61288805Y-118730953D01*
X61288805Y-118730953D02*
X61212525Y-118860788D01*
X61212525Y-118860788D02*
X61099567Y-118934144D01*
X61099567Y-118934144D02*
X60996510Y-118960921D01*
X60996510Y-118960921D02*
X60800295Y-118967897D01*
X60800295Y-118967897D02*
X60660560Y-118938196D01*
X60660560Y-118938196D02*
X60484147Y-118852015D01*
X60484147Y-118852015D02*
X60400890Y-118785636D01*
X60400890Y-118785636D02*
X60327535Y-118672678D01*
X60327535Y-118672678D02*
X60310658Y-118523042D01*
X60310658Y-118523042D02*
X60330459Y-118429885D01*
X60330459Y-118429885D02*
X60406739Y-118300050D01*
X60406739Y-118300050D02*
X60463218Y-118263372D01*
X60518570Y-117544894D02*
X61217246Y-117693402D01*
X61217246Y-117693402D02*
X61347081Y-117769682D01*
X61347081Y-117769682D02*
X61420437Y-117882641D01*
X61420437Y-117882641D02*
X61437314Y-118032276D01*
X61437314Y-118032276D02*
X61417513Y-118125433D01*
X61694728Y-116821236D02*
X61595723Y-117287021D01*
X61595723Y-117287021D02*
X60617575Y-117079109D01*
X61789682Y-115916444D02*
X61826360Y-115972923D01*
X61826360Y-115972923D02*
X61843237Y-116122559D01*
X61843237Y-116122559D02*
X61823436Y-116215716D01*
X61823436Y-116215716D02*
X61747155Y-116345551D01*
X61747155Y-116345551D02*
X61634197Y-116418907D01*
X61634197Y-116418907D02*
X61531140Y-116445684D01*
X61531140Y-116445684D02*
X61334926Y-116452660D01*
X61334926Y-116452660D02*
X61195190Y-116422959D01*
X61195190Y-116422959D02*
X61018777Y-116336778D01*
X61018777Y-116336778D02*
X60935521Y-116270398D01*
X60935521Y-116270398D02*
X60862165Y-116157440D01*
X60862165Y-116157440D02*
X60845288Y-116007805D01*
X60845288Y-116007805D02*
X60865089Y-115914648D01*
X60865089Y-115914648D02*
X60941369Y-115784813D01*
X60941369Y-115784813D02*
X60997848Y-115748135D01*
X61053200Y-115029657D02*
X61751877Y-115178165D01*
X61751877Y-115178165D02*
X61881711Y-115254445D01*
X61881711Y-115254445D02*
X61955067Y-115367403D01*
X61955067Y-115367403D02*
X61971944Y-115517039D01*
X61971944Y-115517039D02*
X61952143Y-115610196D01*
X62229358Y-114305999D02*
X62130353Y-114771784D01*
X62130353Y-114771784D02*
X61152205Y-114563872D01*
X62324312Y-113401207D02*
X62360990Y-113457686D01*
X62360990Y-113457686D02*
X62377867Y-113607322D01*
X62377867Y-113607322D02*
X62358066Y-113700479D01*
X62358066Y-113700479D02*
X62281786Y-113830314D01*
X62281786Y-113830314D02*
X62168828Y-113903670D01*
X62168828Y-113903670D02*
X62065770Y-113930447D01*
X62065770Y-113930447D02*
X61869556Y-113937423D01*
X61869556Y-113937423D02*
X61729820Y-113907722D01*
X61729820Y-113907722D02*
X61553407Y-113821541D01*
X61553407Y-113821541D02*
X61470151Y-113755161D01*
X61470151Y-113755161D02*
X61396795Y-113642203D01*
X61396795Y-113642203D02*
X61379918Y-113492567D01*
X61379918Y-113492567D02*
X61399719Y-113399410D01*
X61399719Y-113399410D02*
X61475999Y-113269576D01*
X61475999Y-113269576D02*
X61532478Y-113232898D01*
X61587830Y-112514420D02*
X62286507Y-112662928D01*
X62286507Y-112662928D02*
X62416342Y-112739208D01*
X62416342Y-112739208D02*
X62489697Y-112852166D01*
X62489697Y-112852166D02*
X62506574Y-113001802D01*
X62506574Y-113001802D02*
X62486773Y-113094959D01*
X62763989Y-111790762D02*
X62664983Y-112256547D01*
X62664983Y-112256547D02*
X61686835Y-112048635D01*
X62858942Y-110885970D02*
X62895620Y-110942449D01*
X62895620Y-110942449D02*
X62912497Y-111092085D01*
X62912497Y-111092085D02*
X62892696Y-111185242D01*
X62892696Y-111185242D02*
X62816416Y-111315077D01*
X62816416Y-111315077D02*
X62703458Y-111388433D01*
X62703458Y-111388433D02*
X62600400Y-111415210D01*
X62600400Y-111415210D02*
X62404186Y-111422186D01*
X62404186Y-111422186D02*
X62264451Y-111392485D01*
X62264451Y-111392485D02*
X62088037Y-111306304D01*
X62088037Y-111306304D02*
X62004781Y-111239924D01*
X62004781Y-111239924D02*
X61931425Y-111126966D01*
X61931425Y-111126966D02*
X61914548Y-110977330D01*
X61914548Y-110977330D02*
X61934349Y-110884173D01*
X61934349Y-110884173D02*
X62010630Y-110754339D01*
X62010630Y-110754339D02*
X62067109Y-110717661D01*
X54232012Y-147022448D02*
X54190551Y-146969380D01*
X54190551Y-146969380D02*
X54154893Y-146869049D01*
X54154893Y-146869049D02*
X54183910Y-146632728D01*
X54183910Y-146632728D02*
X54242781Y-146544004D01*
X54242781Y-146544004D02*
X54295848Y-146502543D01*
X54295848Y-146502543D02*
X54396180Y-146466885D01*
X54396180Y-146466885D02*
X54490708Y-146478492D01*
X54490708Y-146478492D02*
X54626697Y-146543166D01*
X54626697Y-146543166D02*
X55124226Y-147179975D01*
X55124226Y-147179975D02*
X55199669Y-146565541D01*
X54282566Y-145829239D02*
X54294173Y-145734710D01*
X54294173Y-145734710D02*
X54353043Y-145645986D01*
X54353043Y-145645986D02*
X54406111Y-145604525D01*
X54406111Y-145604525D02*
X54506442Y-145568867D01*
X54506442Y-145568867D02*
X54701302Y-145544816D01*
X54701302Y-145544816D02*
X54937623Y-145573833D01*
X54937623Y-145573833D02*
X55120876Y-145644310D01*
X55120876Y-145644310D02*
X55209601Y-145703181D01*
X55209601Y-145703181D02*
X55251061Y-145756248D01*
X55251061Y-145756248D02*
X55286719Y-145856580D01*
X55286719Y-145856580D02*
X55275112Y-145951108D01*
X55275112Y-145951108D02*
X55216242Y-146039833D01*
X55216242Y-146039833D02*
X55163174Y-146081294D01*
X55163174Y-146081294D02*
X55062843Y-146116951D01*
X55062843Y-146116951D02*
X54867983Y-146141002D01*
X54867983Y-146141002D02*
X54631662Y-146111986D01*
X54631662Y-146111986D02*
X54448409Y-146041508D01*
X54448409Y-146041508D02*
X54359684Y-145982638D01*
X54359684Y-145982638D02*
X54318224Y-145929570D01*
X54318224Y-145929570D02*
X54282566Y-145829239D01*
X54369616Y-145120277D02*
X54558672Y-145143490D01*
X54416042Y-144742164D02*
X54605098Y-144765377D01*
X54549518Y-143655089D02*
X55571081Y-143540638D01*
X55571081Y-143540638D02*
X54885332Y-143264532D01*
X54885332Y-143264532D02*
X55617507Y-143162525D01*
X55617507Y-143162525D02*
X54653977Y-142804336D01*
X55639883Y-142589553D02*
X55704557Y-142453564D01*
X55704557Y-142453564D02*
X55733573Y-142217244D01*
X55733573Y-142217244D02*
X55697916Y-142116912D01*
X55697916Y-142116912D02*
X55656455Y-142063845D01*
X55656455Y-142063845D02*
X55567730Y-142004974D01*
X55567730Y-142004974D02*
X55473202Y-141993367D01*
X55473202Y-141993367D02*
X55372870Y-142029025D01*
X55372870Y-142029025D02*
X55319803Y-142070486D01*
X55319803Y-142070486D02*
X55260932Y-142159210D01*
X55260932Y-142159210D02*
X55190455Y-142342464D01*
X55190455Y-142342464D02*
X55131584Y-142431189D01*
X55131584Y-142431189D02*
X55078517Y-142472649D01*
X55078517Y-142472649D02*
X54978185Y-142508307D01*
X54978185Y-142508307D02*
X54883657Y-142496700D01*
X54883657Y-142496700D02*
X54794932Y-142437829D01*
X54794932Y-142437829D02*
X54753471Y-142384762D01*
X54753471Y-142384762D02*
X54717814Y-142284431D01*
X54717814Y-142284431D02*
X54746830Y-142048110D01*
X54746830Y-142048110D02*
X54811504Y-141912121D01*
X54905195Y-141539812D02*
X54863734Y-141486744D01*
X54863734Y-141486744D02*
X54828077Y-141386413D01*
X54828077Y-141386413D02*
X54857093Y-141150092D01*
X54857093Y-141150092D02*
X54915964Y-141061367D01*
X54915964Y-141061367D02*
X54969031Y-141019906D01*
X54969031Y-141019906D02*
X55069363Y-140984249D01*
X55069363Y-140984249D02*
X55163891Y-140995855D01*
X55163891Y-140995855D02*
X55299880Y-141060529D01*
X55299880Y-141060529D02*
X55797409Y-141697338D01*
X55797409Y-141697338D02*
X55872852Y-141082905D01*
X55375323Y-140446096D02*
X55316452Y-140534821D01*
X55316452Y-140534821D02*
X55263385Y-140576282D01*
X55263385Y-140576282D02*
X55163053Y-140611939D01*
X55163053Y-140611939D02*
X55115789Y-140606136D01*
X55115789Y-140606136D02*
X55027064Y-140547265D01*
X55027064Y-140547265D02*
X54985603Y-140494198D01*
X54985603Y-140494198D02*
X54949946Y-140393866D01*
X54949946Y-140393866D02*
X54973159Y-140204810D01*
X54973159Y-140204810D02*
X55032030Y-140116085D01*
X55032030Y-140116085D02*
X55085097Y-140074624D01*
X55085097Y-140074624D02*
X55185429Y-140038967D01*
X55185429Y-140038967D02*
X55232693Y-140044770D01*
X55232693Y-140044770D02*
X55321418Y-140103641D01*
X55321418Y-140103641D02*
X55362878Y-140156708D01*
X55362878Y-140156708D02*
X55398536Y-140257040D01*
X55398536Y-140257040D02*
X55375323Y-140446096D01*
X55375323Y-140446096D02*
X55410980Y-140546428D01*
X55410980Y-140546428D02*
X55452441Y-140599495D01*
X55452441Y-140599495D02*
X55541166Y-140658366D01*
X55541166Y-140658366D02*
X55730222Y-140681579D01*
X55730222Y-140681579D02*
X55830554Y-140645921D01*
X55830554Y-140645921D02*
X55883621Y-140604461D01*
X55883621Y-140604461D02*
X55942492Y-140515736D01*
X55942492Y-140515736D02*
X55965705Y-140326679D01*
X55965705Y-140326679D02*
X55930048Y-140226348D01*
X55930048Y-140226348D02*
X55888587Y-140173280D01*
X55888587Y-140173280D02*
X55799862Y-140114410D01*
X55799862Y-140114410D02*
X55610806Y-140091196D01*
X55610806Y-140091196D02*
X55510474Y-140126854D01*
X55510474Y-140126854D02*
X55457407Y-140168315D01*
X55457407Y-140168315D02*
X55398536Y-140257040D01*
X56104984Y-139192341D02*
X56035345Y-139759510D01*
X56070165Y-139475925D02*
X55077619Y-139354056D01*
X55077619Y-139354056D02*
X55207804Y-139465994D01*
X55207804Y-139465994D02*
X55290726Y-139572129D01*
X55290726Y-139572129D02*
X55326383Y-139672461D01*
X55253393Y-138703965D02*
X55211932Y-138650898D01*
X55211932Y-138650898D02*
X55176275Y-138550566D01*
X55176275Y-138550566D02*
X55205291Y-138314246D01*
X55205291Y-138314246D02*
X55264162Y-138225521D01*
X55264162Y-138225521D02*
X55317229Y-138184060D01*
X55317229Y-138184060D02*
X55417561Y-138148403D01*
X55417561Y-138148403D02*
X55512089Y-138160009D01*
X55512089Y-138160009D02*
X55648078Y-138224683D01*
X55648078Y-138224683D02*
X56145608Y-138861492D01*
X56145608Y-138861492D02*
X56221051Y-138247059D01*
X56273280Y-137821682D02*
X55280734Y-137699812D01*
X55658847Y-137746239D02*
X55623189Y-137645907D01*
X55623189Y-137645907D02*
X55646403Y-137456851D01*
X55646403Y-137456851D02*
X55705273Y-137368126D01*
X55705273Y-137368126D02*
X55758341Y-137326665D01*
X55758341Y-137326665D02*
X55858672Y-137291008D01*
X55858672Y-137291008D02*
X56142257Y-137325828D01*
X56142257Y-137325828D02*
X56230982Y-137384698D01*
X56230982Y-137384698D02*
X56272443Y-137437766D01*
X56272443Y-137437766D02*
X56308100Y-137538097D01*
X56308100Y-137538097D02*
X56284887Y-137727154D01*
X56284887Y-137727154D02*
X56226016Y-137815878D01*
X55723876Y-147301579D02*
X56757045Y-147092600D01*
X56757045Y-147092600D02*
X55805122Y-146639882D01*
X56902128Y-145910997D02*
X56832488Y-146478167D01*
X56867308Y-146194582D02*
X55874762Y-146072713D01*
X55874762Y-146072713D02*
X56004947Y-146184651D01*
X56004947Y-146184651D02*
X56087869Y-146290786D01*
X56087869Y-146290786D02*
X56123527Y-146391117D01*
X56859829Y-145474014D02*
X56912897Y-145432553D01*
X56912897Y-145432553D02*
X56954357Y-145485620D01*
X56954357Y-145485620D02*
X56901290Y-145527081D01*
X56901290Y-145527081D02*
X56859829Y-145474014D01*
X56859829Y-145474014D02*
X56954357Y-145485620D01*
X56043057Y-144702054D02*
X56054664Y-144607526D01*
X56054664Y-144607526D02*
X56113535Y-144518801D01*
X56113535Y-144518801D02*
X56166602Y-144477340D01*
X56166602Y-144477340D02*
X56266934Y-144441683D01*
X56266934Y-144441683D02*
X56461793Y-144417632D01*
X56461793Y-144417632D02*
X56698114Y-144446648D01*
X56698114Y-144446648D02*
X56881367Y-144517126D01*
X56881367Y-144517126D02*
X56970092Y-144575996D01*
X56970092Y-144575996D02*
X57011553Y-144629064D01*
X57011553Y-144629064D02*
X57047210Y-144729395D01*
X57047210Y-144729395D02*
X57035604Y-144823923D01*
X57035604Y-144823923D02*
X56976733Y-144912648D01*
X56976733Y-144912648D02*
X56923666Y-144954109D01*
X56923666Y-144954109D02*
X56823334Y-144989767D01*
X56823334Y-144989767D02*
X56628474Y-145013818D01*
X56628474Y-145013818D02*
X56392154Y-144984801D01*
X56392154Y-144984801D02*
X56208901Y-144914324D01*
X56208901Y-144914324D02*
X56120176Y-144855453D01*
X56120176Y-144855453D02*
X56078715Y-144802386D01*
X56078715Y-144802386D02*
X56043057Y-144702054D01*
X57634242Y-143074314D02*
X57581175Y-143115774D01*
X57581175Y-143115774D02*
X57427776Y-143192893D01*
X57427776Y-143192893D02*
X57327444Y-143228550D01*
X57327444Y-143228550D02*
X57179849Y-143258404D01*
X57179849Y-143258404D02*
X56937725Y-143276652D01*
X56937725Y-143276652D02*
X56748668Y-143253439D01*
X56748668Y-143253439D02*
X56518151Y-143177158D01*
X56518151Y-143177158D02*
X56382162Y-143112484D01*
X56382162Y-143112484D02*
X56293437Y-143053614D01*
X56293437Y-143053614D02*
X56163251Y-142941675D01*
X56163251Y-142941675D02*
X56121791Y-142888608D01*
X57307521Y-142218594D02*
X57343179Y-142318925D01*
X57343179Y-142318925D02*
X57319966Y-142507982D01*
X57319966Y-142507982D02*
X57261095Y-142596707D01*
X57261095Y-142596707D02*
X57208027Y-142638168D01*
X57208027Y-142638168D02*
X57107696Y-142673825D01*
X57107696Y-142673825D02*
X56824111Y-142639005D01*
X56824111Y-142639005D02*
X56735386Y-142580134D01*
X56735386Y-142580134D02*
X56693926Y-142527067D01*
X56693926Y-142527067D02*
X56658268Y-142426736D01*
X56658268Y-142426736D02*
X56681481Y-142237679D01*
X56681481Y-142237679D02*
X56740352Y-142148954D01*
X57773521Y-141939975D02*
X57732060Y-141886907D01*
X57732060Y-141886907D02*
X57601875Y-141774969D01*
X57601875Y-141774969D02*
X57513150Y-141716099D01*
X57513150Y-141716099D02*
X57377161Y-141651425D01*
X57377161Y-141651425D02*
X57146644Y-141575144D01*
X57146644Y-141575144D02*
X56957587Y-141551931D01*
X56957587Y-141551931D02*
X56715463Y-141570178D01*
X56715463Y-141570178D02*
X56567868Y-141600032D01*
X56567868Y-141600032D02*
X56467536Y-141635690D01*
X56467536Y-141635690D02*
X56314137Y-141712808D01*
X56314137Y-141712808D02*
X56261070Y-141754269D01*
X56677293Y-140318098D02*
X56635832Y-140265030D01*
X56635832Y-140265030D02*
X56600175Y-140164699D01*
X56600175Y-140164699D02*
X56629191Y-139928378D01*
X56629191Y-139928378D02*
X56688062Y-139839654D01*
X56688062Y-139839654D02*
X56741129Y-139798193D01*
X56741129Y-139798193D02*
X56841461Y-139762535D01*
X56841461Y-139762535D02*
X56935989Y-139774142D01*
X56935989Y-139774142D02*
X57071978Y-139838816D01*
X57071978Y-139838816D02*
X57569508Y-140475625D01*
X57569508Y-140475625D02*
X57644951Y-139861191D01*
X56727847Y-139124889D02*
X56739454Y-139030360D01*
X56739454Y-139030360D02*
X56798325Y-138941636D01*
X56798325Y-138941636D02*
X56851392Y-138900175D01*
X56851392Y-138900175D02*
X56951724Y-138864517D01*
X56951724Y-138864517D02*
X57146583Y-138840466D01*
X57146583Y-138840466D02*
X57382904Y-138869483D01*
X57382904Y-138869483D02*
X57566157Y-138939960D01*
X57566157Y-138939960D02*
X57654882Y-138998831D01*
X57654882Y-138998831D02*
X57696343Y-139051898D01*
X57696343Y-139051898D02*
X57732000Y-139152230D01*
X57732000Y-139152230D02*
X57720393Y-139246758D01*
X57720393Y-139246758D02*
X57661523Y-139335483D01*
X57661523Y-139335483D02*
X57608455Y-139376944D01*
X57608455Y-139376944D02*
X57508124Y-139412601D01*
X57508124Y-139412601D02*
X57313264Y-139436652D01*
X57313264Y-139436652D02*
X57076944Y-139407636D01*
X57076944Y-139407636D02*
X56893690Y-139337158D01*
X56893690Y-139337158D02*
X56804966Y-139278288D01*
X56804966Y-139278288D02*
X56763505Y-139225220D01*
X56763505Y-139225220D02*
X56727847Y-139124889D01*
X56909425Y-138427534D02*
X56867964Y-138374466D01*
X56867964Y-138374466D02*
X56832307Y-138274135D01*
X56832307Y-138274135D02*
X56861323Y-138037814D01*
X56861323Y-138037814D02*
X56920194Y-137949089D01*
X56920194Y-137949089D02*
X56973261Y-137907629D01*
X56973261Y-137907629D02*
X57073593Y-137871971D01*
X57073593Y-137871971D02*
X57168121Y-137883578D01*
X57168121Y-137883578D02*
X57304110Y-137948252D01*
X57304110Y-137948252D02*
X57801640Y-138585061D01*
X57801640Y-138585061D02*
X57877083Y-137970627D01*
X57319845Y-137038627D02*
X57981542Y-137119873D01*
X56912715Y-137228521D02*
X57592660Y-137551891D01*
X57592660Y-137551891D02*
X57668103Y-136937458D01*
X58331831Y-147477866D02*
X57339285Y-147355997D01*
X57339285Y-147355997D02*
X58088869Y-147112198D01*
X58088869Y-147112198D02*
X57420531Y-146694300D01*
X57420531Y-146694300D02*
X58413077Y-146816169D01*
X58523340Y-145918151D02*
X58003435Y-145854315D01*
X58003435Y-145854315D02*
X57903103Y-145889972D01*
X57903103Y-145889972D02*
X57844233Y-145978697D01*
X57844233Y-145978697D02*
X57821019Y-146167754D01*
X57821019Y-146167754D02*
X57856677Y-146268085D01*
X58476076Y-145912348D02*
X58511733Y-146012679D01*
X58511733Y-146012679D02*
X58482717Y-146249000D01*
X58482717Y-146249000D02*
X58423846Y-146337725D01*
X58423846Y-146337725D02*
X58323515Y-146373382D01*
X58323515Y-146373382D02*
X58228986Y-146361776D01*
X58228986Y-146361776D02*
X58140261Y-146302905D01*
X58140261Y-146302905D02*
X58104604Y-146202574D01*
X58104604Y-146202574D02*
X58133620Y-145966253D01*
X58133620Y-145966253D02*
X58097963Y-145865922D01*
X58581373Y-145445510D02*
X57919676Y-145364264D01*
X58108732Y-145387477D02*
X58020007Y-145328606D01*
X58020007Y-145328606D02*
X57978546Y-145275539D01*
X57978546Y-145275539D02*
X57942889Y-145175207D01*
X57942889Y-145175207D02*
X57954495Y-145080679D01*
X58661782Y-144399896D02*
X58697439Y-144500228D01*
X58697439Y-144500228D02*
X58674226Y-144689284D01*
X58674226Y-144689284D02*
X58615355Y-144778009D01*
X58615355Y-144778009D02*
X58562288Y-144819470D01*
X58562288Y-144819470D02*
X58461956Y-144855127D01*
X58461956Y-144855127D02*
X58178372Y-144820308D01*
X58178372Y-144820308D02*
X58089647Y-144761437D01*
X58089647Y-144761437D02*
X58048186Y-144708369D01*
X58048186Y-144708369D02*
X58012528Y-144608038D01*
X58012528Y-144608038D02*
X58035742Y-144418981D01*
X58035742Y-144418981D02*
X58094612Y-144330257D01*
X58854128Y-143224097D02*
X57861582Y-143102227D01*
X57861582Y-143102227D02*
X57890599Y-142865907D01*
X57890599Y-142865907D02*
X57955273Y-142729918D01*
X57955273Y-142729918D02*
X58061407Y-142646996D01*
X58061407Y-142646996D02*
X58161739Y-142611339D01*
X58161739Y-142611339D02*
X58356599Y-142587288D01*
X58356599Y-142587288D02*
X58498391Y-142604698D01*
X58498391Y-142604698D02*
X58681644Y-142675175D01*
X58681644Y-142675175D02*
X58770369Y-142734046D01*
X58770369Y-142734046D02*
X58853291Y-142840180D01*
X58853291Y-142840180D02*
X58883145Y-142987776D01*
X58883145Y-142987776D02*
X58854128Y-143224097D01*
X58881469Y-142219944D02*
X58934537Y-142178483D01*
X58934537Y-142178483D02*
X58975998Y-142231550D01*
X58975998Y-142231550D02*
X58922930Y-142273011D01*
X58922930Y-142273011D02*
X58881469Y-142219944D01*
X58881469Y-142219944D02*
X58975998Y-142231550D01*
X59073816Y-141044145D02*
X59138490Y-140908156D01*
X59138490Y-140908156D02*
X59167507Y-140671835D01*
X59167507Y-140671835D02*
X59131849Y-140571504D01*
X59131849Y-140571504D02*
X59090388Y-140518436D01*
X59090388Y-140518436D02*
X59001663Y-140459566D01*
X59001663Y-140459566D02*
X58907135Y-140447959D01*
X58907135Y-140447959D02*
X58806804Y-140483617D01*
X58806804Y-140483617D02*
X58753736Y-140525077D01*
X58753736Y-140525077D02*
X58694865Y-140613802D01*
X58694865Y-140613802D02*
X58624388Y-140797055D01*
X58624388Y-140797055D02*
X58565517Y-140885780D01*
X58565517Y-140885780D02*
X58512450Y-140927241D01*
X58512450Y-140927241D02*
X58412119Y-140962899D01*
X58412119Y-140962899D02*
X58317590Y-140951292D01*
X58317590Y-140951292D02*
X58228865Y-140892421D01*
X58228865Y-140892421D02*
X58187405Y-140839354D01*
X58187405Y-140839354D02*
X58151747Y-140739022D01*
X58151747Y-140739022D02*
X58180764Y-140502702D01*
X58180764Y-140502702D02*
X58245438Y-140366713D01*
X58581252Y-139976156D02*
X59573798Y-140098025D01*
X58628516Y-139981959D02*
X58592859Y-139881627D01*
X58592859Y-139881627D02*
X58616072Y-139692571D01*
X58616072Y-139692571D02*
X58674943Y-139603846D01*
X58674943Y-139603846D02*
X58728010Y-139562385D01*
X58728010Y-139562385D02*
X58828341Y-139526728D01*
X58828341Y-139526728D02*
X59111926Y-139561548D01*
X59111926Y-139561548D02*
X59200651Y-139620418D01*
X59200651Y-139620418D02*
X59242112Y-139673486D01*
X59242112Y-139673486D02*
X59277769Y-139773817D01*
X59277769Y-139773817D02*
X59254556Y-139962874D01*
X59254556Y-139962874D02*
X59195685Y-140051599D01*
X59352375Y-138775468D02*
X59388032Y-138875799D01*
X59388032Y-138875799D02*
X59364819Y-139064856D01*
X59364819Y-139064856D02*
X59305948Y-139153581D01*
X59305948Y-139153581D02*
X59205617Y-139189238D01*
X59205617Y-139189238D02*
X58827504Y-139142812D01*
X58827504Y-139142812D02*
X58738779Y-139083941D01*
X58738779Y-139083941D02*
X58703121Y-138983609D01*
X58703121Y-138983609D02*
X58726335Y-138794553D01*
X58726335Y-138794553D02*
X58785205Y-138705828D01*
X58785205Y-138705828D02*
X58885537Y-138670171D01*
X58885537Y-138670171D02*
X58980065Y-138681777D01*
X58980065Y-138681777D02*
X59016560Y-139166025D01*
X58795974Y-138227384D02*
X59457672Y-138308630D01*
X58890502Y-138238990D02*
X58849042Y-138185923D01*
X58849042Y-138185923D02*
X58813384Y-138085591D01*
X58813384Y-138085591D02*
X58830794Y-137943799D01*
X58830794Y-137943799D02*
X58889665Y-137855074D01*
X58889665Y-137855074D02*
X58989996Y-137819417D01*
X58989996Y-137819417D02*
X59509901Y-137883253D01*
X59572900Y-136979432D02*
X59608558Y-137079763D01*
X59608558Y-137079763D02*
X59585344Y-137268820D01*
X59585344Y-137268820D02*
X59526474Y-137357544D01*
X59526474Y-137357544D02*
X59473406Y-137399005D01*
X59473406Y-137399005D02*
X59373075Y-137434663D01*
X59373075Y-137434663D02*
X59089490Y-137399843D01*
X59089490Y-137399843D02*
X59000765Y-137340972D01*
X59000765Y-137340972D02*
X58959304Y-137287905D01*
X58959304Y-137287905D02*
X58923647Y-137187573D01*
X58923647Y-137187573D02*
X58946860Y-136998517D01*
X58946860Y-136998517D02*
X59005731Y-136909792D01*
X59671556Y-136175942D02*
X59707214Y-136276273D01*
X59707214Y-136276273D02*
X59684000Y-136465330D01*
X59684000Y-136465330D02*
X59625130Y-136554055D01*
X59625130Y-136554055D02*
X59524798Y-136589712D01*
X59524798Y-136589712D02*
X59146685Y-136543286D01*
X59146685Y-136543286D02*
X59057961Y-136484415D01*
X59057961Y-136484415D02*
X59022303Y-136384083D01*
X59022303Y-136384083D02*
X59045516Y-136195027D01*
X59045516Y-136195027D02*
X59104387Y-136106302D01*
X59104387Y-136106302D02*
X59204718Y-136070645D01*
X59204718Y-136070645D02*
X59299247Y-136082251D01*
X59299247Y-136082251D02*
X59335742Y-136566499D01*
X59776853Y-135709104D02*
X59115156Y-135627858D01*
X59304212Y-135651071D02*
X59215487Y-135592200D01*
X59215487Y-135592200D02*
X59174027Y-135539133D01*
X59174027Y-135539133D02*
X59138369Y-135438801D01*
X59138369Y-135438801D02*
X59149976Y-135344273D01*
X73046224Y-73600569D02*
X73404592Y-72666989D01*
X73404592Y-72666989D02*
X73626873Y-72752314D01*
X73626873Y-72752314D02*
X73743177Y-72847966D01*
X73743177Y-72847966D02*
X73797959Y-72971009D01*
X73797959Y-72971009D02*
X73808285Y-73076986D01*
X73808285Y-73076986D02*
X73784480Y-73271876D01*
X73784480Y-73271876D02*
X73733285Y-73405245D01*
X73733285Y-73405245D02*
X73620568Y-73566005D01*
X73620568Y-73566005D02*
X73541982Y-73637852D01*
X73541982Y-73637852D02*
X73418939Y-73692634D01*
X73418939Y-73692634D02*
X73268505Y-73685895D01*
X73268505Y-73685895D02*
X73046224Y-73600569D01*
X74618822Y-73490136D02*
X74379910Y-74112523D01*
X74533062Y-73049161D02*
X74054804Y-73630678D01*
X74054804Y-73630678D02*
X74632735Y-73852525D01*
X69446775Y-74254045D02*
X68913300Y-74049263D01*
X69180037Y-74151654D02*
X69538405Y-73218073D01*
X69538405Y-73218073D02*
X69398297Y-73317312D01*
X69398297Y-73317312D02*
X69275255Y-73372094D01*
X69275255Y-73372094D02*
X69169277Y-73382420D01*
X55549286Y-151175563D02*
X55601622Y-150176934D01*
X55601622Y-150176934D02*
X55839391Y-150189395D01*
X55839391Y-150189395D02*
X55979560Y-150244425D01*
X55979560Y-150244425D02*
X56069683Y-150344517D01*
X56069683Y-150344517D02*
X56112253Y-150442117D01*
X56112253Y-150442117D02*
X56149838Y-150634824D01*
X56149838Y-150634824D02*
X56142361Y-150777486D01*
X56142361Y-150777486D02*
X56084838Y-150965208D01*
X56084838Y-150965208D02*
X56032300Y-151057824D01*
X56032300Y-151057824D02*
X55932208Y-151147947D01*
X55932208Y-151147947D02*
X55787055Y-151188024D01*
X55787055Y-151188024D02*
X55549286Y-151175563D01*
X57071007Y-151255313D02*
X56500362Y-151225407D01*
X56785684Y-151240360D02*
X56838020Y-150241731D01*
X56838020Y-150241731D02*
X56735436Y-150379408D01*
X56735436Y-150379408D02*
X56635344Y-150469531D01*
X56635344Y-150469531D02*
X56537744Y-150512100D01*
X52327941Y-152909347D02*
X51757296Y-152879441D01*
X52042619Y-152894394D02*
X52094955Y-151895765D01*
X52094955Y-151895765D02*
X51992370Y-152033442D01*
X51992370Y-152033442D02*
X51892278Y-152123565D01*
X51892278Y-152123565D02*
X51794679Y-152166134D01*
X55590468Y-159196346D02*
X55534426Y-159908430D01*
X55534426Y-159908430D02*
X55475745Y-160047111D01*
X55475745Y-160047111D02*
X55373328Y-160134583D01*
X55373328Y-160134583D02*
X55227175Y-160170847D01*
X55227175Y-160170847D02*
X55132231Y-160163374D01*
X56466288Y-159599639D02*
X56413982Y-160264250D01*
X56258816Y-159201180D02*
X55965412Y-159894583D01*
X55965412Y-159894583D02*
X56582552Y-159943153D01*
X58384468Y-161990346D02*
X58328426Y-162702430D01*
X58328426Y-162702430D02*
X58269745Y-162841111D01*
X58269745Y-162841111D02*
X58167328Y-162928583D01*
X58167328Y-162928583D02*
X58021175Y-162964847D01*
X58021175Y-162964847D02*
X57926231Y-162957374D01*
X59333913Y-162065069D02*
X58859191Y-162027708D01*
X58859191Y-162027708D02*
X58774357Y-162498694D01*
X58774357Y-162498694D02*
X58825565Y-162454958D01*
X58825565Y-162454958D02*
X58924246Y-162414958D01*
X58924246Y-162414958D02*
X59161607Y-162433639D01*
X59161607Y-162433639D02*
X59252816Y-162488583D01*
X59252816Y-162488583D02*
X59296552Y-162539792D01*
X59296552Y-162539792D02*
X59336552Y-162638472D01*
X59336552Y-162638472D02*
X59317871Y-162875834D01*
X59317871Y-162875834D02*
X59262927Y-162967042D01*
X59262927Y-162967042D02*
X59211718Y-163010778D01*
X59211718Y-163010778D02*
X59113037Y-163050778D01*
X59113037Y-163050778D02*
X58875676Y-163032097D01*
X58875676Y-163032097D02*
X58784468Y-162977153D01*
X58784468Y-162977153D02*
X58740732Y-162925944D01*
X58675364Y-124892847D02*
X58831798Y-123905158D01*
X58831798Y-123905158D02*
X59066962Y-123942404D01*
X59066962Y-123942404D02*
X59200611Y-124011785D01*
X59200611Y-124011785D02*
X59279778Y-124120749D01*
X59279778Y-124120749D02*
X59311912Y-124222264D01*
X59311912Y-124222264D02*
X59329148Y-124417844D01*
X59329148Y-124417844D02*
X59306800Y-124558943D01*
X59306800Y-124558943D02*
X59229970Y-124739624D01*
X59229970Y-124739624D02*
X59168039Y-124826241D01*
X59168039Y-124826241D02*
X59059075Y-124905408D01*
X59059075Y-124905408D02*
X58910527Y-124930093D01*
X58910527Y-124930093D02*
X58675364Y-124892847D01*
X59757555Y-124148209D02*
X59812037Y-124108625D01*
X59812037Y-124108625D02*
X59913552Y-124076491D01*
X59913552Y-124076491D02*
X60148716Y-124113737D01*
X60148716Y-124113737D02*
X60235332Y-124175669D01*
X60235332Y-124175669D02*
X60274916Y-124230151D01*
X60274916Y-124230151D02*
X60307050Y-124331666D01*
X60307050Y-124331666D02*
X60292151Y-124425731D01*
X60292151Y-124425731D02*
X60222771Y-124559380D01*
X60222771Y-124559380D02*
X59568986Y-125034382D01*
X59568986Y-125034382D02*
X60180412Y-125131223D01*
X55290436Y-126280411D02*
X54726043Y-126191019D01*
X55008240Y-126235715D02*
X55164674Y-125248027D01*
X55164674Y-125248027D02*
X55048261Y-125374227D01*
X55048261Y-125374227D02*
X54939297Y-125453394D01*
X54939297Y-125453394D02*
X54837782Y-125485528D01*
X80415869Y-57474158D02*
X80869859Y-56583152D01*
X80869859Y-56583152D02*
X81082004Y-56691245D01*
X81082004Y-56691245D02*
X81187672Y-56798529D01*
X81187672Y-56798529D02*
X81229292Y-56926624D01*
X81229292Y-56926624D02*
X81228484Y-57033101D01*
X81228484Y-57033101D02*
X81184438Y-57224435D01*
X81184438Y-57224435D02*
X81119583Y-57351721D01*
X81119583Y-57351721D02*
X80990679Y-57499818D01*
X80990679Y-57499818D02*
X80905013Y-57563058D01*
X80905013Y-57563058D02*
X80776918Y-57604678D01*
X80776918Y-57604678D02*
X80628013Y-57582251D01*
X80628013Y-57582251D02*
X80415869Y-57474158D01*
X82185155Y-57253328D02*
X81760866Y-57037142D01*
X81760866Y-57037142D02*
X81502251Y-57439812D01*
X81502251Y-57439812D02*
X81566298Y-57419002D01*
X81566298Y-57419002D02*
X81672775Y-57419810D01*
X81672775Y-57419810D02*
X81884919Y-57527903D01*
X81884919Y-57527903D02*
X81948158Y-57613570D01*
X81948158Y-57613570D02*
X81968969Y-57677617D01*
X81968969Y-57677617D02*
X81968160Y-57784093D01*
X81968160Y-57784093D02*
X81860067Y-57996238D01*
X81860067Y-57996238D02*
X81774401Y-58059477D01*
X81774401Y-58059477D02*
X81710354Y-58080287D01*
X81710354Y-58080287D02*
X81603877Y-58079479D01*
X81603877Y-58079479D02*
X81391733Y-57971386D01*
X81391733Y-57971386D02*
X81328494Y-57885720D01*
X81328494Y-57885720D02*
X81307684Y-57821672D01*
X80642798Y-49549287D02*
X80133651Y-49289864D01*
X80388224Y-49419575D02*
X80842215Y-48528569D01*
X80842215Y-48528569D02*
X80692501Y-48612618D01*
X80692501Y-48612618D02*
X80564406Y-48654239D01*
X80564406Y-48654239D02*
X80457930Y-48653431D01*
X88480630Y-48638143D02*
X88145294Y-49268820D01*
X88145294Y-49268820D02*
X88036181Y-49372599D01*
X88036181Y-49372599D02*
X87907379Y-49411978D01*
X87907379Y-49411978D02*
X87758888Y-49386956D01*
X87758888Y-49386956D02*
X87674798Y-49342244D01*
X88826015Y-49307174D02*
X88764281Y-49220417D01*
X88764281Y-49220417D02*
X88744591Y-49156017D01*
X88744591Y-49156017D02*
X88747258Y-49049571D01*
X88747258Y-49049571D02*
X88769614Y-49007525D01*
X88769614Y-49007525D02*
X88856370Y-48945791D01*
X88856370Y-48945791D02*
X88920771Y-48926102D01*
X88920771Y-48926102D02*
X89027217Y-48928768D01*
X89027217Y-48928768D02*
X89195398Y-49018191D01*
X89195398Y-49018191D02*
X89257132Y-49104948D01*
X89257132Y-49104948D02*
X89276822Y-49169349D01*
X89276822Y-49169349D02*
X89274155Y-49275795D01*
X89274155Y-49275795D02*
X89251799Y-49317840D01*
X89251799Y-49317840D02*
X89165043Y-49379574D01*
X89165043Y-49379574D02*
X89100642Y-49399264D01*
X89100642Y-49399264D02*
X88994196Y-49396597D01*
X88994196Y-49396597D02*
X88826015Y-49307174D01*
X88826015Y-49307174D02*
X88719569Y-49304508D01*
X88719569Y-49304508D02*
X88655168Y-49324197D01*
X88655168Y-49324197D02*
X88568412Y-49385932D01*
X88568412Y-49385932D02*
X88478988Y-49554112D01*
X88478988Y-49554112D02*
X88476322Y-49660558D01*
X88476322Y-49660558D02*
X88496011Y-49724959D01*
X88496011Y-49724959D02*
X88557746Y-49811716D01*
X88557746Y-49811716D02*
X88725926Y-49901139D01*
X88725926Y-49901139D02*
X88832372Y-49903805D01*
X88832372Y-49903805D02*
X88896773Y-49884116D01*
X88896773Y-49884116D02*
X88983530Y-49822381D01*
X88983530Y-49822381D02*
X89072953Y-49654201D01*
X89072953Y-49654201D02*
X89075619Y-49547755D01*
X89075619Y-49547755D02*
X89055930Y-49483354D01*
X89055930Y-49483354D02*
X88994196Y-49396597D01*
X87177301Y-44831025D02*
X86875431Y-45478388D01*
X86875431Y-45478388D02*
X86771899Y-45587736D01*
X86771899Y-45587736D02*
X86645335Y-45633801D01*
X86645335Y-45633801D02*
X86495738Y-45616585D01*
X86495738Y-45616585D02*
X86409423Y-45576335D01*
X87997294Y-45213394D02*
X87824664Y-45132895D01*
X87824664Y-45132895D02*
X87718224Y-45135803D01*
X87718224Y-45135803D02*
X87654942Y-45158836D01*
X87654942Y-45158836D02*
X87508253Y-45248059D01*
X87508253Y-45248059D02*
X87384597Y-45400565D01*
X87384597Y-45400565D02*
X87223599Y-45745825D01*
X87223599Y-45745825D02*
X87226508Y-45852265D01*
X87226508Y-45852265D02*
X87249540Y-45915547D01*
X87249540Y-45915547D02*
X87315731Y-45998954D01*
X87315731Y-45998954D02*
X87488361Y-46079452D01*
X87488361Y-46079452D02*
X87594801Y-46076544D01*
X87594801Y-46076544D02*
X87658083Y-46053511D01*
X87658083Y-46053511D02*
X87741490Y-45987321D01*
X87741490Y-45987321D02*
X87842113Y-45771533D01*
X87842113Y-45771533D02*
X87839205Y-45665094D01*
X87839205Y-45665094D02*
X87816172Y-45601812D01*
X87816172Y-45601812D02*
X87749982Y-45518405D01*
X87749982Y-45518405D02*
X87577352Y-45437906D01*
X87577352Y-45437906D02*
X87470912Y-45440814D01*
X87470912Y-45440814D02*
X87407630Y-45463847D01*
X87407630Y-45463847D02*
X87324223Y-45530037D01*
X83113300Y-45720025D02*
X82811430Y-46367388D01*
X82811430Y-46367388D02*
X82707898Y-46476736D01*
X82707898Y-46476736D02*
X82581334Y-46522801D01*
X82581334Y-46522801D02*
X82431737Y-46505585D01*
X82431737Y-46505585D02*
X82345422Y-46465335D01*
X83458561Y-45881022D02*
X84062766Y-46162768D01*
X84062766Y-46162768D02*
X83251730Y-46887954D01*
X64591206Y-98721548D02*
X64850025Y-97755622D01*
X64850025Y-97755622D02*
X65080007Y-97817246D01*
X65080007Y-97817246D02*
X65205672Y-97900216D01*
X65205672Y-97900216D02*
X65273015Y-98016859D01*
X65273015Y-98016859D02*
X65294362Y-98121176D01*
X65294362Y-98121176D02*
X65291060Y-98317487D01*
X65291060Y-98317487D02*
X65254086Y-98455476D01*
X65254086Y-98455476D02*
X65158791Y-98627138D01*
X65158791Y-98627138D02*
X65088145Y-98706806D01*
X65088145Y-98706806D02*
X64971502Y-98774149D01*
X64971502Y-98774149D02*
X64821188Y-98783172D01*
X64821188Y-98783172D02*
X64591206Y-98721548D01*
X65723958Y-97989792D02*
X66321912Y-98150013D01*
X66321912Y-98150013D02*
X65901339Y-98431712D01*
X65901339Y-98431712D02*
X66039328Y-98468686D01*
X66039328Y-98468686D02*
X66118997Y-98539332D01*
X66118997Y-98539332D02*
X66152668Y-98597653D01*
X66152668Y-98597653D02*
X66174015Y-98701971D01*
X66174015Y-98701971D02*
X66112392Y-98931953D01*
X66112392Y-98931953D02*
X66041746Y-99011621D01*
X66041746Y-99011621D02*
X65983425Y-99045293D01*
X65983425Y-99045293D02*
X65879107Y-99066640D01*
X65879107Y-99066640D02*
X65603128Y-98992692D01*
X65603128Y-98992692D02*
X65523460Y-98922046D01*
X65523460Y-98922046D02*
X65489788Y-98863725D01*
X61079781Y-99747689D02*
X60527823Y-99599793D01*
X60803802Y-99673741D02*
X61062621Y-98707815D01*
X61062621Y-98707815D02*
X60933654Y-98821155D01*
X60933654Y-98821155D02*
X60817012Y-98888499D01*
X60817012Y-98888499D02*
X60712694Y-98909846D01*
X52415468Y-161863346D02*
X52359426Y-162575430D01*
X52359426Y-162575430D02*
X52300745Y-162714111D01*
X52300745Y-162714111D02*
X52198328Y-162801583D01*
X52198328Y-162801583D02*
X52052175Y-162837847D01*
X52052175Y-162837847D02*
X51957231Y-162830374D01*
X52795246Y-161893235D02*
X53412386Y-161941805D01*
X53412386Y-161941805D02*
X53050191Y-162295430D01*
X53050191Y-162295430D02*
X53192607Y-162306639D01*
X53192607Y-162306639D02*
X53283816Y-162361583D01*
X53283816Y-162361583D02*
X53327552Y-162412792D01*
X53327552Y-162412792D02*
X53367552Y-162511472D01*
X53367552Y-162511472D02*
X53348871Y-162748834D01*
X53348871Y-162748834D02*
X53293927Y-162840042D01*
X53293927Y-162840042D02*
X53242718Y-162883778D01*
X53242718Y-162883778D02*
X53144037Y-162923778D01*
X53144037Y-162923778D02*
X52859204Y-162901361D01*
X52859204Y-162901361D02*
X52767996Y-162846417D01*
X52767996Y-162846417D02*
X52724259Y-162795208D01*
D11*
%TO.C,D4*%
X70221943Y-72832611D02*
X77037080Y-75448697D01*
X68250920Y-77967303D02*
X75066057Y-80583389D01*
X75066057Y-80583389D02*
X75478180Y-79509772D01*
%TO.C,D1*%
X52625923Y-151317943D02*
X59915919Y-151699995D01*
X52338075Y-156810405D02*
X59628071Y-157192457D01*
X59628071Y-157192457D02*
X59688257Y-156044033D01*
%TO.C,J4*%
X57131000Y-162179000D02*
G75*
G03*
X57131000Y-162179000I-1251000J0D01*
G01*
%TO.C,J5*%
X60052000Y-160147000D02*
G75*
G03*
X60052000Y-160147000I-1251000J0D01*
G01*
%TO.C,D2*%
X55753132Y-124728871D02*
X62963257Y-125870843D01*
X54892743Y-130161157D02*
X62102868Y-131303129D01*
X62102868Y-131303129D02*
X62282767Y-130167287D01*
%TO.C,D5*%
X81562300Y-48216667D02*
X88066648Y-51530797D01*
X79065352Y-53117203D02*
X85569700Y-56431333D01*
X85569700Y-56431333D02*
X86091789Y-55406676D01*
%TO.C,J8*%
X90913000Y-47117000D02*
G75*
G03*
X90913000Y-47117000I-1251000J0D01*
G01*
%TO.C,J6*%
X87230000Y-47498000D02*
G75*
G03*
X87230000Y-47498000I-1251000J0D01*
G01*
%TO.C,J7*%
X85706000Y-44196000D02*
G75*
G03*
X85706000Y-44196000I-1251000J0D01*
G01*
%TO.C,J2*%
X86302886Y-37817949D02*
X94097114Y-42317949D01*
X84302886Y-41282051D02*
X86302886Y-37817949D01*
X88900962Y-39317949D02*
X86900962Y-42782051D01*
X94097114Y-42317949D02*
X92097114Y-45782051D01*
X92097114Y-45782051D02*
X84302886Y-41282051D01*
%TO.C,J1*%
X51300000Y-164200000D02*
X60300000Y-164200000D01*
X51300000Y-168200000D02*
X51300000Y-164200000D01*
X54300000Y-164200000D02*
X54300000Y-168200000D01*
X60300000Y-164200000D02*
X60300000Y-168200000D01*
X60300000Y-168200000D02*
X51300000Y-168200000D01*
%TO.C,D3*%
X61702123Y-98253014D02*
X68753382Y-100142393D01*
X60278618Y-103565607D02*
X67329877Y-105454986D01*
X67329877Y-105454986D02*
X67627519Y-104344171D01*
%TO.C,J3*%
X54210000Y-160020000D02*
G75*
G03*
X54210000Y-160020000I-1251000J0D01*
G01*
%TD*%
M02*
