%TF.GenerationSoftware,KiCad,Pcbnew,9.0.0*%
%TF.CreationDate,2025-03-14T11:53:48-04:00*%
%TF.ProjectId,RGB Clock Controller,52474220-436c-46f6-936b-20436f6e7472,rev?*%
%TF.SameCoordinates,Original*%
%TF.FileFunction,Copper,L2,Bot*%
%TF.FilePolarity,Positive*%
%FSLAX46Y46*%
G04 Gerber Fmt 4.6, Leading zero omitted, Abs format (unit mm)*
G04 Created by KiCad (PCBNEW 9.0.0) date 2025-03-14 11:53:48*
%MOMM*%
%LPD*%
G01*
G04 APERTURE LIST*
G04 Aperture macros list*
%AMRoundRect*
0 Rectangle with rounded corners*
0 $1 Rounding radius*
0 $2 $3 $4 $5 $6 $7 $8 $9 X,Y pos of 4 corners*
0 Add a 4 corners polygon primitive as box body*
4,1,4,$2,$3,$4,$5,$6,$7,$8,$9,$2,$3,0*
0 Add four circle primitives for the rounded corners*
1,1,$1+$1,$2,$3*
1,1,$1+$1,$4,$5*
1,1,$1+$1,$6,$7*
1,1,$1+$1,$8,$9*
0 Add four rect primitives between the rounded corners*
20,1,$1+$1,$2,$3,$4,$5,0*
20,1,$1+$1,$4,$5,$6,$7,0*
20,1,$1+$1,$6,$7,$8,$9,0*
20,1,$1+$1,$8,$9,$2,$3,0*%
G04 Aperture macros list end*
%TA.AperFunction,ComponentPad*%
%ADD10R,2.200000X2.200000*%
%TD*%
%TA.AperFunction,ComponentPad*%
%ADD11C,2.200000*%
%TD*%
%TA.AperFunction,ComponentPad*%
%ADD12R,1.700000X1.700000*%
%TD*%
%TA.AperFunction,ComponentPad*%
%ADD13O,1.700000X1.700000*%
%TD*%
%TA.AperFunction,ComponentPad*%
%ADD14RoundRect,0.249999X0.850001X-0.850001X0.850001X0.850001X-0.850001X0.850001X-0.850001X-0.850001X0*%
%TD*%
%TA.AperFunction,ComponentPad*%
%ADD15O,1.200000X2.000000*%
%TD*%
%TA.AperFunction,ComponentPad*%
%ADD16C,2.000000*%
%TD*%
%TA.AperFunction,ViaPad*%
%ADD17C,0.600000*%
%TD*%
%TA.AperFunction,Conductor*%
%ADD18C,0.200000*%
%TD*%
%TA.AperFunction,Conductor*%
%ADD19C,0.635000*%
%TD*%
G04 APERTURE END LIST*
D10*
%TO.P,J1,1,Pin_1*%
%TO.N,GND*%
X61976000Y-58420000D03*
D11*
%TO.P,J1,2,Pin_2*%
%TO.N,VCC*%
X61976000Y-60960000D03*
%TD*%
D12*
%TO.P,J3,1,Pin_1*%
%TO.N,GND*%
X125095000Y-74955400D03*
D13*
%TO.P,J3,2,Pin_2*%
%TO.N,+3V3*%
X125095000Y-72415400D03*
%TO.P,J3,3,Pin_3*%
%TO.N,Net-(A1-D1)*%
X125095000Y-69875400D03*
%TO.P,J3,4,Pin_4*%
%TO.N,Net-(A1-D2)*%
X125095000Y-67335400D03*
%TD*%
D14*
%TO.P,J5,1,Pin_1*%
%TO.N,GND*%
X123825000Y-63500000D03*
D11*
%TO.P,J5,2,Pin_2*%
%TO.N,Net-(J2-Pin_2)*%
X123825000Y-60960000D03*
%TO.P,J5,3,Pin_3*%
%TO.N,VCC*%
X123825000Y-58420000D03*
%TD*%
D15*
%TO.P,A1,1,3V3*%
%TO.N,+3V3*%
X74255000Y-81707000D03*
%TO.P,A1,2,GND*%
%TO.N,GND*%
X76795000Y-81707000D03*
%TO.P,A1,3,TX*%
%TO.N,unconnected-(A1-TX-Pad3)*%
X79335000Y-81707000D03*
%TO.P,A1,4,RX*%
%TO.N,Net-(A1-RX)*%
X81875000Y-81707000D03*
%TO.P,A1,5,D8*%
%TO.N,unconnected-(A1-D8-Pad5)*%
X84415000Y-81707000D03*
%TO.P,A1,6,D7*%
%TO.N,unconnected-(A1-D7-Pad6)*%
X86955000Y-81707000D03*
%TO.P,A1,7,D6*%
%TO.N,/~{CFG}*%
X89495000Y-81707000D03*
%TO.P,A1,8,D5*%
%TO.N,Net-(A1-D5)*%
X92035000Y-81707000D03*
%TO.P,A1,9,GND*%
%TO.N,GND*%
X94575000Y-81707000D03*
%TO.P,A1,10,3V3*%
%TO.N,+3V3*%
X97115000Y-81707000D03*
%TO.P,A1,11,D4*%
%TO.N,unconnected-(A1-D4-Pad11)*%
X99655000Y-81707000D03*
%TO.P,A1,12,D3*%
%TO.N,unconnected-(A1-D3-Pad12)*%
X102195000Y-81707000D03*
%TO.P,A1,13,D2*%
%TO.N,Net-(A1-D2)*%
X104735000Y-81707000D03*
%TO.P,A1,14,D1*%
%TO.N,Net-(A1-D1)*%
X107275000Y-81707000D03*
%TO.P,A1,15,D0*%
%TO.N,unconnected-(A1-D0-Pad15)*%
X109815000Y-81707000D03*
%TO.P,A1,16,A0*%
%TO.N,unconnected-(A1-A0-Pad16)*%
X109815000Y-58847000D03*
%TO.P,A1,17*%
%TO.N,N/C*%
X107275000Y-58847000D03*
%TO.P,A1,18*%
X104735000Y-58847000D03*
%TO.P,A1,19,SD3*%
%TO.N,unconnected-(A1-SD3-Pad19)*%
X102195000Y-58847000D03*
%TO.P,A1,20,SD2*%
%TO.N,unconnected-(A1-SD2-Pad20)*%
X99655000Y-58847000D03*
%TO.P,A1,21,SD1*%
%TO.N,unconnected-(A1-SD1-Pad21)*%
X97115000Y-58847000D03*
%TO.P,A1,22,CMD*%
%TO.N,unconnected-(A1-CMD-Pad22)*%
X94575000Y-58847000D03*
%TO.P,A1,23,SD0*%
%TO.N,unconnected-(A1-SD0-Pad23)*%
X92035000Y-58847000D03*
%TO.P,A1,24,CLK*%
%TO.N,unconnected-(A1-CLK-Pad24)*%
X89495000Y-58847000D03*
%TO.P,A1,25,GND*%
%TO.N,GND*%
X86955000Y-58847000D03*
%TO.P,A1,26,3V3*%
%TO.N,+3V3*%
X84415000Y-58847000D03*
%TO.P,A1,27,EN*%
%TO.N,unconnected-(A1-EN-Pad27)*%
X81875000Y-58847000D03*
%TO.P,A1,28,~{RST}*%
%TO.N,unconnected-(A1-~{RST}-Pad28)*%
X79335000Y-58847000D03*
%TO.P,A1,29,GND*%
%TO.N,GND*%
X76795000Y-58847000D03*
%TO.P,A1,30,V+*%
%TO.N,VCC*%
X74255000Y-58847000D03*
%TD*%
D12*
%TO.P,U1,1,GND*%
%TO.N,GND*%
X121158000Y-67360800D03*
D13*
%TO.P,U1,2,VCC*%
%TO.N,+3V3*%
X121158000Y-69900800D03*
%TO.P,U1,3,SCL*%
%TO.N,Net-(A1-D1)*%
X121158000Y-72440800D03*
%TO.P,U1,4,SDA*%
%TO.N,Net-(A1-D2)*%
X121158000Y-74980800D03*
%TD*%
D16*
%TO.P,SW3,1,1*%
%TO.N,/~{CFG}*%
X125984000Y-82804000D03*
X119484000Y-82804000D03*
%TO.P,SW3,2,2*%
%TO.N,GND*%
X125984000Y-78304000D03*
X119484000Y-78304000D03*
%TD*%
D10*
%TO.P,J2,1,Pin_1*%
%TO.N,GND*%
X61976000Y-77216000D03*
D11*
%TO.P,J2,2,Pin_2*%
%TO.N,Net-(J2-Pin_2)*%
X61976000Y-79756000D03*
%TO.P,J2,3,Pin_3*%
%TO.N,VCC*%
X61976000Y-82296000D03*
%TD*%
D17*
%TO.N,VCC*%
X81788000Y-73660000D03*
%TO.N,Net-(J2-Pin_2)*%
X89408000Y-72136000D03*
%TO.N,Net-(A1-D5)*%
X71628000Y-71882000D03*
%TO.N,+3V3*%
X84415000Y-62905000D03*
X84415000Y-64008000D03*
X84415000Y-65024000D03*
%TD*%
D18*
%TO.N,Net-(J2-Pin_2)*%
X123825000Y-60960000D02*
X115824000Y-60960000D01*
X115824000Y-60960000D02*
X104648000Y-72136000D01*
X104648000Y-72136000D02*
X89408000Y-72136000D01*
%TO.N,GND*%
X121158000Y-67360800D02*
X121158000Y-66167000D01*
X76795000Y-80685000D02*
X78105000Y-79375000D01*
X127000000Y-66675000D02*
X123825000Y-63500000D01*
X121158000Y-66167000D02*
X123825000Y-63500000D01*
X127000000Y-74168000D02*
X127000000Y-66675000D01*
X78105000Y-79375000D02*
X92964000Y-79375000D01*
X125095000Y-74955400D02*
X126212600Y-74955400D01*
X92964000Y-79375000D02*
X94575000Y-80986000D01*
X76795000Y-81707000D02*
X76795000Y-80685000D01*
X126212600Y-74955400D02*
X127000000Y-74168000D01*
D19*
%TO.N,VCC*%
X64770000Y-64516000D02*
X64770000Y-80518000D01*
X74168000Y-59944000D02*
X74168000Y-61468000D01*
D18*
X81788000Y-73660000D02*
X74168000Y-66040000D01*
D19*
X91694000Y-61468000D02*
X111760000Y-61468000D01*
D18*
X74168000Y-66040000D02*
X74168000Y-61468000D01*
D19*
X75184000Y-61468000D02*
X74168000Y-61468000D01*
X77724000Y-61468000D02*
X75184000Y-61468000D01*
X61976000Y-60960000D02*
X63500000Y-60960000D01*
X114808000Y-58420000D02*
X123825000Y-58420000D01*
X111760000Y-61468000D02*
X114808000Y-58420000D01*
X63500000Y-60960000D02*
X64770000Y-62230000D01*
X74168000Y-61468000D02*
X72136000Y-61468000D01*
X74168000Y-58934000D02*
X74168000Y-59944000D01*
X77724000Y-61468000D02*
X91694000Y-61468000D01*
X72136000Y-61468000D02*
X65532000Y-61468000D01*
X64770000Y-64516000D02*
X64770000Y-62738000D01*
X62992000Y-82296000D02*
X61976000Y-82296000D01*
X64770000Y-64516000D02*
X64770000Y-62230000D01*
X64770000Y-80518000D02*
X62992000Y-82296000D01*
X64770000Y-62230000D02*
X65532000Y-61468000D01*
D18*
%TO.N,Net-(A1-D5)*%
X92035000Y-81707000D02*
X90430000Y-83312000D01*
X72644000Y-82804000D02*
X72644000Y-72898000D01*
X73152000Y-83312000D02*
X72644000Y-82804000D01*
X90430000Y-83312000D02*
X73152000Y-83312000D01*
X71628000Y-71882000D02*
X72644000Y-72898000D01*
D19*
%TO.N,+3V3*%
X97115000Y-81707000D02*
X97115000Y-78700000D01*
X84415000Y-76200000D02*
X84415000Y-64008000D01*
X75247500Y-77787500D02*
X82827500Y-77787500D01*
X86002500Y-77787500D02*
X84415000Y-76200000D01*
X74255000Y-78780000D02*
X75247500Y-77787500D01*
X97115000Y-78700000D02*
X96202500Y-77787500D01*
X74255000Y-81707000D02*
X74255000Y-78780000D01*
X86002500Y-77787500D02*
X96202500Y-77787500D01*
X82827500Y-77787500D02*
X84415000Y-76200000D01*
X84415000Y-63500000D02*
X84415000Y-62905000D01*
X84415000Y-64008000D02*
X84415000Y-63500000D01*
D18*
%TO.N,Net-(A1-D2)*%
X104735000Y-81707000D02*
X104735000Y-79161000D01*
X104735000Y-79161000D02*
X115316000Y-68580000D01*
X123850400Y-68580000D02*
X125095000Y-67335400D01*
X115316000Y-68580000D02*
X123850400Y-68580000D01*
%TO.N,Net-(A1-D1)*%
X123723400Y-69875400D02*
X121158000Y-72440800D01*
X125095000Y-69875400D02*
X123723400Y-69875400D01*
X114249200Y-72440800D02*
X113665000Y-73025000D01*
X121158000Y-72440800D02*
X114249200Y-72440800D01*
X107275000Y-79415000D02*
X113665000Y-73025000D01*
X107275000Y-81707000D02*
X107275000Y-79415000D01*
%TD*%
M02*
