%TF.GenerationSoftware,KiCad,Pcbnew,9.0.0*%
%TF.CreationDate,2025-03-14T11:53:48-04:00*%
%TF.ProjectId,RGB Clock Controller,52474220-436c-46f6-936b-20436f6e7472,rev?*%
%TF.SameCoordinates,Original*%
%TF.FileFunction,Legend,Top*%
%TF.FilePolarity,Positive*%
%FSLAX46Y46*%
G04 Gerber Fmt 4.6, Leading zero omitted, Abs format (unit mm)*
G04 Created by KiCad (PCBNEW 9.0.0) date 2025-03-14 11:53:48*
%MOMM*%
%LPD*%
G01*
G04 APERTURE LIST*
%ADD10C,0.100000*%
%ADD11C,0.150000*%
%ADD12C,0.120000*%
G04 APERTURE END LIST*
D10*
X97109598Y-62880419D02*
X97109598Y-63594704D01*
X97109598Y-63594704D02*
X97061979Y-63737561D01*
X97061979Y-63737561D02*
X96966741Y-63832800D01*
X96966741Y-63832800D02*
X96823884Y-63880419D01*
X96823884Y-63880419D02*
X96728646Y-63880419D01*
X98061979Y-63880419D02*
X97585789Y-63880419D01*
X97585789Y-63880419D02*
X97585789Y-62880419D01*
X98966741Y-63785180D02*
X98919122Y-63832800D01*
X98919122Y-63832800D02*
X98776265Y-63880419D01*
X98776265Y-63880419D02*
X98681027Y-63880419D01*
X98681027Y-63880419D02*
X98538170Y-63832800D01*
X98538170Y-63832800D02*
X98442932Y-63737561D01*
X98442932Y-63737561D02*
X98395313Y-63642323D01*
X98395313Y-63642323D02*
X98347694Y-63451847D01*
X98347694Y-63451847D02*
X98347694Y-63308990D01*
X98347694Y-63308990D02*
X98395313Y-63118514D01*
X98395313Y-63118514D02*
X98442932Y-63023276D01*
X98442932Y-63023276D02*
X98538170Y-62928038D01*
X98538170Y-62928038D02*
X98681027Y-62880419D01*
X98681027Y-62880419D02*
X98776265Y-62880419D01*
X98776265Y-62880419D02*
X98919122Y-62928038D01*
X98919122Y-62928038D02*
X98966741Y-62975657D01*
X99681027Y-62880419D02*
X99681027Y-63594704D01*
X99681027Y-63594704D02*
X99633408Y-63737561D01*
X99633408Y-63737561D02*
X99538170Y-63832800D01*
X99538170Y-63832800D02*
X99395313Y-63880419D01*
X99395313Y-63880419D02*
X99300075Y-63880419D01*
X100633408Y-63880419D02*
X100157218Y-63880419D01*
X100157218Y-63880419D02*
X100157218Y-62880419D01*
X101538170Y-63785180D02*
X101490551Y-63832800D01*
X101490551Y-63832800D02*
X101347694Y-63880419D01*
X101347694Y-63880419D02*
X101252456Y-63880419D01*
X101252456Y-63880419D02*
X101109599Y-63832800D01*
X101109599Y-63832800D02*
X101014361Y-63737561D01*
X101014361Y-63737561D02*
X100966742Y-63642323D01*
X100966742Y-63642323D02*
X100919123Y-63451847D01*
X100919123Y-63451847D02*
X100919123Y-63308990D01*
X100919123Y-63308990D02*
X100966742Y-63118514D01*
X100966742Y-63118514D02*
X101014361Y-63023276D01*
X101014361Y-63023276D02*
X101109599Y-62928038D01*
X101109599Y-62928038D02*
X101252456Y-62880419D01*
X101252456Y-62880419D02*
X101347694Y-62880419D01*
X101347694Y-62880419D02*
X101490551Y-62928038D01*
X101490551Y-62928038D02*
X101538170Y-62975657D01*
X102252456Y-62880419D02*
X102252456Y-63594704D01*
X102252456Y-63594704D02*
X102204837Y-63737561D01*
X102204837Y-63737561D02*
X102109599Y-63832800D01*
X102109599Y-63832800D02*
X101966742Y-63880419D01*
X101966742Y-63880419D02*
X101871504Y-63880419D01*
X103204837Y-63880419D02*
X102728647Y-63880419D01*
X102728647Y-63880419D02*
X102728647Y-62880419D01*
X104109599Y-63785180D02*
X104061980Y-63832800D01*
X104061980Y-63832800D02*
X103919123Y-63880419D01*
X103919123Y-63880419D02*
X103823885Y-63880419D01*
X103823885Y-63880419D02*
X103681028Y-63832800D01*
X103681028Y-63832800D02*
X103585790Y-63737561D01*
X103585790Y-63737561D02*
X103538171Y-63642323D01*
X103538171Y-63642323D02*
X103490552Y-63451847D01*
X103490552Y-63451847D02*
X103490552Y-63308990D01*
X103490552Y-63308990D02*
X103538171Y-63118514D01*
X103538171Y-63118514D02*
X103585790Y-63023276D01*
X103585790Y-63023276D02*
X103681028Y-62928038D01*
X103681028Y-62928038D02*
X103823885Y-62880419D01*
X103823885Y-62880419D02*
X103919123Y-62880419D01*
X103919123Y-62880419D02*
X104061980Y-62928038D01*
X104061980Y-62928038D02*
X104109599Y-62975657D01*
X104823885Y-62880419D02*
X104823885Y-63594704D01*
X104823885Y-63594704D02*
X104776266Y-63737561D01*
X104776266Y-63737561D02*
X104681028Y-63832800D01*
X104681028Y-63832800D02*
X104538171Y-63880419D01*
X104538171Y-63880419D02*
X104442933Y-63880419D01*
X105776266Y-63880419D02*
X105300076Y-63880419D01*
X105300076Y-63880419D02*
X105300076Y-62880419D01*
X106681028Y-63785180D02*
X106633409Y-63832800D01*
X106633409Y-63832800D02*
X106490552Y-63880419D01*
X106490552Y-63880419D02*
X106395314Y-63880419D01*
X106395314Y-63880419D02*
X106252457Y-63832800D01*
X106252457Y-63832800D02*
X106157219Y-63737561D01*
X106157219Y-63737561D02*
X106109600Y-63642323D01*
X106109600Y-63642323D02*
X106061981Y-63451847D01*
X106061981Y-63451847D02*
X106061981Y-63308990D01*
X106061981Y-63308990D02*
X106109600Y-63118514D01*
X106109600Y-63118514D02*
X106157219Y-63023276D01*
X106157219Y-63023276D02*
X106252457Y-62928038D01*
X106252457Y-62928038D02*
X106395314Y-62880419D01*
X106395314Y-62880419D02*
X106490552Y-62880419D01*
X106490552Y-62880419D02*
X106633409Y-62928038D01*
X106633409Y-62928038D02*
X106681028Y-62975657D01*
X53332419Y-73286571D02*
X53332419Y-73857999D01*
X53332419Y-73572285D02*
X52332419Y-73572285D01*
X52332419Y-73572285D02*
X52475276Y-73667523D01*
X52475276Y-73667523D02*
X52570514Y-73762761D01*
X52570514Y-73762761D02*
X52618133Y-73857999D01*
X53237180Y-72857999D02*
X53284800Y-72810380D01*
X53284800Y-72810380D02*
X53332419Y-72857999D01*
X53332419Y-72857999D02*
X53284800Y-72905618D01*
X53284800Y-72905618D02*
X53237180Y-72857999D01*
X53237180Y-72857999D02*
X53332419Y-72857999D01*
X53332419Y-71858000D02*
X53332419Y-72429428D01*
X53332419Y-72143714D02*
X52332419Y-72143714D01*
X52332419Y-72143714D02*
X52475276Y-72238952D01*
X52475276Y-72238952D02*
X52570514Y-72334190D01*
X52570514Y-72334190D02*
X52618133Y-72429428D01*
X53332419Y-70905619D02*
X53332419Y-71477047D01*
X53332419Y-71191333D02*
X52332419Y-71191333D01*
X52332419Y-71191333D02*
X52475276Y-71286571D01*
X52475276Y-71286571D02*
X52570514Y-71381809D01*
X52570514Y-71381809D02*
X52618133Y-71477047D01*
X52332419Y-70286571D02*
X52332419Y-70191333D01*
X52332419Y-70191333D02*
X52380038Y-70096095D01*
X52380038Y-70096095D02*
X52427657Y-70048476D01*
X52427657Y-70048476D02*
X52522895Y-70000857D01*
X52522895Y-70000857D02*
X52713371Y-69953238D01*
X52713371Y-69953238D02*
X52951466Y-69953238D01*
X52951466Y-69953238D02*
X53141942Y-70000857D01*
X53141942Y-70000857D02*
X53237180Y-70048476D01*
X53237180Y-70048476D02*
X53284800Y-70096095D01*
X53284800Y-70096095D02*
X53332419Y-70191333D01*
X53332419Y-70191333D02*
X53332419Y-70286571D01*
X53332419Y-70286571D02*
X53284800Y-70381809D01*
X53284800Y-70381809D02*
X53237180Y-70429428D01*
X53237180Y-70429428D02*
X53141942Y-70477047D01*
X53141942Y-70477047D02*
X52951466Y-70524666D01*
X52951466Y-70524666D02*
X52713371Y-70524666D01*
X52713371Y-70524666D02*
X52522895Y-70477047D01*
X52522895Y-70477047D02*
X52427657Y-70429428D01*
X52427657Y-70429428D02*
X52380038Y-70381809D01*
X52380038Y-70381809D02*
X52332419Y-70286571D01*
X52332419Y-69334190D02*
X52332419Y-69238952D01*
X52332419Y-69238952D02*
X52380038Y-69143714D01*
X52380038Y-69143714D02*
X52427657Y-69096095D01*
X52427657Y-69096095D02*
X52522895Y-69048476D01*
X52522895Y-69048476D02*
X52713371Y-69000857D01*
X52713371Y-69000857D02*
X52951466Y-69000857D01*
X52951466Y-69000857D02*
X53141942Y-69048476D01*
X53141942Y-69048476D02*
X53237180Y-69096095D01*
X53237180Y-69096095D02*
X53284800Y-69143714D01*
X53284800Y-69143714D02*
X53332419Y-69238952D01*
X53332419Y-69238952D02*
X53332419Y-69334190D01*
X53332419Y-69334190D02*
X53284800Y-69429428D01*
X53284800Y-69429428D02*
X53237180Y-69477047D01*
X53237180Y-69477047D02*
X53141942Y-69524666D01*
X53141942Y-69524666D02*
X52951466Y-69572285D01*
X52951466Y-69572285D02*
X52713371Y-69572285D01*
X52713371Y-69572285D02*
X52522895Y-69524666D01*
X52522895Y-69524666D02*
X52427657Y-69477047D01*
X52427657Y-69477047D02*
X52380038Y-69429428D01*
X52380038Y-69429428D02*
X52332419Y-69334190D01*
X53332419Y-67810380D02*
X52665752Y-67810380D01*
X52332419Y-67810380D02*
X52380038Y-67857999D01*
X52380038Y-67857999D02*
X52427657Y-67810380D01*
X52427657Y-67810380D02*
X52380038Y-67762761D01*
X52380038Y-67762761D02*
X52332419Y-67810380D01*
X52332419Y-67810380D02*
X52427657Y-67810380D01*
X52665752Y-67334190D02*
X53332419Y-67334190D01*
X52760990Y-67334190D02*
X52713371Y-67286571D01*
X52713371Y-67286571D02*
X52665752Y-67191333D01*
X52665752Y-67191333D02*
X52665752Y-67048476D01*
X52665752Y-67048476D02*
X52713371Y-66953238D01*
X52713371Y-66953238D02*
X52808609Y-66905619D01*
X52808609Y-66905619D02*
X53332419Y-66905619D01*
X57920000Y-56261000D02*
X53388580Y-56261000D01*
X57920000Y-84455000D02*
X53388580Y-84455000D01*
X53975000Y-56261000D02*
X53975000Y-84455000D01*
X53975000Y-56261000D02*
X53975000Y-84455000D01*
X53975000Y-56261000D02*
X54561421Y-57387504D01*
X53975000Y-56261000D02*
X53388579Y-57387504D01*
X53975000Y-84455000D02*
X53388579Y-83328496D01*
X53975000Y-84455000D02*
X54561421Y-83328496D01*
X53975000Y-56261000D02*
X53975000Y-84455000D01*
X53975000Y-56261000D02*
X53975000Y-84455000D01*
X53975000Y-56261000D02*
X54561421Y-57387504D01*
X53975000Y-56261000D02*
X53388579Y-57387504D01*
X53975000Y-84455000D02*
X53388579Y-83328496D01*
X53975000Y-84455000D02*
X54561421Y-83328496D01*
X89527500Y-50522657D02*
X89575119Y-50475038D01*
X89575119Y-50475038D02*
X89670357Y-50427419D01*
X89670357Y-50427419D02*
X89908452Y-50427419D01*
X89908452Y-50427419D02*
X90003690Y-50475038D01*
X90003690Y-50475038D02*
X90051309Y-50522657D01*
X90051309Y-50522657D02*
X90098928Y-50617895D01*
X90098928Y-50617895D02*
X90098928Y-50713133D01*
X90098928Y-50713133D02*
X90051309Y-50855990D01*
X90051309Y-50855990D02*
X89479881Y-51427419D01*
X89479881Y-51427419D02*
X90098928Y-51427419D01*
X90527500Y-51332180D02*
X90575119Y-51379800D01*
X90575119Y-51379800D02*
X90527500Y-51427419D01*
X90527500Y-51427419D02*
X90479881Y-51379800D01*
X90479881Y-51379800D02*
X90527500Y-51332180D01*
X90527500Y-51332180D02*
X90527500Y-51427419D01*
X90908452Y-50427419D02*
X91575118Y-50427419D01*
X91575118Y-50427419D02*
X91146547Y-51427419D01*
X91908452Y-50522657D02*
X91956071Y-50475038D01*
X91956071Y-50475038D02*
X92051309Y-50427419D01*
X92051309Y-50427419D02*
X92289404Y-50427419D01*
X92289404Y-50427419D02*
X92384642Y-50475038D01*
X92384642Y-50475038D02*
X92432261Y-50522657D01*
X92432261Y-50522657D02*
X92479880Y-50617895D01*
X92479880Y-50617895D02*
X92479880Y-50713133D01*
X92479880Y-50713133D02*
X92432261Y-50855990D01*
X92432261Y-50855990D02*
X91860833Y-51427419D01*
X91860833Y-51427419D02*
X92479880Y-51427419D01*
X93384642Y-50427419D02*
X92908452Y-50427419D01*
X92908452Y-50427419D02*
X92860833Y-50903609D01*
X92860833Y-50903609D02*
X92908452Y-50855990D01*
X92908452Y-50855990D02*
X93003690Y-50808371D01*
X93003690Y-50808371D02*
X93241785Y-50808371D01*
X93241785Y-50808371D02*
X93337023Y-50855990D01*
X93337023Y-50855990D02*
X93384642Y-50903609D01*
X93384642Y-50903609D02*
X93432261Y-50998847D01*
X93432261Y-50998847D02*
X93432261Y-51236942D01*
X93432261Y-51236942D02*
X93384642Y-51332180D01*
X93384642Y-51332180D02*
X93337023Y-51379800D01*
X93337023Y-51379800D02*
X93241785Y-51427419D01*
X93241785Y-51427419D02*
X93003690Y-51427419D01*
X93003690Y-51427419D02*
X92908452Y-51379800D01*
X92908452Y-51379800D02*
X92860833Y-51332180D01*
X94051309Y-50427419D02*
X94146547Y-50427419D01*
X94146547Y-50427419D02*
X94241785Y-50475038D01*
X94241785Y-50475038D02*
X94289404Y-50522657D01*
X94289404Y-50522657D02*
X94337023Y-50617895D01*
X94337023Y-50617895D02*
X94384642Y-50808371D01*
X94384642Y-50808371D02*
X94384642Y-51046466D01*
X94384642Y-51046466D02*
X94337023Y-51236942D01*
X94337023Y-51236942D02*
X94289404Y-51332180D01*
X94289404Y-51332180D02*
X94241785Y-51379800D01*
X94241785Y-51379800D02*
X94146547Y-51427419D01*
X94146547Y-51427419D02*
X94051309Y-51427419D01*
X94051309Y-51427419D02*
X93956071Y-51379800D01*
X93956071Y-51379800D02*
X93908452Y-51332180D01*
X93908452Y-51332180D02*
X93860833Y-51236942D01*
X93860833Y-51236942D02*
X93813214Y-51046466D01*
X93813214Y-51046466D02*
X93813214Y-50808371D01*
X93813214Y-50808371D02*
X93860833Y-50617895D01*
X93860833Y-50617895D02*
X93908452Y-50522657D01*
X93908452Y-50522657D02*
X93956071Y-50475038D01*
X93956071Y-50475038D02*
X94051309Y-50427419D01*
X95575119Y-51427419D02*
X95575119Y-50760752D01*
X95575119Y-50427419D02*
X95527500Y-50475038D01*
X95527500Y-50475038D02*
X95575119Y-50522657D01*
X95575119Y-50522657D02*
X95622738Y-50475038D01*
X95622738Y-50475038D02*
X95575119Y-50427419D01*
X95575119Y-50427419D02*
X95575119Y-50522657D01*
X96051309Y-50760752D02*
X96051309Y-51427419D01*
X96051309Y-50855990D02*
X96098928Y-50808371D01*
X96098928Y-50808371D02*
X96194166Y-50760752D01*
X96194166Y-50760752D02*
X96337023Y-50760752D01*
X96337023Y-50760752D02*
X96432261Y-50808371D01*
X96432261Y-50808371D02*
X96479880Y-50903609D01*
X96479880Y-50903609D02*
X96479880Y-51427419D01*
X58420000Y-56015000D02*
X58420000Y-51483580D01*
X127635000Y-56015000D02*
X127635000Y-51483580D01*
X58420000Y-52070000D02*
X127635000Y-52070000D01*
X58420000Y-52070000D02*
X127635000Y-52070000D01*
X58420000Y-52070000D02*
X59546504Y-51483579D01*
X58420000Y-52070000D02*
X59546504Y-52656421D01*
X127635000Y-52070000D02*
X126508496Y-52656421D01*
X127635000Y-52070000D02*
X126508496Y-51483579D01*
X58420000Y-52070000D02*
X127635000Y-52070000D01*
X58420000Y-52070000D02*
X127635000Y-52070000D01*
X58420000Y-52070000D02*
X59546504Y-51483579D01*
X58420000Y-52070000D02*
X59546504Y-52656421D01*
X127635000Y-52070000D02*
X126508496Y-52656421D01*
X127635000Y-52070000D02*
X126508496Y-51483579D01*
D11*
X114151580Y-61148166D02*
X114199200Y-61195785D01*
X114199200Y-61195785D02*
X114246819Y-61338642D01*
X114246819Y-61338642D02*
X114246819Y-61433880D01*
X114246819Y-61433880D02*
X114199200Y-61576737D01*
X114199200Y-61576737D02*
X114103961Y-61671975D01*
X114103961Y-61671975D02*
X114008723Y-61719594D01*
X114008723Y-61719594D02*
X113818247Y-61767213D01*
X113818247Y-61767213D02*
X113675390Y-61767213D01*
X113675390Y-61767213D02*
X113484914Y-61719594D01*
X113484914Y-61719594D02*
X113389676Y-61671975D01*
X113389676Y-61671975D02*
X113294438Y-61576737D01*
X113294438Y-61576737D02*
X113246819Y-61433880D01*
X113246819Y-61433880D02*
X113246819Y-61338642D01*
X113246819Y-61338642D02*
X113294438Y-61195785D01*
X113294438Y-61195785D02*
X113342057Y-61148166D01*
X113246819Y-60243404D02*
X113246819Y-60719594D01*
X113246819Y-60719594D02*
X113723009Y-60767213D01*
X113723009Y-60767213D02*
X113675390Y-60719594D01*
X113675390Y-60719594D02*
X113627771Y-60624356D01*
X113627771Y-60624356D02*
X113627771Y-60386261D01*
X113627771Y-60386261D02*
X113675390Y-60291023D01*
X113675390Y-60291023D02*
X113723009Y-60243404D01*
X113723009Y-60243404D02*
X113818247Y-60195785D01*
X113818247Y-60195785D02*
X114056342Y-60195785D01*
X114056342Y-60195785D02*
X114151580Y-60243404D01*
X114151580Y-60243404D02*
X114199200Y-60291023D01*
X114199200Y-60291023D02*
X114246819Y-60386261D01*
X114246819Y-60386261D02*
X114246819Y-60624356D01*
X114246819Y-60624356D02*
X114199200Y-60719594D01*
X114199200Y-60719594D02*
X114151580Y-60767213D01*
X71987580Y-79414666D02*
X72035200Y-79462285D01*
X72035200Y-79462285D02*
X72082819Y-79605142D01*
X72082819Y-79605142D02*
X72082819Y-79700380D01*
X72082819Y-79700380D02*
X72035200Y-79843237D01*
X72035200Y-79843237D02*
X71939961Y-79938475D01*
X71939961Y-79938475D02*
X71844723Y-79986094D01*
X71844723Y-79986094D02*
X71654247Y-80033713D01*
X71654247Y-80033713D02*
X71511390Y-80033713D01*
X71511390Y-80033713D02*
X71320914Y-79986094D01*
X71320914Y-79986094D02*
X71225676Y-79938475D01*
X71225676Y-79938475D02*
X71130438Y-79843237D01*
X71130438Y-79843237D02*
X71082819Y-79700380D01*
X71082819Y-79700380D02*
X71082819Y-79605142D01*
X71082819Y-79605142D02*
X71130438Y-79462285D01*
X71130438Y-79462285D02*
X71178057Y-79414666D01*
X71082819Y-79081332D02*
X71082819Y-78462285D01*
X71082819Y-78462285D02*
X71463771Y-78795618D01*
X71463771Y-78795618D02*
X71463771Y-78652761D01*
X71463771Y-78652761D02*
X71511390Y-78557523D01*
X71511390Y-78557523D02*
X71559009Y-78509904D01*
X71559009Y-78509904D02*
X71654247Y-78462285D01*
X71654247Y-78462285D02*
X71892342Y-78462285D01*
X71892342Y-78462285D02*
X71987580Y-78509904D01*
X71987580Y-78509904D02*
X72035200Y-78557523D01*
X72035200Y-78557523D02*
X72082819Y-78652761D01*
X72082819Y-78652761D02*
X72082819Y-78938475D01*
X72082819Y-78938475D02*
X72035200Y-79033713D01*
X72035200Y-79033713D02*
X71987580Y-79081332D01*
X80605333Y-61827580D02*
X80557714Y-61875200D01*
X80557714Y-61875200D02*
X80414857Y-61922819D01*
X80414857Y-61922819D02*
X80319619Y-61922819D01*
X80319619Y-61922819D02*
X80176762Y-61875200D01*
X80176762Y-61875200D02*
X80081524Y-61779961D01*
X80081524Y-61779961D02*
X80033905Y-61684723D01*
X80033905Y-61684723D02*
X79986286Y-61494247D01*
X79986286Y-61494247D02*
X79986286Y-61351390D01*
X79986286Y-61351390D02*
X80033905Y-61160914D01*
X80033905Y-61160914D02*
X80081524Y-61065676D01*
X80081524Y-61065676D02*
X80176762Y-60970438D01*
X80176762Y-60970438D02*
X80319619Y-60922819D01*
X80319619Y-60922819D02*
X80414857Y-60922819D01*
X80414857Y-60922819D02*
X80557714Y-60970438D01*
X80557714Y-60970438D02*
X80605333Y-61018057D01*
X81557714Y-61922819D02*
X80986286Y-61922819D01*
X81272000Y-61922819D02*
X81272000Y-60922819D01*
X81272000Y-60922819D02*
X81176762Y-61065676D01*
X81176762Y-61065676D02*
X81081524Y-61160914D01*
X81081524Y-61160914D02*
X80986286Y-61208533D01*
X61430819Y-64341333D02*
X62145104Y-64341333D01*
X62145104Y-64341333D02*
X62287961Y-64388952D01*
X62287961Y-64388952D02*
X62383200Y-64484190D01*
X62383200Y-64484190D02*
X62430819Y-64627047D01*
X62430819Y-64627047D02*
X62430819Y-64722285D01*
X62430819Y-63341333D02*
X62430819Y-63912761D01*
X62430819Y-63627047D02*
X61430819Y-63627047D01*
X61430819Y-63627047D02*
X61573676Y-63722285D01*
X61573676Y-63722285D02*
X61668914Y-63817523D01*
X61668914Y-63817523D02*
X61716533Y-63912761D01*
X69937333Y-67510819D02*
X69604000Y-67034628D01*
X69365905Y-67510819D02*
X69365905Y-66510819D01*
X69365905Y-66510819D02*
X69746857Y-66510819D01*
X69746857Y-66510819D02*
X69842095Y-66558438D01*
X69842095Y-66558438D02*
X69889714Y-66606057D01*
X69889714Y-66606057D02*
X69937333Y-66701295D01*
X69937333Y-66701295D02*
X69937333Y-66844152D01*
X69937333Y-66844152D02*
X69889714Y-66939390D01*
X69889714Y-66939390D02*
X69842095Y-66987009D01*
X69842095Y-66987009D02*
X69746857Y-67034628D01*
X69746857Y-67034628D02*
X69365905Y-67034628D01*
X70889714Y-67510819D02*
X70318286Y-67510819D01*
X70604000Y-67510819D02*
X70604000Y-66510819D01*
X70604000Y-66510819D02*
X70508762Y-66653676D01*
X70508762Y-66653676D02*
X70413524Y-66748914D01*
X70413524Y-66748914D02*
X70318286Y-66796533D01*
X88646095Y-77178819D02*
X88646095Y-77988342D01*
X88646095Y-77988342D02*
X88693714Y-78083580D01*
X88693714Y-78083580D02*
X88741333Y-78131200D01*
X88741333Y-78131200D02*
X88836571Y-78178819D01*
X88836571Y-78178819D02*
X89027047Y-78178819D01*
X89027047Y-78178819D02*
X89122285Y-78131200D01*
X89122285Y-78131200D02*
X89169904Y-78083580D01*
X89169904Y-78083580D02*
X89217523Y-77988342D01*
X89217523Y-77988342D02*
X89217523Y-77178819D01*
X89646095Y-77274057D02*
X89693714Y-77226438D01*
X89693714Y-77226438D02*
X89788952Y-77178819D01*
X89788952Y-77178819D02*
X90027047Y-77178819D01*
X90027047Y-77178819D02*
X90122285Y-77226438D01*
X90122285Y-77226438D02*
X90169904Y-77274057D01*
X90169904Y-77274057D02*
X90217523Y-77369295D01*
X90217523Y-77369295D02*
X90217523Y-77464533D01*
X90217523Y-77464533D02*
X90169904Y-77607390D01*
X90169904Y-77607390D02*
X89598476Y-78178819D01*
X89598476Y-78178819D02*
X90217523Y-78178819D01*
X119059819Y-61293333D02*
X119774104Y-61293333D01*
X119774104Y-61293333D02*
X119916961Y-61340952D01*
X119916961Y-61340952D02*
X120012200Y-61436190D01*
X120012200Y-61436190D02*
X120059819Y-61579047D01*
X120059819Y-61579047D02*
X120059819Y-61674285D01*
X119059819Y-60340952D02*
X119059819Y-60817142D01*
X119059819Y-60817142D02*
X119536009Y-60864761D01*
X119536009Y-60864761D02*
X119488390Y-60817142D01*
X119488390Y-60817142D02*
X119440771Y-60721904D01*
X119440771Y-60721904D02*
X119440771Y-60483809D01*
X119440771Y-60483809D02*
X119488390Y-60388571D01*
X119488390Y-60388571D02*
X119536009Y-60340952D01*
X119536009Y-60340952D02*
X119631247Y-60293333D01*
X119631247Y-60293333D02*
X119869342Y-60293333D01*
X119869342Y-60293333D02*
X119964580Y-60340952D01*
X119964580Y-60340952D02*
X120012200Y-60388571D01*
X120012200Y-60388571D02*
X120059819Y-60483809D01*
X120059819Y-60483809D02*
X120059819Y-60721904D01*
X120059819Y-60721904D02*
X120012200Y-60817142D01*
X120012200Y-60817142D02*
X119964580Y-60864761D01*
X95485833Y-73384580D02*
X95438214Y-73432200D01*
X95438214Y-73432200D02*
X95295357Y-73479819D01*
X95295357Y-73479819D02*
X95200119Y-73479819D01*
X95200119Y-73479819D02*
X95057262Y-73432200D01*
X95057262Y-73432200D02*
X94962024Y-73336961D01*
X94962024Y-73336961D02*
X94914405Y-73241723D01*
X94914405Y-73241723D02*
X94866786Y-73051247D01*
X94866786Y-73051247D02*
X94866786Y-72908390D01*
X94866786Y-72908390D02*
X94914405Y-72717914D01*
X94914405Y-72717914D02*
X94962024Y-72622676D01*
X94962024Y-72622676D02*
X95057262Y-72527438D01*
X95057262Y-72527438D02*
X95200119Y-72479819D01*
X95200119Y-72479819D02*
X95295357Y-72479819D01*
X95295357Y-72479819D02*
X95438214Y-72527438D01*
X95438214Y-72527438D02*
X95485833Y-72575057D01*
X95866786Y-72575057D02*
X95914405Y-72527438D01*
X95914405Y-72527438D02*
X96009643Y-72479819D01*
X96009643Y-72479819D02*
X96247738Y-72479819D01*
X96247738Y-72479819D02*
X96342976Y-72527438D01*
X96342976Y-72527438D02*
X96390595Y-72575057D01*
X96390595Y-72575057D02*
X96438214Y-72670295D01*
X96438214Y-72670295D02*
X96438214Y-72765533D01*
X96438214Y-72765533D02*
X96390595Y-72908390D01*
X96390595Y-72908390D02*
X95819167Y-73479819D01*
X95819167Y-73479819D02*
X96438214Y-73479819D01*
X113538095Y-81242819D02*
X113538095Y-82052342D01*
X113538095Y-82052342D02*
X113585714Y-82147580D01*
X113585714Y-82147580D02*
X113633333Y-82195200D01*
X113633333Y-82195200D02*
X113728571Y-82242819D01*
X113728571Y-82242819D02*
X113919047Y-82242819D01*
X113919047Y-82242819D02*
X114014285Y-82195200D01*
X114014285Y-82195200D02*
X114061904Y-82147580D01*
X114061904Y-82147580D02*
X114109523Y-82052342D01*
X114109523Y-82052342D02*
X114109523Y-81242819D01*
X115109523Y-82242819D02*
X114538095Y-82242819D01*
X114823809Y-82242819D02*
X114823809Y-81242819D01*
X114823809Y-81242819D02*
X114728571Y-81385676D01*
X114728571Y-81385676D02*
X114633333Y-81480914D01*
X114633333Y-81480914D02*
X114538095Y-81528533D01*
X121400667Y-80961200D02*
X121543524Y-81008819D01*
X121543524Y-81008819D02*
X121781619Y-81008819D01*
X121781619Y-81008819D02*
X121876857Y-80961200D01*
X121876857Y-80961200D02*
X121924476Y-80913580D01*
X121924476Y-80913580D02*
X121972095Y-80818342D01*
X121972095Y-80818342D02*
X121972095Y-80723104D01*
X121972095Y-80723104D02*
X121924476Y-80627866D01*
X121924476Y-80627866D02*
X121876857Y-80580247D01*
X121876857Y-80580247D02*
X121781619Y-80532628D01*
X121781619Y-80532628D02*
X121591143Y-80485009D01*
X121591143Y-80485009D02*
X121495905Y-80437390D01*
X121495905Y-80437390D02*
X121448286Y-80389771D01*
X121448286Y-80389771D02*
X121400667Y-80294533D01*
X121400667Y-80294533D02*
X121400667Y-80199295D01*
X121400667Y-80199295D02*
X121448286Y-80104057D01*
X121448286Y-80104057D02*
X121495905Y-80056438D01*
X121495905Y-80056438D02*
X121591143Y-80008819D01*
X121591143Y-80008819D02*
X121829238Y-80008819D01*
X121829238Y-80008819D02*
X121972095Y-80056438D01*
X122305429Y-80008819D02*
X122543524Y-81008819D01*
X122543524Y-81008819D02*
X122734000Y-80294533D01*
X122734000Y-80294533D02*
X122924476Y-81008819D01*
X122924476Y-81008819D02*
X123162572Y-80008819D01*
X123448286Y-80008819D02*
X124067333Y-80008819D01*
X124067333Y-80008819D02*
X123734000Y-80389771D01*
X123734000Y-80389771D02*
X123876857Y-80389771D01*
X123876857Y-80389771D02*
X123972095Y-80437390D01*
X123972095Y-80437390D02*
X124019714Y-80485009D01*
X124019714Y-80485009D02*
X124067333Y-80580247D01*
X124067333Y-80580247D02*
X124067333Y-80818342D01*
X124067333Y-80818342D02*
X124019714Y-80913580D01*
X124019714Y-80913580D02*
X123972095Y-80961200D01*
X123972095Y-80961200D02*
X123876857Y-81008819D01*
X123876857Y-81008819D02*
X123591143Y-81008819D01*
X123591143Y-81008819D02*
X123495905Y-80961200D01*
X123495905Y-80961200D02*
X123448286Y-80913580D01*
X69450833Y-61319580D02*
X69403214Y-61367200D01*
X69403214Y-61367200D02*
X69260357Y-61414819D01*
X69260357Y-61414819D02*
X69165119Y-61414819D01*
X69165119Y-61414819D02*
X69022262Y-61367200D01*
X69022262Y-61367200D02*
X68927024Y-61271961D01*
X68927024Y-61271961D02*
X68879405Y-61176723D01*
X68879405Y-61176723D02*
X68831786Y-60986247D01*
X68831786Y-60986247D02*
X68831786Y-60843390D01*
X68831786Y-60843390D02*
X68879405Y-60652914D01*
X68879405Y-60652914D02*
X68927024Y-60557676D01*
X68927024Y-60557676D02*
X69022262Y-60462438D01*
X69022262Y-60462438D02*
X69165119Y-60414819D01*
X69165119Y-60414819D02*
X69260357Y-60414819D01*
X69260357Y-60414819D02*
X69403214Y-60462438D01*
X69403214Y-60462438D02*
X69450833Y-60510057D01*
X70307976Y-60748152D02*
X70307976Y-61414819D01*
X70069881Y-60367200D02*
X69831786Y-61081485D01*
X69831786Y-61081485D02*
X70450833Y-61081485D01*
X112722819Y-71641666D02*
X112246628Y-71974999D01*
X112722819Y-72213094D02*
X111722819Y-72213094D01*
X111722819Y-72213094D02*
X111722819Y-71832142D01*
X111722819Y-71832142D02*
X111770438Y-71736904D01*
X111770438Y-71736904D02*
X111818057Y-71689285D01*
X111818057Y-71689285D02*
X111913295Y-71641666D01*
X111913295Y-71641666D02*
X112056152Y-71641666D01*
X112056152Y-71641666D02*
X112151390Y-71689285D01*
X112151390Y-71689285D02*
X112199009Y-71736904D01*
X112199009Y-71736904D02*
X112246628Y-71832142D01*
X112246628Y-71832142D02*
X112246628Y-72213094D01*
X112056152Y-70784523D02*
X112722819Y-70784523D01*
X111675200Y-71022618D02*
X112389485Y-71260713D01*
X112389485Y-71260713D02*
X112389485Y-70641666D01*
X61430819Y-74501333D02*
X62145104Y-74501333D01*
X62145104Y-74501333D02*
X62287961Y-74548952D01*
X62287961Y-74548952D02*
X62383200Y-74644190D01*
X62383200Y-74644190D02*
X62430819Y-74787047D01*
X62430819Y-74787047D02*
X62430819Y-74882285D01*
X61526057Y-74072761D02*
X61478438Y-74025142D01*
X61478438Y-74025142D02*
X61430819Y-73929904D01*
X61430819Y-73929904D02*
X61430819Y-73691809D01*
X61430819Y-73691809D02*
X61478438Y-73596571D01*
X61478438Y-73596571D02*
X61526057Y-73548952D01*
X61526057Y-73548952D02*
X61621295Y-73501333D01*
X61621295Y-73501333D02*
X61716533Y-73501333D01*
X61716533Y-73501333D02*
X61859390Y-73548952D01*
X61859390Y-73548952D02*
X62430819Y-74120380D01*
X62430819Y-74120380D02*
X62430819Y-73501333D01*
D12*
%TO.C,C5*%
X115089000Y-60720248D02*
X115089000Y-61242752D01*
X116559000Y-60720248D02*
X116559000Y-61242752D01*
%TO.C,C3*%
X68178000Y-79853752D02*
X68178000Y-78431248D01*
X69998000Y-79853752D02*
X69998000Y-78431248D01*
%TO.C,C1*%
X81444752Y-62590000D02*
X80022248Y-62590000D01*
X81444752Y-64410000D02*
X80022248Y-64410000D01*
%TO.C,J1*%
X58576000Y-56620000D02*
X58576000Y-57120000D01*
X58816000Y-56860000D02*
X58816000Y-57630000D01*
X58816000Y-59210000D02*
X58816000Y-60170000D01*
X58816000Y-61750000D02*
X58816000Y-62520000D01*
X59316000Y-56620000D02*
X58576000Y-56620000D01*
X59376000Y-56860000D02*
X59376000Y-57630000D01*
X59376000Y-59210000D02*
X59376000Y-60170000D01*
X59376000Y-61750000D02*
X59376000Y-62520000D01*
X64676000Y-56860000D02*
X64676000Y-62520000D01*
X65136000Y-56860000D02*
X58816000Y-56860000D01*
X65136000Y-56860000D02*
X65136000Y-62520000D01*
X65136000Y-62520000D02*
X58816000Y-62520000D01*
%TO.C,R1*%
X69402936Y-68305000D02*
X70857064Y-68305000D01*
X69402936Y-70125000D02*
X70857064Y-70125000D01*
%TO.C,J3*%
X123765000Y-73685400D02*
X123765000Y-66005400D01*
X126425000Y-66005400D02*
X123765000Y-66005400D01*
X126425000Y-73685400D02*
X123765000Y-73685400D01*
X126425000Y-73685400D02*
X126425000Y-66005400D01*
X126425000Y-74955400D02*
X126425000Y-76285400D01*
X126425000Y-76285400D02*
X125095000Y-76285400D01*
D11*
%TO.C,U2*%
X86133000Y-69509000D02*
X86133000Y-75059000D01*
X86133000Y-69509000D02*
X87033000Y-69509000D01*
X86133000Y-75059000D02*
X87033000Y-75059000D01*
X92683000Y-69509000D02*
X91883000Y-69509000D01*
X92683000Y-69509000D02*
X92683000Y-75059000D01*
X92683000Y-75059000D02*
X91783000Y-75059000D01*
D12*
X92213000Y-69111500D02*
X91883000Y-68871500D01*
X92213000Y-68631500D01*
X92213000Y-69111500D01*
G36*
X92213000Y-69111500D02*
G01*
X91883000Y-68871500D01*
X92213000Y-68631500D01*
X92213000Y-69111500D01*
G37*
%TO.C,J5*%
X120605000Y-56800000D02*
X127045000Y-56800000D01*
X120605000Y-65120000D02*
X120605000Y-56800000D01*
X120605000Y-65120000D02*
X127045000Y-65120000D01*
X121125000Y-65120000D02*
X121125000Y-56800000D01*
X126425000Y-57390000D02*
X126425000Y-56800000D01*
X126425000Y-59930000D02*
X126425000Y-59450000D01*
X126425000Y-62470000D02*
X126425000Y-61990000D01*
X126425000Y-65120000D02*
X126425000Y-64530000D01*
X127045000Y-57390000D02*
X127045000Y-56800000D01*
X127045000Y-59930000D02*
X127045000Y-59450000D01*
X127045000Y-62470000D02*
X127045000Y-61990000D01*
X127045000Y-65120000D02*
X127045000Y-64530000D01*
X127655000Y-63940000D02*
X127045000Y-63500000D01*
X127655000Y-63060000D01*
X127655000Y-63940000D01*
G36*
X127655000Y-63940000D02*
G01*
X127045000Y-63500000D01*
X127655000Y-63060000D01*
X127655000Y-63940000D01*
G37*
%TO.C,C2*%
X95913752Y-74195000D02*
X95391248Y-74195000D01*
X95913752Y-75665000D02*
X95391248Y-75665000D01*
%TO.C,A1*%
X66655000Y-56847000D02*
X66655000Y-65800334D01*
X66655000Y-65800334D02*
X67015000Y-65800334D01*
X66655000Y-74753666D02*
X66655000Y-83706999D01*
X66655000Y-83706999D02*
X117415000Y-83707000D01*
X67015000Y-65800334D02*
X67015000Y-74753666D01*
X67015000Y-74753666D02*
X66655000Y-74753666D01*
X117415000Y-56847001D02*
X66655000Y-56847000D01*
X117415000Y-83707000D02*
X117415000Y-56847001D01*
%TO.C,U1*%
X119828000Y-66030800D02*
X121158000Y-66030800D01*
X119828000Y-67360800D02*
X119828000Y-66030800D01*
X119828000Y-68630800D02*
X119828000Y-76310800D01*
X119828000Y-68630800D02*
X122488000Y-68630800D01*
X119828000Y-76310800D02*
X122488000Y-76310800D01*
X122488000Y-68630800D02*
X122488000Y-76310800D01*
%TO.C,SW3*%
X119234000Y-79804000D02*
X119234000Y-81304000D01*
X120484000Y-83804000D02*
X124984000Y-83804000D01*
X124984000Y-77304000D02*
X120484000Y-77304000D01*
X126234000Y-81304000D02*
X126234000Y-79804000D01*
%TO.C,C4*%
X69878752Y-58193000D02*
X69356248Y-58193000D01*
X69878752Y-59663000D02*
X69356248Y-59663000D01*
%TO.C,R4*%
X113390000Y-70747936D02*
X113390000Y-72202064D01*
X115210000Y-70747936D02*
X115210000Y-72202064D01*
%TO.C,J2*%
X58576000Y-75416000D02*
X58576000Y-75916000D01*
X58816000Y-75656000D02*
X58816000Y-76426000D01*
X58816000Y-78006000D02*
X58816000Y-78966000D01*
X58816000Y-80546000D02*
X58816000Y-81506000D01*
X58816000Y-83086000D02*
X58816000Y-83856000D01*
X59316000Y-75416000D02*
X58576000Y-75416000D01*
X59376000Y-75656000D02*
X59376000Y-76426000D01*
X59376000Y-78006000D02*
X59376000Y-78966000D01*
X59376000Y-80546000D02*
X59376000Y-81506000D01*
X59376000Y-83086000D02*
X59376000Y-83856000D01*
X64676000Y-75656000D02*
X64676000Y-83856000D01*
X65136000Y-75656000D02*
X58816000Y-75656000D01*
X65136000Y-75656000D02*
X65136000Y-83856000D01*
X65136000Y-83856000D02*
X58816000Y-83856000D01*
%TD*%
M02*
