%TF.GenerationSoftware,KiCad,Pcbnew,8.0.2-1*%
%TF.CreationDate,2025-02-23T00:33:40-05:00*%
%TF.ProjectId,RGB Clock Controller,52474220-436c-46f6-936b-20436f6e7472,rev?*%
%TF.SameCoordinates,Original*%
%TF.FileFunction,Drillmap*%
%TF.FilePolarity,Positive*%
%FSLAX45Y45*%
G04 Gerber Fmt 4.5, Leading zero omitted, Abs format (unit mm)*
G04 Created by KiCad (PCBNEW 8.0.2-1) date 2025-02-23 00:33:40*
%MOMM*%
%LPD*%
G01*
G04 APERTURE LIST*
%ADD10C,0.050000*%
%ADD11C,0.200000*%
%ADD12C,0.100000*%
%ADD13C,0.110000*%
G04 APERTURE END LIST*
D10*
X5842000Y-5651500D02*
X12763500Y-5651500D01*
X12763500Y-8445500D01*
X5842000Y-8445500D01*
X5842000Y-5651500D01*
D11*
D12*
X7385500Y-5844700D02*
X7465500Y-5924700D01*
X7465500Y-5844700D02*
X7385500Y-5924700D01*
X7385500Y-8130700D02*
X7465500Y-8210700D01*
X7465500Y-8130700D02*
X7385500Y-8210700D01*
X7639500Y-5844700D02*
X7719500Y-5924700D01*
X7719500Y-5844700D02*
X7639500Y-5924700D01*
X7639500Y-8130700D02*
X7719500Y-8210700D01*
X7719500Y-8130700D02*
X7639500Y-8210700D01*
X7893500Y-5844700D02*
X7973500Y-5924700D01*
X7973500Y-5844700D02*
X7893500Y-5924700D01*
X7893500Y-8130700D02*
X7973500Y-8210700D01*
X7973500Y-8130700D02*
X7893500Y-8210700D01*
X8147500Y-5844700D02*
X8227500Y-5924700D01*
X8227500Y-5844700D02*
X8147500Y-5924700D01*
X8147500Y-8130700D02*
X8227500Y-8210700D01*
X8227500Y-8130700D02*
X8147500Y-8210700D01*
X8401500Y-5844700D02*
X8481500Y-5924700D01*
X8481500Y-5844700D02*
X8401500Y-5924700D01*
X8401500Y-8130700D02*
X8481500Y-8210700D01*
X8481500Y-8130700D02*
X8401500Y-8210700D01*
X8655500Y-5844700D02*
X8735500Y-5924700D01*
X8735500Y-5844700D02*
X8655500Y-5924700D01*
X8655500Y-8130700D02*
X8735500Y-8210700D01*
X8735500Y-8130700D02*
X8655500Y-8210700D01*
X8909500Y-5844700D02*
X8989500Y-5924700D01*
X8989500Y-5844700D02*
X8909500Y-5924700D01*
X8909500Y-8130700D02*
X8989500Y-8210700D01*
X8989500Y-8130700D02*
X8909500Y-8210700D01*
X9163500Y-5844700D02*
X9243500Y-5924700D01*
X9243500Y-5844700D02*
X9163500Y-5924700D01*
X9163500Y-8130700D02*
X9243500Y-8210700D01*
X9243500Y-8130700D02*
X9163500Y-8210700D01*
X9417500Y-5844700D02*
X9497500Y-5924700D01*
X9497500Y-5844700D02*
X9417500Y-5924700D01*
X9417500Y-8130700D02*
X9497500Y-8210700D01*
X9497500Y-8130700D02*
X9417500Y-8210700D01*
X9671500Y-5844700D02*
X9751500Y-5924700D01*
X9751500Y-5844700D02*
X9671500Y-5924700D01*
X9671500Y-8130700D02*
X9751500Y-8210700D01*
X9751500Y-8130700D02*
X9671500Y-8210700D01*
X9925500Y-5844700D02*
X10005500Y-5924700D01*
X10005500Y-5844700D02*
X9925500Y-5924700D01*
X9925500Y-8130700D02*
X10005500Y-8210700D01*
X10005500Y-8130700D02*
X9925500Y-8210700D01*
X10179500Y-5844700D02*
X10259500Y-5924700D01*
X10259500Y-5844700D02*
X10179500Y-5924700D01*
X10179500Y-8130700D02*
X10259500Y-8210700D01*
X10259500Y-8130700D02*
X10179500Y-8210700D01*
X10433500Y-5844700D02*
X10513500Y-5924700D01*
X10513500Y-5844700D02*
X10433500Y-5924700D01*
X10433500Y-8130700D02*
X10513500Y-8210700D01*
X10513500Y-8130700D02*
X10433500Y-8210700D01*
X10687500Y-5844700D02*
X10767500Y-5924700D01*
X10767500Y-5844700D02*
X10687500Y-5924700D01*
X10687500Y-8130700D02*
X10767500Y-8210700D01*
X10767500Y-8130700D02*
X10687500Y-8210700D01*
X10941500Y-5844700D02*
X11021500Y-5924700D01*
X11021500Y-5844700D02*
X10941500Y-5924700D01*
X10941500Y-8130700D02*
X11021500Y-8210700D01*
X11021500Y-8130700D02*
X10941500Y-8210700D01*
X12178500Y-6223000D02*
G75*
G02*
X12078500Y-6223000I-50000J0D01*
G01*
X12078500Y-6223000D02*
G75*
G02*
X12178500Y-6223000I50000J0D01*
G01*
X12178500Y-6477000D02*
G75*
G02*
X12078500Y-6477000I-50000J0D01*
G01*
X12078500Y-6477000D02*
G75*
G02*
X12178500Y-6477000I50000J0D01*
G01*
X12178500Y-6731000D02*
G75*
G02*
X12078500Y-6731000I-50000J0D01*
G01*
X12078500Y-6731000D02*
G75*
G02*
X12178500Y-6731000I50000J0D01*
G01*
X12178500Y-6985000D02*
G75*
G02*
X12078500Y-6985000I-50000J0D01*
G01*
X12078500Y-6985000D02*
G75*
G02*
X12178500Y-6985000I50000J0D01*
G01*
X12559500Y-6223000D02*
G75*
G02*
X12459500Y-6223000I-50000J0D01*
G01*
X12459500Y-6223000D02*
G75*
G02*
X12559500Y-6223000I50000J0D01*
G01*
X12559500Y-6477000D02*
G75*
G02*
X12459500Y-6477000I-50000J0D01*
G01*
X12459500Y-6477000D02*
G75*
G02*
X12559500Y-6477000I50000J0D01*
G01*
X12559500Y-6731000D02*
G75*
G02*
X12459500Y-6731000I-50000J0D01*
G01*
X12459500Y-6731000D02*
G75*
G02*
X12559500Y-6731000I50000J0D01*
G01*
X12559500Y-6985000D02*
G75*
G02*
X12459500Y-6985000I-50000J0D01*
G01*
X12459500Y-6985000D02*
G75*
G02*
X12559500Y-6985000I50000J0D01*
G01*
D13*
X6197600Y-5837800D02*
X6197600Y-5947800D01*
X6142600Y-5892800D02*
X6252600Y-5892800D01*
X6197600Y-6091800D02*
X6197600Y-6201800D01*
X6142600Y-6146800D02*
X6252600Y-6146800D01*
X6197600Y-7615800D02*
X6197600Y-7725800D01*
X6142600Y-7670800D02*
X6252600Y-7670800D01*
X6197600Y-7869800D02*
X6197600Y-7979800D01*
X6142600Y-7924800D02*
X6252600Y-7924800D01*
X6197600Y-8123800D02*
X6197600Y-8233800D01*
X6142600Y-8178800D02*
X6252600Y-8178800D01*
X12059500Y-7486500D02*
X12059500Y-7596500D01*
X12004500Y-7541500D02*
X12114500Y-7541500D01*
X12059500Y-8136500D02*
X12059500Y-8246500D01*
X12004500Y-8191500D02*
X12114500Y-8191500D01*
X12509500Y-7486500D02*
X12509500Y-7596500D01*
X12454500Y-7541500D02*
X12564500Y-7541500D01*
X12509500Y-8136500D02*
X12509500Y-8246500D01*
X12454500Y-8191500D02*
X12564500Y-8191500D01*
D11*
X6100277Y-8759484D02*
X6100277Y-8559484D01*
X6100277Y-8559484D02*
X6147896Y-8559484D01*
X6147896Y-8559484D02*
X6176467Y-8569008D01*
X6176467Y-8569008D02*
X6195515Y-8588055D01*
X6195515Y-8588055D02*
X6205039Y-8607103D01*
X6205039Y-8607103D02*
X6214562Y-8645198D01*
X6214562Y-8645198D02*
X6214562Y-8673770D01*
X6214562Y-8673770D02*
X6205039Y-8711865D01*
X6205039Y-8711865D02*
X6195515Y-8730912D01*
X6195515Y-8730912D02*
X6176467Y-8749960D01*
X6176467Y-8749960D02*
X6147896Y-8759484D01*
X6147896Y-8759484D02*
X6100277Y-8759484D01*
X6300277Y-8759484D02*
X6300277Y-8626150D01*
X6300277Y-8664246D02*
X6309801Y-8645198D01*
X6309801Y-8645198D02*
X6319324Y-8635674D01*
X6319324Y-8635674D02*
X6338372Y-8626150D01*
X6338372Y-8626150D02*
X6357420Y-8626150D01*
X6424086Y-8759484D02*
X6424086Y-8626150D01*
X6424086Y-8559484D02*
X6414562Y-8569008D01*
X6414562Y-8569008D02*
X6424086Y-8578531D01*
X6424086Y-8578531D02*
X6433610Y-8569008D01*
X6433610Y-8569008D02*
X6424086Y-8559484D01*
X6424086Y-8559484D02*
X6424086Y-8578531D01*
X6547896Y-8759484D02*
X6528848Y-8749960D01*
X6528848Y-8749960D02*
X6519324Y-8730912D01*
X6519324Y-8730912D02*
X6519324Y-8559484D01*
X6652658Y-8759484D02*
X6633610Y-8749960D01*
X6633610Y-8749960D02*
X6624086Y-8730912D01*
X6624086Y-8730912D02*
X6624086Y-8559484D01*
X6881229Y-8759484D02*
X6881229Y-8559484D01*
X6881229Y-8559484D02*
X6947896Y-8702341D01*
X6947896Y-8702341D02*
X7014562Y-8559484D01*
X7014562Y-8559484D02*
X7014562Y-8759484D01*
X7195515Y-8759484D02*
X7195515Y-8654722D01*
X7195515Y-8654722D02*
X7185991Y-8635674D01*
X7185991Y-8635674D02*
X7166943Y-8626150D01*
X7166943Y-8626150D02*
X7128848Y-8626150D01*
X7128848Y-8626150D02*
X7109801Y-8635674D01*
X7195515Y-8749960D02*
X7176467Y-8759484D01*
X7176467Y-8759484D02*
X7128848Y-8759484D01*
X7128848Y-8759484D02*
X7109801Y-8749960D01*
X7109801Y-8749960D02*
X7100277Y-8730912D01*
X7100277Y-8730912D02*
X7100277Y-8711865D01*
X7100277Y-8711865D02*
X7109801Y-8692817D01*
X7109801Y-8692817D02*
X7128848Y-8683293D01*
X7128848Y-8683293D02*
X7176467Y-8683293D01*
X7176467Y-8683293D02*
X7195515Y-8673770D01*
X7290753Y-8626150D02*
X7290753Y-8826150D01*
X7290753Y-8635674D02*
X7309801Y-8626150D01*
X7309801Y-8626150D02*
X7347896Y-8626150D01*
X7347896Y-8626150D02*
X7366943Y-8635674D01*
X7366943Y-8635674D02*
X7376467Y-8645198D01*
X7376467Y-8645198D02*
X7385991Y-8664246D01*
X7385991Y-8664246D02*
X7385991Y-8721389D01*
X7385991Y-8721389D02*
X7376467Y-8740436D01*
X7376467Y-8740436D02*
X7366943Y-8749960D01*
X7366943Y-8749960D02*
X7347896Y-8759484D01*
X7347896Y-8759484D02*
X7309801Y-8759484D01*
X7309801Y-8759484D02*
X7290753Y-8749960D01*
X7471705Y-8740436D02*
X7481229Y-8749960D01*
X7481229Y-8749960D02*
X7471705Y-8759484D01*
X7471705Y-8759484D02*
X7462182Y-8749960D01*
X7462182Y-8749960D02*
X7471705Y-8740436D01*
X7471705Y-8740436D02*
X7471705Y-8759484D01*
X7471705Y-8635674D02*
X7481229Y-8645198D01*
X7481229Y-8645198D02*
X7471705Y-8654722D01*
X7471705Y-8654722D02*
X7462182Y-8645198D01*
X7462182Y-8645198D02*
X7471705Y-8635674D01*
X7471705Y-8635674D02*
X7471705Y-8654722D01*
D12*
X5759500Y-9048000D02*
X5839500Y-9128000D01*
X5839500Y-9048000D02*
X5759500Y-9128000D01*
D11*
X6138372Y-8979484D02*
X6157420Y-8979484D01*
X6157420Y-8979484D02*
X6176467Y-8989008D01*
X6176467Y-8989008D02*
X6185991Y-8998531D01*
X6185991Y-8998531D02*
X6195515Y-9017579D01*
X6195515Y-9017579D02*
X6205039Y-9055674D01*
X6205039Y-9055674D02*
X6205039Y-9103293D01*
X6205039Y-9103293D02*
X6195515Y-9141389D01*
X6195515Y-9141389D02*
X6185991Y-9160436D01*
X6185991Y-9160436D02*
X6176467Y-9169960D01*
X6176467Y-9169960D02*
X6157420Y-9179484D01*
X6157420Y-9179484D02*
X6138372Y-9179484D01*
X6138372Y-9179484D02*
X6119324Y-9169960D01*
X6119324Y-9169960D02*
X6109801Y-9160436D01*
X6109801Y-9160436D02*
X6100277Y-9141389D01*
X6100277Y-9141389D02*
X6090753Y-9103293D01*
X6090753Y-9103293D02*
X6090753Y-9055674D01*
X6090753Y-9055674D02*
X6100277Y-9017579D01*
X6100277Y-9017579D02*
X6109801Y-8998531D01*
X6109801Y-8998531D02*
X6119324Y-8989008D01*
X6119324Y-8989008D02*
X6138372Y-8979484D01*
X6290753Y-9160436D02*
X6300277Y-9169960D01*
X6300277Y-9169960D02*
X6290753Y-9179484D01*
X6290753Y-9179484D02*
X6281229Y-9169960D01*
X6281229Y-9169960D02*
X6290753Y-9160436D01*
X6290753Y-9160436D02*
X6290753Y-9179484D01*
X6414562Y-9065198D02*
X6395515Y-9055674D01*
X6395515Y-9055674D02*
X6385991Y-9046150D01*
X6385991Y-9046150D02*
X6376467Y-9027103D01*
X6376467Y-9027103D02*
X6376467Y-9017579D01*
X6376467Y-9017579D02*
X6385991Y-8998531D01*
X6385991Y-8998531D02*
X6395515Y-8989008D01*
X6395515Y-8989008D02*
X6414562Y-8979484D01*
X6414562Y-8979484D02*
X6452658Y-8979484D01*
X6452658Y-8979484D02*
X6471705Y-8989008D01*
X6471705Y-8989008D02*
X6481229Y-8998531D01*
X6481229Y-8998531D02*
X6490753Y-9017579D01*
X6490753Y-9017579D02*
X6490753Y-9027103D01*
X6490753Y-9027103D02*
X6481229Y-9046150D01*
X6481229Y-9046150D02*
X6471705Y-9055674D01*
X6471705Y-9055674D02*
X6452658Y-9065198D01*
X6452658Y-9065198D02*
X6414562Y-9065198D01*
X6414562Y-9065198D02*
X6395515Y-9074722D01*
X6395515Y-9074722D02*
X6385991Y-9084246D01*
X6385991Y-9084246D02*
X6376467Y-9103293D01*
X6376467Y-9103293D02*
X6376467Y-9141389D01*
X6376467Y-9141389D02*
X6385991Y-9160436D01*
X6385991Y-9160436D02*
X6395515Y-9169960D01*
X6395515Y-9169960D02*
X6414562Y-9179484D01*
X6414562Y-9179484D02*
X6452658Y-9179484D01*
X6452658Y-9179484D02*
X6471705Y-9169960D01*
X6471705Y-9169960D02*
X6481229Y-9160436D01*
X6481229Y-9160436D02*
X6490753Y-9141389D01*
X6490753Y-9141389D02*
X6490753Y-9103293D01*
X6490753Y-9103293D02*
X6481229Y-9084246D01*
X6481229Y-9084246D02*
X6471705Y-9074722D01*
X6471705Y-9074722D02*
X6452658Y-9065198D01*
X6614562Y-8979484D02*
X6633610Y-8979484D01*
X6633610Y-8979484D02*
X6652658Y-8989008D01*
X6652658Y-8989008D02*
X6662182Y-8998531D01*
X6662182Y-8998531D02*
X6671705Y-9017579D01*
X6671705Y-9017579D02*
X6681229Y-9055674D01*
X6681229Y-9055674D02*
X6681229Y-9103293D01*
X6681229Y-9103293D02*
X6671705Y-9141389D01*
X6671705Y-9141389D02*
X6662182Y-9160436D01*
X6662182Y-9160436D02*
X6652658Y-9169960D01*
X6652658Y-9169960D02*
X6633610Y-9179484D01*
X6633610Y-9179484D02*
X6614562Y-9179484D01*
X6614562Y-9179484D02*
X6595515Y-9169960D01*
X6595515Y-9169960D02*
X6585991Y-9160436D01*
X6585991Y-9160436D02*
X6576467Y-9141389D01*
X6576467Y-9141389D02*
X6566943Y-9103293D01*
X6566943Y-9103293D02*
X6566943Y-9055674D01*
X6566943Y-9055674D02*
X6576467Y-9017579D01*
X6576467Y-9017579D02*
X6585991Y-8998531D01*
X6585991Y-8998531D02*
X6595515Y-8989008D01*
X6595515Y-8989008D02*
X6614562Y-8979484D01*
X6805039Y-8979484D02*
X6824086Y-8979484D01*
X6824086Y-8979484D02*
X6843134Y-8989008D01*
X6843134Y-8989008D02*
X6852658Y-8998531D01*
X6852658Y-8998531D02*
X6862182Y-9017579D01*
X6862182Y-9017579D02*
X6871705Y-9055674D01*
X6871705Y-9055674D02*
X6871705Y-9103293D01*
X6871705Y-9103293D02*
X6862182Y-9141389D01*
X6862182Y-9141389D02*
X6852658Y-9160436D01*
X6852658Y-9160436D02*
X6843134Y-9169960D01*
X6843134Y-9169960D02*
X6824086Y-9179484D01*
X6824086Y-9179484D02*
X6805039Y-9179484D01*
X6805039Y-9179484D02*
X6785991Y-9169960D01*
X6785991Y-9169960D02*
X6776467Y-9160436D01*
X6776467Y-9160436D02*
X6766943Y-9141389D01*
X6766943Y-9141389D02*
X6757420Y-9103293D01*
X6757420Y-9103293D02*
X6757420Y-9055674D01*
X6757420Y-9055674D02*
X6766943Y-9017579D01*
X6766943Y-9017579D02*
X6776467Y-8998531D01*
X6776467Y-8998531D02*
X6785991Y-8989008D01*
X6785991Y-8989008D02*
X6805039Y-8979484D01*
X6957420Y-9179484D02*
X6957420Y-9046150D01*
X6957420Y-9065198D02*
X6966943Y-9055674D01*
X6966943Y-9055674D02*
X6985991Y-9046150D01*
X6985991Y-9046150D02*
X7014563Y-9046150D01*
X7014563Y-9046150D02*
X7033610Y-9055674D01*
X7033610Y-9055674D02*
X7043134Y-9074722D01*
X7043134Y-9074722D02*
X7043134Y-9179484D01*
X7043134Y-9074722D02*
X7052658Y-9055674D01*
X7052658Y-9055674D02*
X7071705Y-9046150D01*
X7071705Y-9046150D02*
X7100277Y-9046150D01*
X7100277Y-9046150D02*
X7119324Y-9055674D01*
X7119324Y-9055674D02*
X7128848Y-9074722D01*
X7128848Y-9074722D02*
X7128848Y-9179484D01*
X7224086Y-9179484D02*
X7224086Y-9046150D01*
X7224086Y-9065198D02*
X7233610Y-9055674D01*
X7233610Y-9055674D02*
X7252658Y-9046150D01*
X7252658Y-9046150D02*
X7281229Y-9046150D01*
X7281229Y-9046150D02*
X7300277Y-9055674D01*
X7300277Y-9055674D02*
X7309801Y-9074722D01*
X7309801Y-9074722D02*
X7309801Y-9179484D01*
X7309801Y-9074722D02*
X7319324Y-9055674D01*
X7319324Y-9055674D02*
X7338372Y-9046150D01*
X7338372Y-9046150D02*
X7366943Y-9046150D01*
X7366943Y-9046150D02*
X7385991Y-9055674D01*
X7385991Y-9055674D02*
X7395515Y-9074722D01*
X7395515Y-9074722D02*
X7395515Y-9179484D01*
X7785991Y-8969960D02*
X7614563Y-9227103D01*
X8043134Y-8979484D02*
X8062182Y-8979484D01*
X8062182Y-8979484D02*
X8081229Y-8989008D01*
X8081229Y-8989008D02*
X8090753Y-8998531D01*
X8090753Y-8998531D02*
X8100277Y-9017579D01*
X8100277Y-9017579D02*
X8109801Y-9055674D01*
X8109801Y-9055674D02*
X8109801Y-9103293D01*
X8109801Y-9103293D02*
X8100277Y-9141389D01*
X8100277Y-9141389D02*
X8090753Y-9160436D01*
X8090753Y-9160436D02*
X8081229Y-9169960D01*
X8081229Y-9169960D02*
X8062182Y-9179484D01*
X8062182Y-9179484D02*
X8043134Y-9179484D01*
X8043134Y-9179484D02*
X8024086Y-9169960D01*
X8024086Y-9169960D02*
X8014563Y-9160436D01*
X8014563Y-9160436D02*
X8005039Y-9141389D01*
X8005039Y-9141389D02*
X7995515Y-9103293D01*
X7995515Y-9103293D02*
X7995515Y-9055674D01*
X7995515Y-9055674D02*
X8005039Y-9017579D01*
X8005039Y-9017579D02*
X8014563Y-8998531D01*
X8014563Y-8998531D02*
X8024086Y-8989008D01*
X8024086Y-8989008D02*
X8043134Y-8979484D01*
X8195515Y-9160436D02*
X8205039Y-9169960D01*
X8205039Y-9169960D02*
X8195515Y-9179484D01*
X8195515Y-9179484D02*
X8185991Y-9169960D01*
X8185991Y-9169960D02*
X8195515Y-9160436D01*
X8195515Y-9160436D02*
X8195515Y-9179484D01*
X8328848Y-8979484D02*
X8347896Y-8979484D01*
X8347896Y-8979484D02*
X8366944Y-8989008D01*
X8366944Y-8989008D02*
X8376467Y-8998531D01*
X8376467Y-8998531D02*
X8385991Y-9017579D01*
X8385991Y-9017579D02*
X8395515Y-9055674D01*
X8395515Y-9055674D02*
X8395515Y-9103293D01*
X8395515Y-9103293D02*
X8385991Y-9141389D01*
X8385991Y-9141389D02*
X8376467Y-9160436D01*
X8376467Y-9160436D02*
X8366944Y-9169960D01*
X8366944Y-9169960D02*
X8347896Y-9179484D01*
X8347896Y-9179484D02*
X8328848Y-9179484D01*
X8328848Y-9179484D02*
X8309801Y-9169960D01*
X8309801Y-9169960D02*
X8300277Y-9160436D01*
X8300277Y-9160436D02*
X8290753Y-9141389D01*
X8290753Y-9141389D02*
X8281229Y-9103293D01*
X8281229Y-9103293D02*
X8281229Y-9055674D01*
X8281229Y-9055674D02*
X8290753Y-9017579D01*
X8290753Y-9017579D02*
X8300277Y-8998531D01*
X8300277Y-8998531D02*
X8309801Y-8989008D01*
X8309801Y-8989008D02*
X8328848Y-8979484D01*
X8462182Y-8979484D02*
X8585991Y-8979484D01*
X8585991Y-8979484D02*
X8519325Y-9055674D01*
X8519325Y-9055674D02*
X8547896Y-9055674D01*
X8547896Y-9055674D02*
X8566944Y-9065198D01*
X8566944Y-9065198D02*
X8576468Y-9074722D01*
X8576468Y-9074722D02*
X8585991Y-9093770D01*
X8585991Y-9093770D02*
X8585991Y-9141389D01*
X8585991Y-9141389D02*
X8576468Y-9160436D01*
X8576468Y-9160436D02*
X8566944Y-9169960D01*
X8566944Y-9169960D02*
X8547896Y-9179484D01*
X8547896Y-9179484D02*
X8490753Y-9179484D01*
X8490753Y-9179484D02*
X8471706Y-9169960D01*
X8471706Y-9169960D02*
X8462182Y-9160436D01*
X8776468Y-9179484D02*
X8662182Y-9179484D01*
X8719325Y-9179484D02*
X8719325Y-8979484D01*
X8719325Y-8979484D02*
X8700277Y-9008055D01*
X8700277Y-9008055D02*
X8681229Y-9027103D01*
X8681229Y-9027103D02*
X8662182Y-9036627D01*
X8957420Y-8979484D02*
X8862182Y-8979484D01*
X8862182Y-8979484D02*
X8852658Y-9074722D01*
X8852658Y-9074722D02*
X8862182Y-9065198D01*
X8862182Y-9065198D02*
X8881229Y-9055674D01*
X8881229Y-9055674D02*
X8928849Y-9055674D01*
X8928849Y-9055674D02*
X8947896Y-9065198D01*
X8947896Y-9065198D02*
X8957420Y-9074722D01*
X8957420Y-9074722D02*
X8966944Y-9093770D01*
X8966944Y-9093770D02*
X8966944Y-9141389D01*
X8966944Y-9141389D02*
X8957420Y-9160436D01*
X8957420Y-9160436D02*
X8947896Y-9169960D01*
X8947896Y-9169960D02*
X8928849Y-9179484D01*
X8928849Y-9179484D02*
X8881229Y-9179484D01*
X8881229Y-9179484D02*
X8862182Y-9169960D01*
X8862182Y-9169960D02*
X8852658Y-9160436D01*
X9043134Y-8979484D02*
X9043134Y-9017579D01*
X9119325Y-8979484D02*
X9119325Y-9017579D01*
X9414563Y-9255674D02*
X9405039Y-9246150D01*
X9405039Y-9246150D02*
X9385991Y-9217579D01*
X9385991Y-9217579D02*
X9376468Y-9198531D01*
X9376468Y-9198531D02*
X9366944Y-9169960D01*
X9366944Y-9169960D02*
X9357420Y-9122341D01*
X9357420Y-9122341D02*
X9357420Y-9084246D01*
X9357420Y-9084246D02*
X9366944Y-9036627D01*
X9366944Y-9036627D02*
X9376468Y-9008055D01*
X9376468Y-9008055D02*
X9385991Y-8989008D01*
X9385991Y-8989008D02*
X9405039Y-8960436D01*
X9405039Y-8960436D02*
X9414563Y-8950912D01*
X9471706Y-8979484D02*
X9595515Y-8979484D01*
X9595515Y-8979484D02*
X9528849Y-9055674D01*
X9528849Y-9055674D02*
X9557420Y-9055674D01*
X9557420Y-9055674D02*
X9576468Y-9065198D01*
X9576468Y-9065198D02*
X9585991Y-9074722D01*
X9585991Y-9074722D02*
X9595515Y-9093770D01*
X9595515Y-9093770D02*
X9595515Y-9141389D01*
X9595515Y-9141389D02*
X9585991Y-9160436D01*
X9585991Y-9160436D02*
X9576468Y-9169960D01*
X9576468Y-9169960D02*
X9557420Y-9179484D01*
X9557420Y-9179484D02*
X9500277Y-9179484D01*
X9500277Y-9179484D02*
X9481230Y-9169960D01*
X9481230Y-9169960D02*
X9471706Y-9160436D01*
X9719325Y-8979484D02*
X9738372Y-8979484D01*
X9738372Y-8979484D02*
X9757420Y-8989008D01*
X9757420Y-8989008D02*
X9766944Y-8998531D01*
X9766944Y-8998531D02*
X9776468Y-9017579D01*
X9776468Y-9017579D02*
X9785991Y-9055674D01*
X9785991Y-9055674D02*
X9785991Y-9103293D01*
X9785991Y-9103293D02*
X9776468Y-9141389D01*
X9776468Y-9141389D02*
X9766944Y-9160436D01*
X9766944Y-9160436D02*
X9757420Y-9169960D01*
X9757420Y-9169960D02*
X9738372Y-9179484D01*
X9738372Y-9179484D02*
X9719325Y-9179484D01*
X9719325Y-9179484D02*
X9700277Y-9169960D01*
X9700277Y-9169960D02*
X9690753Y-9160436D01*
X9690753Y-9160436D02*
X9681230Y-9141389D01*
X9681230Y-9141389D02*
X9671706Y-9103293D01*
X9671706Y-9103293D02*
X9671706Y-9055674D01*
X9671706Y-9055674D02*
X9681230Y-9017579D01*
X9681230Y-9017579D02*
X9690753Y-8998531D01*
X9690753Y-8998531D02*
X9700277Y-8989008D01*
X9700277Y-8989008D02*
X9719325Y-8979484D01*
X10024087Y-9179484D02*
X10024087Y-8979484D01*
X10109801Y-9179484D02*
X10109801Y-9074722D01*
X10109801Y-9074722D02*
X10100277Y-9055674D01*
X10100277Y-9055674D02*
X10081230Y-9046150D01*
X10081230Y-9046150D02*
X10052658Y-9046150D01*
X10052658Y-9046150D02*
X10033611Y-9055674D01*
X10033611Y-9055674D02*
X10024087Y-9065198D01*
X10233611Y-9179484D02*
X10214563Y-9169960D01*
X10214563Y-9169960D02*
X10205039Y-9160436D01*
X10205039Y-9160436D02*
X10195515Y-9141389D01*
X10195515Y-9141389D02*
X10195515Y-9084246D01*
X10195515Y-9084246D02*
X10205039Y-9065198D01*
X10205039Y-9065198D02*
X10214563Y-9055674D01*
X10214563Y-9055674D02*
X10233611Y-9046150D01*
X10233611Y-9046150D02*
X10262182Y-9046150D01*
X10262182Y-9046150D02*
X10281230Y-9055674D01*
X10281230Y-9055674D02*
X10290753Y-9065198D01*
X10290753Y-9065198D02*
X10300277Y-9084246D01*
X10300277Y-9084246D02*
X10300277Y-9141389D01*
X10300277Y-9141389D02*
X10290753Y-9160436D01*
X10290753Y-9160436D02*
X10281230Y-9169960D01*
X10281230Y-9169960D02*
X10262182Y-9179484D01*
X10262182Y-9179484D02*
X10233611Y-9179484D01*
X10414563Y-9179484D02*
X10395515Y-9169960D01*
X10395515Y-9169960D02*
X10385992Y-9150912D01*
X10385992Y-9150912D02*
X10385992Y-8979484D01*
X10566944Y-9169960D02*
X10547896Y-9179484D01*
X10547896Y-9179484D02*
X10509801Y-9179484D01*
X10509801Y-9179484D02*
X10490753Y-9169960D01*
X10490753Y-9169960D02*
X10481230Y-9150912D01*
X10481230Y-9150912D02*
X10481230Y-9074722D01*
X10481230Y-9074722D02*
X10490753Y-9055674D01*
X10490753Y-9055674D02*
X10509801Y-9046150D01*
X10509801Y-9046150D02*
X10547896Y-9046150D01*
X10547896Y-9046150D02*
X10566944Y-9055674D01*
X10566944Y-9055674D02*
X10576468Y-9074722D01*
X10576468Y-9074722D02*
X10576468Y-9093770D01*
X10576468Y-9093770D02*
X10481230Y-9112817D01*
X10652658Y-9169960D02*
X10671706Y-9179484D01*
X10671706Y-9179484D02*
X10709801Y-9179484D01*
X10709801Y-9179484D02*
X10728849Y-9169960D01*
X10728849Y-9169960D02*
X10738373Y-9150912D01*
X10738373Y-9150912D02*
X10738373Y-9141389D01*
X10738373Y-9141389D02*
X10728849Y-9122341D01*
X10728849Y-9122341D02*
X10709801Y-9112817D01*
X10709801Y-9112817D02*
X10681230Y-9112817D01*
X10681230Y-9112817D02*
X10662182Y-9103293D01*
X10662182Y-9103293D02*
X10652658Y-9084246D01*
X10652658Y-9084246D02*
X10652658Y-9074722D01*
X10652658Y-9074722D02*
X10662182Y-9055674D01*
X10662182Y-9055674D02*
X10681230Y-9046150D01*
X10681230Y-9046150D02*
X10709801Y-9046150D01*
X10709801Y-9046150D02*
X10728849Y-9055674D01*
X10805039Y-9255674D02*
X10814563Y-9246150D01*
X10814563Y-9246150D02*
X10833611Y-9217579D01*
X10833611Y-9217579D02*
X10843134Y-9198531D01*
X10843134Y-9198531D02*
X10852658Y-9169960D01*
X10852658Y-9169960D02*
X10862182Y-9122341D01*
X10862182Y-9122341D02*
X10862182Y-9084246D01*
X10862182Y-9084246D02*
X10852658Y-9036627D01*
X10852658Y-9036627D02*
X10843134Y-9008055D01*
X10843134Y-9008055D02*
X10833611Y-8989008D01*
X10833611Y-8989008D02*
X10814563Y-8960436D01*
X10814563Y-8960436D02*
X10805039Y-8950912D01*
D12*
X5839500Y-9352000D02*
G75*
G02*
X5739500Y-9352000I-50000J0D01*
G01*
X5739500Y-9352000D02*
G75*
G02*
X5839500Y-9352000I50000J0D01*
G01*
D11*
X6205039Y-9443484D02*
X6090753Y-9443484D01*
X6147896Y-9443484D02*
X6147896Y-9243484D01*
X6147896Y-9243484D02*
X6128848Y-9272055D01*
X6128848Y-9272055D02*
X6109801Y-9291103D01*
X6109801Y-9291103D02*
X6090753Y-9300627D01*
X6290753Y-9424436D02*
X6300277Y-9433960D01*
X6300277Y-9433960D02*
X6290753Y-9443484D01*
X6290753Y-9443484D02*
X6281229Y-9433960D01*
X6281229Y-9433960D02*
X6290753Y-9424436D01*
X6290753Y-9424436D02*
X6290753Y-9443484D01*
X6424086Y-9243484D02*
X6443134Y-9243484D01*
X6443134Y-9243484D02*
X6462182Y-9253008D01*
X6462182Y-9253008D02*
X6471705Y-9262531D01*
X6471705Y-9262531D02*
X6481229Y-9281579D01*
X6481229Y-9281579D02*
X6490753Y-9319674D01*
X6490753Y-9319674D02*
X6490753Y-9367293D01*
X6490753Y-9367293D02*
X6481229Y-9405389D01*
X6481229Y-9405389D02*
X6471705Y-9424436D01*
X6471705Y-9424436D02*
X6462182Y-9433960D01*
X6462182Y-9433960D02*
X6443134Y-9443484D01*
X6443134Y-9443484D02*
X6424086Y-9443484D01*
X6424086Y-9443484D02*
X6405039Y-9433960D01*
X6405039Y-9433960D02*
X6395515Y-9424436D01*
X6395515Y-9424436D02*
X6385991Y-9405389D01*
X6385991Y-9405389D02*
X6376467Y-9367293D01*
X6376467Y-9367293D02*
X6376467Y-9319674D01*
X6376467Y-9319674D02*
X6385991Y-9281579D01*
X6385991Y-9281579D02*
X6395515Y-9262531D01*
X6395515Y-9262531D02*
X6405039Y-9253008D01*
X6405039Y-9253008D02*
X6424086Y-9243484D01*
X6614562Y-9243484D02*
X6633610Y-9243484D01*
X6633610Y-9243484D02*
X6652658Y-9253008D01*
X6652658Y-9253008D02*
X6662182Y-9262531D01*
X6662182Y-9262531D02*
X6671705Y-9281579D01*
X6671705Y-9281579D02*
X6681229Y-9319674D01*
X6681229Y-9319674D02*
X6681229Y-9367293D01*
X6681229Y-9367293D02*
X6671705Y-9405389D01*
X6671705Y-9405389D02*
X6662182Y-9424436D01*
X6662182Y-9424436D02*
X6652658Y-9433960D01*
X6652658Y-9433960D02*
X6633610Y-9443484D01*
X6633610Y-9443484D02*
X6614562Y-9443484D01*
X6614562Y-9443484D02*
X6595515Y-9433960D01*
X6595515Y-9433960D02*
X6585991Y-9424436D01*
X6585991Y-9424436D02*
X6576467Y-9405389D01*
X6576467Y-9405389D02*
X6566943Y-9367293D01*
X6566943Y-9367293D02*
X6566943Y-9319674D01*
X6566943Y-9319674D02*
X6576467Y-9281579D01*
X6576467Y-9281579D02*
X6585991Y-9262531D01*
X6585991Y-9262531D02*
X6595515Y-9253008D01*
X6595515Y-9253008D02*
X6614562Y-9243484D01*
X6805039Y-9243484D02*
X6824086Y-9243484D01*
X6824086Y-9243484D02*
X6843134Y-9253008D01*
X6843134Y-9253008D02*
X6852658Y-9262531D01*
X6852658Y-9262531D02*
X6862182Y-9281579D01*
X6862182Y-9281579D02*
X6871705Y-9319674D01*
X6871705Y-9319674D02*
X6871705Y-9367293D01*
X6871705Y-9367293D02*
X6862182Y-9405389D01*
X6862182Y-9405389D02*
X6852658Y-9424436D01*
X6852658Y-9424436D02*
X6843134Y-9433960D01*
X6843134Y-9433960D02*
X6824086Y-9443484D01*
X6824086Y-9443484D02*
X6805039Y-9443484D01*
X6805039Y-9443484D02*
X6785991Y-9433960D01*
X6785991Y-9433960D02*
X6776467Y-9424436D01*
X6776467Y-9424436D02*
X6766943Y-9405389D01*
X6766943Y-9405389D02*
X6757420Y-9367293D01*
X6757420Y-9367293D02*
X6757420Y-9319674D01*
X6757420Y-9319674D02*
X6766943Y-9281579D01*
X6766943Y-9281579D02*
X6776467Y-9262531D01*
X6776467Y-9262531D02*
X6785991Y-9253008D01*
X6785991Y-9253008D02*
X6805039Y-9243484D01*
X6957420Y-9443484D02*
X6957420Y-9310150D01*
X6957420Y-9329198D02*
X6966943Y-9319674D01*
X6966943Y-9319674D02*
X6985991Y-9310150D01*
X6985991Y-9310150D02*
X7014563Y-9310150D01*
X7014563Y-9310150D02*
X7033610Y-9319674D01*
X7033610Y-9319674D02*
X7043134Y-9338722D01*
X7043134Y-9338722D02*
X7043134Y-9443484D01*
X7043134Y-9338722D02*
X7052658Y-9319674D01*
X7052658Y-9319674D02*
X7071705Y-9310150D01*
X7071705Y-9310150D02*
X7100277Y-9310150D01*
X7100277Y-9310150D02*
X7119324Y-9319674D01*
X7119324Y-9319674D02*
X7128848Y-9338722D01*
X7128848Y-9338722D02*
X7128848Y-9443484D01*
X7224086Y-9443484D02*
X7224086Y-9310150D01*
X7224086Y-9329198D02*
X7233610Y-9319674D01*
X7233610Y-9319674D02*
X7252658Y-9310150D01*
X7252658Y-9310150D02*
X7281229Y-9310150D01*
X7281229Y-9310150D02*
X7300277Y-9319674D01*
X7300277Y-9319674D02*
X7309801Y-9338722D01*
X7309801Y-9338722D02*
X7309801Y-9443484D01*
X7309801Y-9338722D02*
X7319324Y-9319674D01*
X7319324Y-9319674D02*
X7338372Y-9310150D01*
X7338372Y-9310150D02*
X7366943Y-9310150D01*
X7366943Y-9310150D02*
X7385991Y-9319674D01*
X7385991Y-9319674D02*
X7395515Y-9338722D01*
X7395515Y-9338722D02*
X7395515Y-9443484D01*
X7785991Y-9233960D02*
X7614563Y-9491103D01*
X8043134Y-9243484D02*
X8062182Y-9243484D01*
X8062182Y-9243484D02*
X8081229Y-9253008D01*
X8081229Y-9253008D02*
X8090753Y-9262531D01*
X8090753Y-9262531D02*
X8100277Y-9281579D01*
X8100277Y-9281579D02*
X8109801Y-9319674D01*
X8109801Y-9319674D02*
X8109801Y-9367293D01*
X8109801Y-9367293D02*
X8100277Y-9405389D01*
X8100277Y-9405389D02*
X8090753Y-9424436D01*
X8090753Y-9424436D02*
X8081229Y-9433960D01*
X8081229Y-9433960D02*
X8062182Y-9443484D01*
X8062182Y-9443484D02*
X8043134Y-9443484D01*
X8043134Y-9443484D02*
X8024086Y-9433960D01*
X8024086Y-9433960D02*
X8014563Y-9424436D01*
X8014563Y-9424436D02*
X8005039Y-9405389D01*
X8005039Y-9405389D02*
X7995515Y-9367293D01*
X7995515Y-9367293D02*
X7995515Y-9319674D01*
X7995515Y-9319674D02*
X8005039Y-9281579D01*
X8005039Y-9281579D02*
X8014563Y-9262531D01*
X8014563Y-9262531D02*
X8024086Y-9253008D01*
X8024086Y-9253008D02*
X8043134Y-9243484D01*
X8195515Y-9424436D02*
X8205039Y-9433960D01*
X8205039Y-9433960D02*
X8195515Y-9443484D01*
X8195515Y-9443484D02*
X8185991Y-9433960D01*
X8185991Y-9433960D02*
X8195515Y-9424436D01*
X8195515Y-9424436D02*
X8195515Y-9443484D01*
X8328848Y-9243484D02*
X8347896Y-9243484D01*
X8347896Y-9243484D02*
X8366944Y-9253008D01*
X8366944Y-9253008D02*
X8376467Y-9262531D01*
X8376467Y-9262531D02*
X8385991Y-9281579D01*
X8385991Y-9281579D02*
X8395515Y-9319674D01*
X8395515Y-9319674D02*
X8395515Y-9367293D01*
X8395515Y-9367293D02*
X8385991Y-9405389D01*
X8385991Y-9405389D02*
X8376467Y-9424436D01*
X8376467Y-9424436D02*
X8366944Y-9433960D01*
X8366944Y-9433960D02*
X8347896Y-9443484D01*
X8347896Y-9443484D02*
X8328848Y-9443484D01*
X8328848Y-9443484D02*
X8309801Y-9433960D01*
X8309801Y-9433960D02*
X8300277Y-9424436D01*
X8300277Y-9424436D02*
X8290753Y-9405389D01*
X8290753Y-9405389D02*
X8281229Y-9367293D01*
X8281229Y-9367293D02*
X8281229Y-9319674D01*
X8281229Y-9319674D02*
X8290753Y-9281579D01*
X8290753Y-9281579D02*
X8300277Y-9262531D01*
X8300277Y-9262531D02*
X8309801Y-9253008D01*
X8309801Y-9253008D02*
X8328848Y-9243484D01*
X8462182Y-9243484D02*
X8585991Y-9243484D01*
X8585991Y-9243484D02*
X8519325Y-9319674D01*
X8519325Y-9319674D02*
X8547896Y-9319674D01*
X8547896Y-9319674D02*
X8566944Y-9329198D01*
X8566944Y-9329198D02*
X8576468Y-9338722D01*
X8576468Y-9338722D02*
X8585991Y-9357770D01*
X8585991Y-9357770D02*
X8585991Y-9405389D01*
X8585991Y-9405389D02*
X8576468Y-9424436D01*
X8576468Y-9424436D02*
X8566944Y-9433960D01*
X8566944Y-9433960D02*
X8547896Y-9443484D01*
X8547896Y-9443484D02*
X8490753Y-9443484D01*
X8490753Y-9443484D02*
X8471706Y-9433960D01*
X8471706Y-9433960D02*
X8462182Y-9424436D01*
X8681229Y-9443484D02*
X8719325Y-9443484D01*
X8719325Y-9443484D02*
X8738372Y-9433960D01*
X8738372Y-9433960D02*
X8747896Y-9424436D01*
X8747896Y-9424436D02*
X8766944Y-9395865D01*
X8766944Y-9395865D02*
X8776468Y-9357770D01*
X8776468Y-9357770D02*
X8776468Y-9281579D01*
X8776468Y-9281579D02*
X8766944Y-9262531D01*
X8766944Y-9262531D02*
X8757420Y-9253008D01*
X8757420Y-9253008D02*
X8738372Y-9243484D01*
X8738372Y-9243484D02*
X8700277Y-9243484D01*
X8700277Y-9243484D02*
X8681229Y-9253008D01*
X8681229Y-9253008D02*
X8671706Y-9262531D01*
X8671706Y-9262531D02*
X8662182Y-9281579D01*
X8662182Y-9281579D02*
X8662182Y-9329198D01*
X8662182Y-9329198D02*
X8671706Y-9348246D01*
X8671706Y-9348246D02*
X8681229Y-9357770D01*
X8681229Y-9357770D02*
X8700277Y-9367293D01*
X8700277Y-9367293D02*
X8738372Y-9367293D01*
X8738372Y-9367293D02*
X8757420Y-9357770D01*
X8757420Y-9357770D02*
X8766944Y-9348246D01*
X8766944Y-9348246D02*
X8776468Y-9329198D01*
X8947896Y-9310150D02*
X8947896Y-9443484D01*
X8900277Y-9233960D02*
X8852658Y-9376817D01*
X8852658Y-9376817D02*
X8976468Y-9376817D01*
X9043134Y-9243484D02*
X9043134Y-9281579D01*
X9119325Y-9243484D02*
X9119325Y-9281579D01*
X9414563Y-9519674D02*
X9405039Y-9510150D01*
X9405039Y-9510150D02*
X9385991Y-9481579D01*
X9385991Y-9481579D02*
X9376468Y-9462531D01*
X9376468Y-9462531D02*
X9366944Y-9433960D01*
X9366944Y-9433960D02*
X9357420Y-9386341D01*
X9357420Y-9386341D02*
X9357420Y-9348246D01*
X9357420Y-9348246D02*
X9366944Y-9300627D01*
X9366944Y-9300627D02*
X9376468Y-9272055D01*
X9376468Y-9272055D02*
X9385991Y-9253008D01*
X9385991Y-9253008D02*
X9405039Y-9224436D01*
X9405039Y-9224436D02*
X9414563Y-9214912D01*
X9519325Y-9329198D02*
X9500277Y-9319674D01*
X9500277Y-9319674D02*
X9490753Y-9310150D01*
X9490753Y-9310150D02*
X9481230Y-9291103D01*
X9481230Y-9291103D02*
X9481230Y-9281579D01*
X9481230Y-9281579D02*
X9490753Y-9262531D01*
X9490753Y-9262531D02*
X9500277Y-9253008D01*
X9500277Y-9253008D02*
X9519325Y-9243484D01*
X9519325Y-9243484D02*
X9557420Y-9243484D01*
X9557420Y-9243484D02*
X9576468Y-9253008D01*
X9576468Y-9253008D02*
X9585991Y-9262531D01*
X9585991Y-9262531D02*
X9595515Y-9281579D01*
X9595515Y-9281579D02*
X9595515Y-9291103D01*
X9595515Y-9291103D02*
X9585991Y-9310150D01*
X9585991Y-9310150D02*
X9576468Y-9319674D01*
X9576468Y-9319674D02*
X9557420Y-9329198D01*
X9557420Y-9329198D02*
X9519325Y-9329198D01*
X9519325Y-9329198D02*
X9500277Y-9338722D01*
X9500277Y-9338722D02*
X9490753Y-9348246D01*
X9490753Y-9348246D02*
X9481230Y-9367293D01*
X9481230Y-9367293D02*
X9481230Y-9405389D01*
X9481230Y-9405389D02*
X9490753Y-9424436D01*
X9490753Y-9424436D02*
X9500277Y-9433960D01*
X9500277Y-9433960D02*
X9519325Y-9443484D01*
X9519325Y-9443484D02*
X9557420Y-9443484D01*
X9557420Y-9443484D02*
X9576468Y-9433960D01*
X9576468Y-9433960D02*
X9585991Y-9424436D01*
X9585991Y-9424436D02*
X9595515Y-9405389D01*
X9595515Y-9405389D02*
X9595515Y-9367293D01*
X9595515Y-9367293D02*
X9585991Y-9348246D01*
X9585991Y-9348246D02*
X9576468Y-9338722D01*
X9576468Y-9338722D02*
X9557420Y-9329198D01*
X9833611Y-9443484D02*
X9833611Y-9243484D01*
X9919325Y-9443484D02*
X9919325Y-9338722D01*
X9919325Y-9338722D02*
X9909801Y-9319674D01*
X9909801Y-9319674D02*
X9890753Y-9310150D01*
X9890753Y-9310150D02*
X9862182Y-9310150D01*
X9862182Y-9310150D02*
X9843134Y-9319674D01*
X9843134Y-9319674D02*
X9833611Y-9329198D01*
X10043134Y-9443484D02*
X10024087Y-9433960D01*
X10024087Y-9433960D02*
X10014563Y-9424436D01*
X10014563Y-9424436D02*
X10005039Y-9405389D01*
X10005039Y-9405389D02*
X10005039Y-9348246D01*
X10005039Y-9348246D02*
X10014563Y-9329198D01*
X10014563Y-9329198D02*
X10024087Y-9319674D01*
X10024087Y-9319674D02*
X10043134Y-9310150D01*
X10043134Y-9310150D02*
X10071706Y-9310150D01*
X10071706Y-9310150D02*
X10090753Y-9319674D01*
X10090753Y-9319674D02*
X10100277Y-9329198D01*
X10100277Y-9329198D02*
X10109801Y-9348246D01*
X10109801Y-9348246D02*
X10109801Y-9405389D01*
X10109801Y-9405389D02*
X10100277Y-9424436D01*
X10100277Y-9424436D02*
X10090753Y-9433960D01*
X10090753Y-9433960D02*
X10071706Y-9443484D01*
X10071706Y-9443484D02*
X10043134Y-9443484D01*
X10224087Y-9443484D02*
X10205039Y-9433960D01*
X10205039Y-9433960D02*
X10195515Y-9414912D01*
X10195515Y-9414912D02*
X10195515Y-9243484D01*
X10376468Y-9433960D02*
X10357420Y-9443484D01*
X10357420Y-9443484D02*
X10319325Y-9443484D01*
X10319325Y-9443484D02*
X10300277Y-9433960D01*
X10300277Y-9433960D02*
X10290753Y-9414912D01*
X10290753Y-9414912D02*
X10290753Y-9338722D01*
X10290753Y-9338722D02*
X10300277Y-9319674D01*
X10300277Y-9319674D02*
X10319325Y-9310150D01*
X10319325Y-9310150D02*
X10357420Y-9310150D01*
X10357420Y-9310150D02*
X10376468Y-9319674D01*
X10376468Y-9319674D02*
X10385992Y-9338722D01*
X10385992Y-9338722D02*
X10385992Y-9357770D01*
X10385992Y-9357770D02*
X10290753Y-9376817D01*
X10462182Y-9433960D02*
X10481230Y-9443484D01*
X10481230Y-9443484D02*
X10519325Y-9443484D01*
X10519325Y-9443484D02*
X10538373Y-9433960D01*
X10538373Y-9433960D02*
X10547896Y-9414912D01*
X10547896Y-9414912D02*
X10547896Y-9405389D01*
X10547896Y-9405389D02*
X10538373Y-9386341D01*
X10538373Y-9386341D02*
X10519325Y-9376817D01*
X10519325Y-9376817D02*
X10490753Y-9376817D01*
X10490753Y-9376817D02*
X10471706Y-9367293D01*
X10471706Y-9367293D02*
X10462182Y-9348246D01*
X10462182Y-9348246D02*
X10462182Y-9338722D01*
X10462182Y-9338722D02*
X10471706Y-9319674D01*
X10471706Y-9319674D02*
X10490753Y-9310150D01*
X10490753Y-9310150D02*
X10519325Y-9310150D01*
X10519325Y-9310150D02*
X10538373Y-9319674D01*
X10614563Y-9519674D02*
X10624087Y-9510150D01*
X10624087Y-9510150D02*
X10643134Y-9481579D01*
X10643134Y-9481579D02*
X10652658Y-9462531D01*
X10652658Y-9462531D02*
X10662182Y-9433960D01*
X10662182Y-9433960D02*
X10671706Y-9386341D01*
X10671706Y-9386341D02*
X10671706Y-9348246D01*
X10671706Y-9348246D02*
X10662182Y-9300627D01*
X10662182Y-9300627D02*
X10652658Y-9272055D01*
X10652658Y-9272055D02*
X10643134Y-9253008D01*
X10643134Y-9253008D02*
X10624087Y-9224436D01*
X10624087Y-9224436D02*
X10614563Y-9214912D01*
D13*
X5784500Y-9561000D02*
X5784500Y-9671000D01*
X5729500Y-9616000D02*
X5839500Y-9616000D01*
D11*
X6205039Y-9707484D02*
X6090753Y-9707484D01*
X6147896Y-9707484D02*
X6147896Y-9507484D01*
X6147896Y-9507484D02*
X6128848Y-9536055D01*
X6128848Y-9536055D02*
X6109801Y-9555103D01*
X6109801Y-9555103D02*
X6090753Y-9564627D01*
X6290753Y-9688436D02*
X6300277Y-9697960D01*
X6300277Y-9697960D02*
X6290753Y-9707484D01*
X6290753Y-9707484D02*
X6281229Y-9697960D01*
X6281229Y-9697960D02*
X6290753Y-9688436D01*
X6290753Y-9688436D02*
X6290753Y-9707484D01*
X6490753Y-9707484D02*
X6376467Y-9707484D01*
X6433610Y-9707484D02*
X6433610Y-9507484D01*
X6433610Y-9507484D02*
X6414562Y-9536055D01*
X6414562Y-9536055D02*
X6395515Y-9555103D01*
X6395515Y-9555103D02*
X6376467Y-9564627D01*
X6614562Y-9507484D02*
X6633610Y-9507484D01*
X6633610Y-9507484D02*
X6652658Y-9517008D01*
X6652658Y-9517008D02*
X6662182Y-9526531D01*
X6662182Y-9526531D02*
X6671705Y-9545579D01*
X6671705Y-9545579D02*
X6681229Y-9583674D01*
X6681229Y-9583674D02*
X6681229Y-9631293D01*
X6681229Y-9631293D02*
X6671705Y-9669389D01*
X6671705Y-9669389D02*
X6662182Y-9688436D01*
X6662182Y-9688436D02*
X6652658Y-9697960D01*
X6652658Y-9697960D02*
X6633610Y-9707484D01*
X6633610Y-9707484D02*
X6614562Y-9707484D01*
X6614562Y-9707484D02*
X6595515Y-9697960D01*
X6595515Y-9697960D02*
X6585991Y-9688436D01*
X6585991Y-9688436D02*
X6576467Y-9669389D01*
X6576467Y-9669389D02*
X6566943Y-9631293D01*
X6566943Y-9631293D02*
X6566943Y-9583674D01*
X6566943Y-9583674D02*
X6576467Y-9545579D01*
X6576467Y-9545579D02*
X6585991Y-9526531D01*
X6585991Y-9526531D02*
X6595515Y-9517008D01*
X6595515Y-9517008D02*
X6614562Y-9507484D01*
X6805039Y-9507484D02*
X6824086Y-9507484D01*
X6824086Y-9507484D02*
X6843134Y-9517008D01*
X6843134Y-9517008D02*
X6852658Y-9526531D01*
X6852658Y-9526531D02*
X6862182Y-9545579D01*
X6862182Y-9545579D02*
X6871705Y-9583674D01*
X6871705Y-9583674D02*
X6871705Y-9631293D01*
X6871705Y-9631293D02*
X6862182Y-9669389D01*
X6862182Y-9669389D02*
X6852658Y-9688436D01*
X6852658Y-9688436D02*
X6843134Y-9697960D01*
X6843134Y-9697960D02*
X6824086Y-9707484D01*
X6824086Y-9707484D02*
X6805039Y-9707484D01*
X6805039Y-9707484D02*
X6785991Y-9697960D01*
X6785991Y-9697960D02*
X6776467Y-9688436D01*
X6776467Y-9688436D02*
X6766943Y-9669389D01*
X6766943Y-9669389D02*
X6757420Y-9631293D01*
X6757420Y-9631293D02*
X6757420Y-9583674D01*
X6757420Y-9583674D02*
X6766943Y-9545579D01*
X6766943Y-9545579D02*
X6776467Y-9526531D01*
X6776467Y-9526531D02*
X6785991Y-9517008D01*
X6785991Y-9517008D02*
X6805039Y-9507484D01*
X6957420Y-9707484D02*
X6957420Y-9574150D01*
X6957420Y-9593198D02*
X6966943Y-9583674D01*
X6966943Y-9583674D02*
X6985991Y-9574150D01*
X6985991Y-9574150D02*
X7014563Y-9574150D01*
X7014563Y-9574150D02*
X7033610Y-9583674D01*
X7033610Y-9583674D02*
X7043134Y-9602722D01*
X7043134Y-9602722D02*
X7043134Y-9707484D01*
X7043134Y-9602722D02*
X7052658Y-9583674D01*
X7052658Y-9583674D02*
X7071705Y-9574150D01*
X7071705Y-9574150D02*
X7100277Y-9574150D01*
X7100277Y-9574150D02*
X7119324Y-9583674D01*
X7119324Y-9583674D02*
X7128848Y-9602722D01*
X7128848Y-9602722D02*
X7128848Y-9707484D01*
X7224086Y-9707484D02*
X7224086Y-9574150D01*
X7224086Y-9593198D02*
X7233610Y-9583674D01*
X7233610Y-9583674D02*
X7252658Y-9574150D01*
X7252658Y-9574150D02*
X7281229Y-9574150D01*
X7281229Y-9574150D02*
X7300277Y-9583674D01*
X7300277Y-9583674D02*
X7309801Y-9602722D01*
X7309801Y-9602722D02*
X7309801Y-9707484D01*
X7309801Y-9602722D02*
X7319324Y-9583674D01*
X7319324Y-9583674D02*
X7338372Y-9574150D01*
X7338372Y-9574150D02*
X7366943Y-9574150D01*
X7366943Y-9574150D02*
X7385991Y-9583674D01*
X7385991Y-9583674D02*
X7395515Y-9602722D01*
X7395515Y-9602722D02*
X7395515Y-9707484D01*
X7785991Y-9497960D02*
X7614563Y-9755103D01*
X8043134Y-9507484D02*
X8062182Y-9507484D01*
X8062182Y-9507484D02*
X8081229Y-9517008D01*
X8081229Y-9517008D02*
X8090753Y-9526531D01*
X8090753Y-9526531D02*
X8100277Y-9545579D01*
X8100277Y-9545579D02*
X8109801Y-9583674D01*
X8109801Y-9583674D02*
X8109801Y-9631293D01*
X8109801Y-9631293D02*
X8100277Y-9669389D01*
X8100277Y-9669389D02*
X8090753Y-9688436D01*
X8090753Y-9688436D02*
X8081229Y-9697960D01*
X8081229Y-9697960D02*
X8062182Y-9707484D01*
X8062182Y-9707484D02*
X8043134Y-9707484D01*
X8043134Y-9707484D02*
X8024086Y-9697960D01*
X8024086Y-9697960D02*
X8014563Y-9688436D01*
X8014563Y-9688436D02*
X8005039Y-9669389D01*
X8005039Y-9669389D02*
X7995515Y-9631293D01*
X7995515Y-9631293D02*
X7995515Y-9583674D01*
X7995515Y-9583674D02*
X8005039Y-9545579D01*
X8005039Y-9545579D02*
X8014563Y-9526531D01*
X8014563Y-9526531D02*
X8024086Y-9517008D01*
X8024086Y-9517008D02*
X8043134Y-9507484D01*
X8195515Y-9688436D02*
X8205039Y-9697960D01*
X8205039Y-9697960D02*
X8195515Y-9707484D01*
X8195515Y-9707484D02*
X8185991Y-9697960D01*
X8185991Y-9697960D02*
X8195515Y-9688436D01*
X8195515Y-9688436D02*
X8195515Y-9707484D01*
X8328848Y-9507484D02*
X8347896Y-9507484D01*
X8347896Y-9507484D02*
X8366944Y-9517008D01*
X8366944Y-9517008D02*
X8376467Y-9526531D01*
X8376467Y-9526531D02*
X8385991Y-9545579D01*
X8385991Y-9545579D02*
X8395515Y-9583674D01*
X8395515Y-9583674D02*
X8395515Y-9631293D01*
X8395515Y-9631293D02*
X8385991Y-9669389D01*
X8385991Y-9669389D02*
X8376467Y-9688436D01*
X8376467Y-9688436D02*
X8366944Y-9697960D01*
X8366944Y-9697960D02*
X8347896Y-9707484D01*
X8347896Y-9707484D02*
X8328848Y-9707484D01*
X8328848Y-9707484D02*
X8309801Y-9697960D01*
X8309801Y-9697960D02*
X8300277Y-9688436D01*
X8300277Y-9688436D02*
X8290753Y-9669389D01*
X8290753Y-9669389D02*
X8281229Y-9631293D01*
X8281229Y-9631293D02*
X8281229Y-9583674D01*
X8281229Y-9583674D02*
X8290753Y-9545579D01*
X8290753Y-9545579D02*
X8300277Y-9526531D01*
X8300277Y-9526531D02*
X8309801Y-9517008D01*
X8309801Y-9517008D02*
X8328848Y-9507484D01*
X8566944Y-9574150D02*
X8566944Y-9707484D01*
X8519325Y-9497960D02*
X8471706Y-9640817D01*
X8471706Y-9640817D02*
X8595515Y-9640817D01*
X8652658Y-9507484D02*
X8776468Y-9507484D01*
X8776468Y-9507484D02*
X8709801Y-9583674D01*
X8709801Y-9583674D02*
X8738372Y-9583674D01*
X8738372Y-9583674D02*
X8757420Y-9593198D01*
X8757420Y-9593198D02*
X8766944Y-9602722D01*
X8766944Y-9602722D02*
X8776468Y-9621770D01*
X8776468Y-9621770D02*
X8776468Y-9669389D01*
X8776468Y-9669389D02*
X8766944Y-9688436D01*
X8766944Y-9688436D02*
X8757420Y-9697960D01*
X8757420Y-9697960D02*
X8738372Y-9707484D01*
X8738372Y-9707484D02*
X8681229Y-9707484D01*
X8681229Y-9707484D02*
X8662182Y-9697960D01*
X8662182Y-9697960D02*
X8652658Y-9688436D01*
X8843134Y-9507484D02*
X8966944Y-9507484D01*
X8966944Y-9507484D02*
X8900277Y-9583674D01*
X8900277Y-9583674D02*
X8928849Y-9583674D01*
X8928849Y-9583674D02*
X8947896Y-9593198D01*
X8947896Y-9593198D02*
X8957420Y-9602722D01*
X8957420Y-9602722D02*
X8966944Y-9621770D01*
X8966944Y-9621770D02*
X8966944Y-9669389D01*
X8966944Y-9669389D02*
X8957420Y-9688436D01*
X8957420Y-9688436D02*
X8947896Y-9697960D01*
X8947896Y-9697960D02*
X8928849Y-9707484D01*
X8928849Y-9707484D02*
X8871706Y-9707484D01*
X8871706Y-9707484D02*
X8852658Y-9697960D01*
X8852658Y-9697960D02*
X8843134Y-9688436D01*
X9043134Y-9507484D02*
X9043134Y-9545579D01*
X9119325Y-9507484D02*
X9119325Y-9545579D01*
X9414563Y-9783674D02*
X9405039Y-9774150D01*
X9405039Y-9774150D02*
X9385991Y-9745579D01*
X9385991Y-9745579D02*
X9376468Y-9726531D01*
X9376468Y-9726531D02*
X9366944Y-9697960D01*
X9366944Y-9697960D02*
X9357420Y-9650341D01*
X9357420Y-9650341D02*
X9357420Y-9612246D01*
X9357420Y-9612246D02*
X9366944Y-9564627D01*
X9366944Y-9564627D02*
X9376468Y-9536055D01*
X9376468Y-9536055D02*
X9385991Y-9517008D01*
X9385991Y-9517008D02*
X9405039Y-9488436D01*
X9405039Y-9488436D02*
X9414563Y-9478912D01*
X9500277Y-9707484D02*
X9538372Y-9707484D01*
X9538372Y-9707484D02*
X9557420Y-9697960D01*
X9557420Y-9697960D02*
X9566944Y-9688436D01*
X9566944Y-9688436D02*
X9585991Y-9659865D01*
X9585991Y-9659865D02*
X9595515Y-9621770D01*
X9595515Y-9621770D02*
X9595515Y-9545579D01*
X9595515Y-9545579D02*
X9585991Y-9526531D01*
X9585991Y-9526531D02*
X9576468Y-9517008D01*
X9576468Y-9517008D02*
X9557420Y-9507484D01*
X9557420Y-9507484D02*
X9519325Y-9507484D01*
X9519325Y-9507484D02*
X9500277Y-9517008D01*
X9500277Y-9517008D02*
X9490753Y-9526531D01*
X9490753Y-9526531D02*
X9481230Y-9545579D01*
X9481230Y-9545579D02*
X9481230Y-9593198D01*
X9481230Y-9593198D02*
X9490753Y-9612246D01*
X9490753Y-9612246D02*
X9500277Y-9621770D01*
X9500277Y-9621770D02*
X9519325Y-9631293D01*
X9519325Y-9631293D02*
X9557420Y-9631293D01*
X9557420Y-9631293D02*
X9576468Y-9621770D01*
X9576468Y-9621770D02*
X9585991Y-9612246D01*
X9585991Y-9612246D02*
X9595515Y-9593198D01*
X9833611Y-9707484D02*
X9833611Y-9507484D01*
X9919325Y-9707484D02*
X9919325Y-9602722D01*
X9919325Y-9602722D02*
X9909801Y-9583674D01*
X9909801Y-9583674D02*
X9890753Y-9574150D01*
X9890753Y-9574150D02*
X9862182Y-9574150D01*
X9862182Y-9574150D02*
X9843134Y-9583674D01*
X9843134Y-9583674D02*
X9833611Y-9593198D01*
X10043134Y-9707484D02*
X10024087Y-9697960D01*
X10024087Y-9697960D02*
X10014563Y-9688436D01*
X10014563Y-9688436D02*
X10005039Y-9669389D01*
X10005039Y-9669389D02*
X10005039Y-9612246D01*
X10005039Y-9612246D02*
X10014563Y-9593198D01*
X10014563Y-9593198D02*
X10024087Y-9583674D01*
X10024087Y-9583674D02*
X10043134Y-9574150D01*
X10043134Y-9574150D02*
X10071706Y-9574150D01*
X10071706Y-9574150D02*
X10090753Y-9583674D01*
X10090753Y-9583674D02*
X10100277Y-9593198D01*
X10100277Y-9593198D02*
X10109801Y-9612246D01*
X10109801Y-9612246D02*
X10109801Y-9669389D01*
X10109801Y-9669389D02*
X10100277Y-9688436D01*
X10100277Y-9688436D02*
X10090753Y-9697960D01*
X10090753Y-9697960D02*
X10071706Y-9707484D01*
X10071706Y-9707484D02*
X10043134Y-9707484D01*
X10224087Y-9707484D02*
X10205039Y-9697960D01*
X10205039Y-9697960D02*
X10195515Y-9678912D01*
X10195515Y-9678912D02*
X10195515Y-9507484D01*
X10376468Y-9697960D02*
X10357420Y-9707484D01*
X10357420Y-9707484D02*
X10319325Y-9707484D01*
X10319325Y-9707484D02*
X10300277Y-9697960D01*
X10300277Y-9697960D02*
X10290753Y-9678912D01*
X10290753Y-9678912D02*
X10290753Y-9602722D01*
X10290753Y-9602722D02*
X10300277Y-9583674D01*
X10300277Y-9583674D02*
X10319325Y-9574150D01*
X10319325Y-9574150D02*
X10357420Y-9574150D01*
X10357420Y-9574150D02*
X10376468Y-9583674D01*
X10376468Y-9583674D02*
X10385992Y-9602722D01*
X10385992Y-9602722D02*
X10385992Y-9621770D01*
X10385992Y-9621770D02*
X10290753Y-9640817D01*
X10462182Y-9697960D02*
X10481230Y-9707484D01*
X10481230Y-9707484D02*
X10519325Y-9707484D01*
X10519325Y-9707484D02*
X10538373Y-9697960D01*
X10538373Y-9697960D02*
X10547896Y-9678912D01*
X10547896Y-9678912D02*
X10547896Y-9669389D01*
X10547896Y-9669389D02*
X10538373Y-9650341D01*
X10538373Y-9650341D02*
X10519325Y-9640817D01*
X10519325Y-9640817D02*
X10490753Y-9640817D01*
X10490753Y-9640817D02*
X10471706Y-9631293D01*
X10471706Y-9631293D02*
X10462182Y-9612246D01*
X10462182Y-9612246D02*
X10462182Y-9602722D01*
X10462182Y-9602722D02*
X10471706Y-9583674D01*
X10471706Y-9583674D02*
X10490753Y-9574150D01*
X10490753Y-9574150D02*
X10519325Y-9574150D01*
X10519325Y-9574150D02*
X10538373Y-9583674D01*
X10614563Y-9783674D02*
X10624087Y-9774150D01*
X10624087Y-9774150D02*
X10643134Y-9745579D01*
X10643134Y-9745579D02*
X10652658Y-9726531D01*
X10652658Y-9726531D02*
X10662182Y-9697960D01*
X10662182Y-9697960D02*
X10671706Y-9650341D01*
X10671706Y-9650341D02*
X10671706Y-9612246D01*
X10671706Y-9612246D02*
X10662182Y-9564627D01*
X10662182Y-9564627D02*
X10652658Y-9536055D01*
X10652658Y-9536055D02*
X10643134Y-9517008D01*
X10643134Y-9517008D02*
X10624087Y-9488436D01*
X10624087Y-9488436D02*
X10614563Y-9478912D01*
M02*
