%TF.GenerationSoftware,KiCad,Pcbnew,8.0.2-1*%
%TF.CreationDate,2025-02-23T00:33:40-05:00*%
%TF.ProjectId,RGB Clock Controller,52474220-436c-46f6-936b-20436f6e7472,rev?*%
%TF.SameCoordinates,Original*%
%TF.FileFunction,Drillmap*%
%TF.FilePolarity,Positive*%
%FSLAX45Y45*%
G04 Gerber Fmt 4.5, Leading zero omitted, Abs format (unit mm)*
G04 Created by KiCad (PCBNEW 8.0.2-1) date 2025-02-23 00:33:40*
%MOMM*%
%LPD*%
G01*
G04 APERTURE LIST*
%ADD10C,0.050000*%
%ADD11C,0.200000*%
%ADD12C,0.110000*%
G04 APERTURE END LIST*
D10*
X5842000Y-5651500D02*
X12763500Y-5651500D01*
X12763500Y-8445500D01*
X5842000Y-8445500D01*
X5842000Y-5651500D01*
D11*
D12*
X5888600Y-5837800D02*
X5998600Y-5947800D01*
X5998600Y-5837800D02*
X5888600Y-5947800D01*
X5888600Y-6091800D02*
X5998600Y-6201800D01*
X5998600Y-6091800D02*
X5888600Y-6201800D01*
X5888600Y-7615800D02*
X5998600Y-7725800D01*
X5998600Y-7615800D02*
X5888600Y-7725800D01*
X5888600Y-7869800D02*
X5998600Y-7979800D01*
X5998600Y-7869800D02*
X5888600Y-7979800D01*
X5888600Y-8123800D02*
X5998600Y-8233800D01*
X5998600Y-8123800D02*
X5888600Y-8233800D01*
D11*
X6100277Y-8759484D02*
X6100277Y-8559484D01*
X6100277Y-8559484D02*
X6147896Y-8559484D01*
X6147896Y-8559484D02*
X6176467Y-8569008D01*
X6176467Y-8569008D02*
X6195515Y-8588055D01*
X6195515Y-8588055D02*
X6205039Y-8607103D01*
X6205039Y-8607103D02*
X6214562Y-8645198D01*
X6214562Y-8645198D02*
X6214562Y-8673770D01*
X6214562Y-8673770D02*
X6205039Y-8711865D01*
X6205039Y-8711865D02*
X6195515Y-8730912D01*
X6195515Y-8730912D02*
X6176467Y-8749960D01*
X6176467Y-8749960D02*
X6147896Y-8759484D01*
X6147896Y-8759484D02*
X6100277Y-8759484D01*
X6300277Y-8759484D02*
X6300277Y-8626150D01*
X6300277Y-8664246D02*
X6309801Y-8645198D01*
X6309801Y-8645198D02*
X6319324Y-8635674D01*
X6319324Y-8635674D02*
X6338372Y-8626150D01*
X6338372Y-8626150D02*
X6357420Y-8626150D01*
X6424086Y-8759484D02*
X6424086Y-8626150D01*
X6424086Y-8559484D02*
X6414562Y-8569008D01*
X6414562Y-8569008D02*
X6424086Y-8578531D01*
X6424086Y-8578531D02*
X6433610Y-8569008D01*
X6433610Y-8569008D02*
X6424086Y-8559484D01*
X6424086Y-8559484D02*
X6424086Y-8578531D01*
X6547896Y-8759484D02*
X6528848Y-8749960D01*
X6528848Y-8749960D02*
X6519324Y-8730912D01*
X6519324Y-8730912D02*
X6519324Y-8559484D01*
X6652658Y-8759484D02*
X6633610Y-8749960D01*
X6633610Y-8749960D02*
X6624086Y-8730912D01*
X6624086Y-8730912D02*
X6624086Y-8559484D01*
X6881229Y-8759484D02*
X6881229Y-8559484D01*
X6881229Y-8559484D02*
X6947896Y-8702341D01*
X6947896Y-8702341D02*
X7014562Y-8559484D01*
X7014562Y-8559484D02*
X7014562Y-8759484D01*
X7195515Y-8759484D02*
X7195515Y-8654722D01*
X7195515Y-8654722D02*
X7185991Y-8635674D01*
X7185991Y-8635674D02*
X7166943Y-8626150D01*
X7166943Y-8626150D02*
X7128848Y-8626150D01*
X7128848Y-8626150D02*
X7109801Y-8635674D01*
X7195515Y-8749960D02*
X7176467Y-8759484D01*
X7176467Y-8759484D02*
X7128848Y-8759484D01*
X7128848Y-8759484D02*
X7109801Y-8749960D01*
X7109801Y-8749960D02*
X7100277Y-8730912D01*
X7100277Y-8730912D02*
X7100277Y-8711865D01*
X7100277Y-8711865D02*
X7109801Y-8692817D01*
X7109801Y-8692817D02*
X7128848Y-8683293D01*
X7128848Y-8683293D02*
X7176467Y-8683293D01*
X7176467Y-8683293D02*
X7195515Y-8673770D01*
X7290753Y-8626150D02*
X7290753Y-8826150D01*
X7290753Y-8635674D02*
X7309801Y-8626150D01*
X7309801Y-8626150D02*
X7347896Y-8626150D01*
X7347896Y-8626150D02*
X7366943Y-8635674D01*
X7366943Y-8635674D02*
X7376467Y-8645198D01*
X7376467Y-8645198D02*
X7385991Y-8664246D01*
X7385991Y-8664246D02*
X7385991Y-8721389D01*
X7385991Y-8721389D02*
X7376467Y-8740436D01*
X7376467Y-8740436D02*
X7366943Y-8749960D01*
X7366943Y-8749960D02*
X7347896Y-8759484D01*
X7347896Y-8759484D02*
X7309801Y-8759484D01*
X7309801Y-8759484D02*
X7290753Y-8749960D01*
X7471705Y-8740436D02*
X7481229Y-8749960D01*
X7481229Y-8749960D02*
X7471705Y-8759484D01*
X7471705Y-8759484D02*
X7462182Y-8749960D01*
X7462182Y-8749960D02*
X7471705Y-8740436D01*
X7471705Y-8740436D02*
X7471705Y-8759484D01*
X7471705Y-8635674D02*
X7481229Y-8645198D01*
X7481229Y-8645198D02*
X7471705Y-8654722D01*
X7471705Y-8654722D02*
X7462182Y-8645198D01*
X7462182Y-8645198D02*
X7471705Y-8635674D01*
X7471705Y-8635674D02*
X7471705Y-8654722D01*
D12*
X5729500Y-9033000D02*
X5839500Y-9143000D01*
X5839500Y-9033000D02*
X5729500Y-9143000D01*
D11*
X6205039Y-9179484D02*
X6090753Y-9179484D01*
X6147896Y-9179484D02*
X6147896Y-8979484D01*
X6147896Y-8979484D02*
X6128848Y-9008055D01*
X6128848Y-9008055D02*
X6109801Y-9027103D01*
X6109801Y-9027103D02*
X6090753Y-9036627D01*
X6290753Y-9160436D02*
X6300277Y-9169960D01*
X6300277Y-9169960D02*
X6290753Y-9179484D01*
X6290753Y-9179484D02*
X6281229Y-9169960D01*
X6281229Y-9169960D02*
X6290753Y-9160436D01*
X6290753Y-9160436D02*
X6290753Y-9179484D01*
X6490753Y-9179484D02*
X6376467Y-9179484D01*
X6433610Y-9179484D02*
X6433610Y-8979484D01*
X6433610Y-8979484D02*
X6414562Y-9008055D01*
X6414562Y-9008055D02*
X6395515Y-9027103D01*
X6395515Y-9027103D02*
X6376467Y-9036627D01*
X6614562Y-8979484D02*
X6633610Y-8979484D01*
X6633610Y-8979484D02*
X6652658Y-8989008D01*
X6652658Y-8989008D02*
X6662182Y-8998531D01*
X6662182Y-8998531D02*
X6671705Y-9017579D01*
X6671705Y-9017579D02*
X6681229Y-9055674D01*
X6681229Y-9055674D02*
X6681229Y-9103293D01*
X6681229Y-9103293D02*
X6671705Y-9141389D01*
X6671705Y-9141389D02*
X6662182Y-9160436D01*
X6662182Y-9160436D02*
X6652658Y-9169960D01*
X6652658Y-9169960D02*
X6633610Y-9179484D01*
X6633610Y-9179484D02*
X6614562Y-9179484D01*
X6614562Y-9179484D02*
X6595515Y-9169960D01*
X6595515Y-9169960D02*
X6585991Y-9160436D01*
X6585991Y-9160436D02*
X6576467Y-9141389D01*
X6576467Y-9141389D02*
X6566943Y-9103293D01*
X6566943Y-9103293D02*
X6566943Y-9055674D01*
X6566943Y-9055674D02*
X6576467Y-9017579D01*
X6576467Y-9017579D02*
X6585991Y-8998531D01*
X6585991Y-8998531D02*
X6595515Y-8989008D01*
X6595515Y-8989008D02*
X6614562Y-8979484D01*
X6805039Y-8979484D02*
X6824086Y-8979484D01*
X6824086Y-8979484D02*
X6843134Y-8989008D01*
X6843134Y-8989008D02*
X6852658Y-8998531D01*
X6852658Y-8998531D02*
X6862182Y-9017579D01*
X6862182Y-9017579D02*
X6871705Y-9055674D01*
X6871705Y-9055674D02*
X6871705Y-9103293D01*
X6871705Y-9103293D02*
X6862182Y-9141389D01*
X6862182Y-9141389D02*
X6852658Y-9160436D01*
X6852658Y-9160436D02*
X6843134Y-9169960D01*
X6843134Y-9169960D02*
X6824086Y-9179484D01*
X6824086Y-9179484D02*
X6805039Y-9179484D01*
X6805039Y-9179484D02*
X6785991Y-9169960D01*
X6785991Y-9169960D02*
X6776467Y-9160436D01*
X6776467Y-9160436D02*
X6766943Y-9141389D01*
X6766943Y-9141389D02*
X6757420Y-9103293D01*
X6757420Y-9103293D02*
X6757420Y-9055674D01*
X6757420Y-9055674D02*
X6766943Y-9017579D01*
X6766943Y-9017579D02*
X6776467Y-8998531D01*
X6776467Y-8998531D02*
X6785991Y-8989008D01*
X6785991Y-8989008D02*
X6805039Y-8979484D01*
X6957420Y-9179484D02*
X6957420Y-9046150D01*
X6957420Y-9065198D02*
X6966943Y-9055674D01*
X6966943Y-9055674D02*
X6985991Y-9046150D01*
X6985991Y-9046150D02*
X7014563Y-9046150D01*
X7014563Y-9046150D02*
X7033610Y-9055674D01*
X7033610Y-9055674D02*
X7043134Y-9074722D01*
X7043134Y-9074722D02*
X7043134Y-9179484D01*
X7043134Y-9074722D02*
X7052658Y-9055674D01*
X7052658Y-9055674D02*
X7071705Y-9046150D01*
X7071705Y-9046150D02*
X7100277Y-9046150D01*
X7100277Y-9046150D02*
X7119324Y-9055674D01*
X7119324Y-9055674D02*
X7128848Y-9074722D01*
X7128848Y-9074722D02*
X7128848Y-9179484D01*
X7224086Y-9179484D02*
X7224086Y-9046150D01*
X7224086Y-9065198D02*
X7233610Y-9055674D01*
X7233610Y-9055674D02*
X7252658Y-9046150D01*
X7252658Y-9046150D02*
X7281229Y-9046150D01*
X7281229Y-9046150D02*
X7300277Y-9055674D01*
X7300277Y-9055674D02*
X7309801Y-9074722D01*
X7309801Y-9074722D02*
X7309801Y-9179484D01*
X7309801Y-9074722D02*
X7319324Y-9055674D01*
X7319324Y-9055674D02*
X7338372Y-9046150D01*
X7338372Y-9046150D02*
X7366943Y-9046150D01*
X7366943Y-9046150D02*
X7385991Y-9055674D01*
X7385991Y-9055674D02*
X7395515Y-9074722D01*
X7395515Y-9074722D02*
X7395515Y-9179484D01*
X7785991Y-8969960D02*
X7614563Y-9227103D01*
X8043134Y-8979484D02*
X8062182Y-8979484D01*
X8062182Y-8979484D02*
X8081229Y-8989008D01*
X8081229Y-8989008D02*
X8090753Y-8998531D01*
X8090753Y-8998531D02*
X8100277Y-9017579D01*
X8100277Y-9017579D02*
X8109801Y-9055674D01*
X8109801Y-9055674D02*
X8109801Y-9103293D01*
X8109801Y-9103293D02*
X8100277Y-9141389D01*
X8100277Y-9141389D02*
X8090753Y-9160436D01*
X8090753Y-9160436D02*
X8081229Y-9169960D01*
X8081229Y-9169960D02*
X8062182Y-9179484D01*
X8062182Y-9179484D02*
X8043134Y-9179484D01*
X8043134Y-9179484D02*
X8024086Y-9169960D01*
X8024086Y-9169960D02*
X8014563Y-9160436D01*
X8014563Y-9160436D02*
X8005039Y-9141389D01*
X8005039Y-9141389D02*
X7995515Y-9103293D01*
X7995515Y-9103293D02*
X7995515Y-9055674D01*
X7995515Y-9055674D02*
X8005039Y-9017579D01*
X8005039Y-9017579D02*
X8014563Y-8998531D01*
X8014563Y-8998531D02*
X8024086Y-8989008D01*
X8024086Y-8989008D02*
X8043134Y-8979484D01*
X8195515Y-9160436D02*
X8205039Y-9169960D01*
X8205039Y-9169960D02*
X8195515Y-9179484D01*
X8195515Y-9179484D02*
X8185991Y-9169960D01*
X8185991Y-9169960D02*
X8195515Y-9160436D01*
X8195515Y-9160436D02*
X8195515Y-9179484D01*
X8328848Y-8979484D02*
X8347896Y-8979484D01*
X8347896Y-8979484D02*
X8366944Y-8989008D01*
X8366944Y-8989008D02*
X8376467Y-8998531D01*
X8376467Y-8998531D02*
X8385991Y-9017579D01*
X8385991Y-9017579D02*
X8395515Y-9055674D01*
X8395515Y-9055674D02*
X8395515Y-9103293D01*
X8395515Y-9103293D02*
X8385991Y-9141389D01*
X8385991Y-9141389D02*
X8376467Y-9160436D01*
X8376467Y-9160436D02*
X8366944Y-9169960D01*
X8366944Y-9169960D02*
X8347896Y-9179484D01*
X8347896Y-9179484D02*
X8328848Y-9179484D01*
X8328848Y-9179484D02*
X8309801Y-9169960D01*
X8309801Y-9169960D02*
X8300277Y-9160436D01*
X8300277Y-9160436D02*
X8290753Y-9141389D01*
X8290753Y-9141389D02*
X8281229Y-9103293D01*
X8281229Y-9103293D02*
X8281229Y-9055674D01*
X8281229Y-9055674D02*
X8290753Y-9017579D01*
X8290753Y-9017579D02*
X8300277Y-8998531D01*
X8300277Y-8998531D02*
X8309801Y-8989008D01*
X8309801Y-8989008D02*
X8328848Y-8979484D01*
X8566944Y-9046150D02*
X8566944Y-9179484D01*
X8519325Y-8969960D02*
X8471706Y-9112817D01*
X8471706Y-9112817D02*
X8595515Y-9112817D01*
X8652658Y-8979484D02*
X8776468Y-8979484D01*
X8776468Y-8979484D02*
X8709801Y-9055674D01*
X8709801Y-9055674D02*
X8738372Y-9055674D01*
X8738372Y-9055674D02*
X8757420Y-9065198D01*
X8757420Y-9065198D02*
X8766944Y-9074722D01*
X8766944Y-9074722D02*
X8776468Y-9093770D01*
X8776468Y-9093770D02*
X8776468Y-9141389D01*
X8776468Y-9141389D02*
X8766944Y-9160436D01*
X8766944Y-9160436D02*
X8757420Y-9169960D01*
X8757420Y-9169960D02*
X8738372Y-9179484D01*
X8738372Y-9179484D02*
X8681229Y-9179484D01*
X8681229Y-9179484D02*
X8662182Y-9169960D01*
X8662182Y-9169960D02*
X8652658Y-9160436D01*
X8843134Y-8979484D02*
X8966944Y-8979484D01*
X8966944Y-8979484D02*
X8900277Y-9055674D01*
X8900277Y-9055674D02*
X8928849Y-9055674D01*
X8928849Y-9055674D02*
X8947896Y-9065198D01*
X8947896Y-9065198D02*
X8957420Y-9074722D01*
X8957420Y-9074722D02*
X8966944Y-9093770D01*
X8966944Y-9093770D02*
X8966944Y-9141389D01*
X8966944Y-9141389D02*
X8957420Y-9160436D01*
X8957420Y-9160436D02*
X8947896Y-9169960D01*
X8947896Y-9169960D02*
X8928849Y-9179484D01*
X8928849Y-9179484D02*
X8871706Y-9179484D01*
X8871706Y-9179484D02*
X8852658Y-9169960D01*
X8852658Y-9169960D02*
X8843134Y-9160436D01*
X9043134Y-8979484D02*
X9043134Y-9017579D01*
X9119325Y-8979484D02*
X9119325Y-9017579D01*
X9414563Y-9255674D02*
X9405039Y-9246150D01*
X9405039Y-9246150D02*
X9385991Y-9217579D01*
X9385991Y-9217579D02*
X9376468Y-9198531D01*
X9376468Y-9198531D02*
X9366944Y-9169960D01*
X9366944Y-9169960D02*
X9357420Y-9122341D01*
X9357420Y-9122341D02*
X9357420Y-9084246D01*
X9357420Y-9084246D02*
X9366944Y-9036627D01*
X9366944Y-9036627D02*
X9376468Y-9008055D01*
X9376468Y-9008055D02*
X9385991Y-8989008D01*
X9385991Y-8989008D02*
X9405039Y-8960436D01*
X9405039Y-8960436D02*
X9414563Y-8950912D01*
X9585991Y-8979484D02*
X9490753Y-8979484D01*
X9490753Y-8979484D02*
X9481230Y-9074722D01*
X9481230Y-9074722D02*
X9490753Y-9065198D01*
X9490753Y-9065198D02*
X9509801Y-9055674D01*
X9509801Y-9055674D02*
X9557420Y-9055674D01*
X9557420Y-9055674D02*
X9576468Y-9065198D01*
X9576468Y-9065198D02*
X9585991Y-9074722D01*
X9585991Y-9074722D02*
X9595515Y-9093770D01*
X9595515Y-9093770D02*
X9595515Y-9141389D01*
X9595515Y-9141389D02*
X9585991Y-9160436D01*
X9585991Y-9160436D02*
X9576468Y-9169960D01*
X9576468Y-9169960D02*
X9557420Y-9179484D01*
X9557420Y-9179484D02*
X9509801Y-9179484D01*
X9509801Y-9179484D02*
X9490753Y-9169960D01*
X9490753Y-9169960D02*
X9481230Y-9160436D01*
X9833611Y-9179484D02*
X9833611Y-8979484D01*
X9919325Y-9179484D02*
X9919325Y-9074722D01*
X9919325Y-9074722D02*
X9909801Y-9055674D01*
X9909801Y-9055674D02*
X9890753Y-9046150D01*
X9890753Y-9046150D02*
X9862182Y-9046150D01*
X9862182Y-9046150D02*
X9843134Y-9055674D01*
X9843134Y-9055674D02*
X9833611Y-9065198D01*
X10043134Y-9179484D02*
X10024087Y-9169960D01*
X10024087Y-9169960D02*
X10014563Y-9160436D01*
X10014563Y-9160436D02*
X10005039Y-9141389D01*
X10005039Y-9141389D02*
X10005039Y-9084246D01*
X10005039Y-9084246D02*
X10014563Y-9065198D01*
X10014563Y-9065198D02*
X10024087Y-9055674D01*
X10024087Y-9055674D02*
X10043134Y-9046150D01*
X10043134Y-9046150D02*
X10071706Y-9046150D01*
X10071706Y-9046150D02*
X10090753Y-9055674D01*
X10090753Y-9055674D02*
X10100277Y-9065198D01*
X10100277Y-9065198D02*
X10109801Y-9084246D01*
X10109801Y-9084246D02*
X10109801Y-9141389D01*
X10109801Y-9141389D02*
X10100277Y-9160436D01*
X10100277Y-9160436D02*
X10090753Y-9169960D01*
X10090753Y-9169960D02*
X10071706Y-9179484D01*
X10071706Y-9179484D02*
X10043134Y-9179484D01*
X10224087Y-9179484D02*
X10205039Y-9169960D01*
X10205039Y-9169960D02*
X10195515Y-9150912D01*
X10195515Y-9150912D02*
X10195515Y-8979484D01*
X10376468Y-9169960D02*
X10357420Y-9179484D01*
X10357420Y-9179484D02*
X10319325Y-9179484D01*
X10319325Y-9179484D02*
X10300277Y-9169960D01*
X10300277Y-9169960D02*
X10290753Y-9150912D01*
X10290753Y-9150912D02*
X10290753Y-9074722D01*
X10290753Y-9074722D02*
X10300277Y-9055674D01*
X10300277Y-9055674D02*
X10319325Y-9046150D01*
X10319325Y-9046150D02*
X10357420Y-9046150D01*
X10357420Y-9046150D02*
X10376468Y-9055674D01*
X10376468Y-9055674D02*
X10385992Y-9074722D01*
X10385992Y-9074722D02*
X10385992Y-9093770D01*
X10385992Y-9093770D02*
X10290753Y-9112817D01*
X10462182Y-9169960D02*
X10481230Y-9179484D01*
X10481230Y-9179484D02*
X10519325Y-9179484D01*
X10519325Y-9179484D02*
X10538373Y-9169960D01*
X10538373Y-9169960D02*
X10547896Y-9150912D01*
X10547896Y-9150912D02*
X10547896Y-9141389D01*
X10547896Y-9141389D02*
X10538373Y-9122341D01*
X10538373Y-9122341D02*
X10519325Y-9112817D01*
X10519325Y-9112817D02*
X10490753Y-9112817D01*
X10490753Y-9112817D02*
X10471706Y-9103293D01*
X10471706Y-9103293D02*
X10462182Y-9084246D01*
X10462182Y-9084246D02*
X10462182Y-9074722D01*
X10462182Y-9074722D02*
X10471706Y-9055674D01*
X10471706Y-9055674D02*
X10490753Y-9046150D01*
X10490753Y-9046150D02*
X10519325Y-9046150D01*
X10519325Y-9046150D02*
X10538373Y-9055674D01*
X10614563Y-9255674D02*
X10624087Y-9246150D01*
X10624087Y-9246150D02*
X10643134Y-9217579D01*
X10643134Y-9217579D02*
X10652658Y-9198531D01*
X10652658Y-9198531D02*
X10662182Y-9169960D01*
X10662182Y-9169960D02*
X10671706Y-9122341D01*
X10671706Y-9122341D02*
X10671706Y-9084246D01*
X10671706Y-9084246D02*
X10662182Y-9036627D01*
X10662182Y-9036627D02*
X10652658Y-9008055D01*
X10652658Y-9008055D02*
X10643134Y-8989008D01*
X10643134Y-8989008D02*
X10624087Y-8960436D01*
X10624087Y-8960436D02*
X10614563Y-8950912D01*
X10976468Y-9255674D02*
X10966944Y-9246150D01*
X10966944Y-9246150D02*
X10947896Y-9217579D01*
X10947896Y-9217579D02*
X10938373Y-9198531D01*
X10938373Y-9198531D02*
X10928849Y-9169960D01*
X10928849Y-9169960D02*
X10919325Y-9122341D01*
X10919325Y-9122341D02*
X10919325Y-9084246D01*
X10919325Y-9084246D02*
X10928849Y-9036627D01*
X10928849Y-9036627D02*
X10938373Y-9008055D01*
X10938373Y-9008055D02*
X10947896Y-8989008D01*
X10947896Y-8989008D02*
X10966944Y-8960436D01*
X10966944Y-8960436D02*
X10976468Y-8950912D01*
X11052658Y-9046150D02*
X11052658Y-9179484D01*
X11052658Y-9065198D02*
X11062182Y-9055674D01*
X11062182Y-9055674D02*
X11081230Y-9046150D01*
X11081230Y-9046150D02*
X11109801Y-9046150D01*
X11109801Y-9046150D02*
X11128849Y-9055674D01*
X11128849Y-9055674D02*
X11138373Y-9074722D01*
X11138373Y-9074722D02*
X11138373Y-9179484D01*
X11262182Y-9179484D02*
X11243134Y-9169960D01*
X11243134Y-9169960D02*
X11233611Y-9160436D01*
X11233611Y-9160436D02*
X11224087Y-9141389D01*
X11224087Y-9141389D02*
X11224087Y-9084246D01*
X11224087Y-9084246D02*
X11233611Y-9065198D01*
X11233611Y-9065198D02*
X11243134Y-9055674D01*
X11243134Y-9055674D02*
X11262182Y-9046150D01*
X11262182Y-9046150D02*
X11290753Y-9046150D01*
X11290753Y-9046150D02*
X11309801Y-9055674D01*
X11309801Y-9055674D02*
X11319325Y-9065198D01*
X11319325Y-9065198D02*
X11328849Y-9084246D01*
X11328849Y-9084246D02*
X11328849Y-9141389D01*
X11328849Y-9141389D02*
X11319325Y-9160436D01*
X11319325Y-9160436D02*
X11309801Y-9169960D01*
X11309801Y-9169960D02*
X11290753Y-9179484D01*
X11290753Y-9179484D02*
X11262182Y-9179484D01*
X11385992Y-9046150D02*
X11462182Y-9046150D01*
X11414563Y-8979484D02*
X11414563Y-9150912D01*
X11414563Y-9150912D02*
X11424087Y-9169960D01*
X11424087Y-9169960D02*
X11443134Y-9179484D01*
X11443134Y-9179484D02*
X11462182Y-9179484D01*
X11681230Y-9046150D02*
X11681230Y-9246150D01*
X11681230Y-9055674D02*
X11700277Y-9046150D01*
X11700277Y-9046150D02*
X11738373Y-9046150D01*
X11738373Y-9046150D02*
X11757420Y-9055674D01*
X11757420Y-9055674D02*
X11766944Y-9065198D01*
X11766944Y-9065198D02*
X11776468Y-9084246D01*
X11776468Y-9084246D02*
X11776468Y-9141389D01*
X11776468Y-9141389D02*
X11766944Y-9160436D01*
X11766944Y-9160436D02*
X11757420Y-9169960D01*
X11757420Y-9169960D02*
X11738373Y-9179484D01*
X11738373Y-9179484D02*
X11700277Y-9179484D01*
X11700277Y-9179484D02*
X11681230Y-9169960D01*
X11890753Y-9179484D02*
X11871706Y-9169960D01*
X11871706Y-9169960D02*
X11862182Y-9150912D01*
X11862182Y-9150912D02*
X11862182Y-8979484D01*
X12052658Y-9179484D02*
X12052658Y-9074722D01*
X12052658Y-9074722D02*
X12043134Y-9055674D01*
X12043134Y-9055674D02*
X12024087Y-9046150D01*
X12024087Y-9046150D02*
X11985992Y-9046150D01*
X11985992Y-9046150D02*
X11966944Y-9055674D01*
X12052658Y-9169960D02*
X12033611Y-9179484D01*
X12033611Y-9179484D02*
X11985992Y-9179484D01*
X11985992Y-9179484D02*
X11966944Y-9169960D01*
X11966944Y-9169960D02*
X11957420Y-9150912D01*
X11957420Y-9150912D02*
X11957420Y-9131865D01*
X11957420Y-9131865D02*
X11966944Y-9112817D01*
X11966944Y-9112817D02*
X11985992Y-9103293D01*
X11985992Y-9103293D02*
X12033611Y-9103293D01*
X12033611Y-9103293D02*
X12052658Y-9093770D01*
X12119325Y-9046150D02*
X12195515Y-9046150D01*
X12147896Y-8979484D02*
X12147896Y-9150912D01*
X12147896Y-9150912D02*
X12157420Y-9169960D01*
X12157420Y-9169960D02*
X12176468Y-9179484D01*
X12176468Y-9179484D02*
X12195515Y-9179484D01*
X12338373Y-9169960D02*
X12319325Y-9179484D01*
X12319325Y-9179484D02*
X12281230Y-9179484D01*
X12281230Y-9179484D02*
X12262182Y-9169960D01*
X12262182Y-9169960D02*
X12252658Y-9150912D01*
X12252658Y-9150912D02*
X12252658Y-9074722D01*
X12252658Y-9074722D02*
X12262182Y-9055674D01*
X12262182Y-9055674D02*
X12281230Y-9046150D01*
X12281230Y-9046150D02*
X12319325Y-9046150D01*
X12319325Y-9046150D02*
X12338373Y-9055674D01*
X12338373Y-9055674D02*
X12347896Y-9074722D01*
X12347896Y-9074722D02*
X12347896Y-9093770D01*
X12347896Y-9093770D02*
X12252658Y-9112817D01*
X12519325Y-9179484D02*
X12519325Y-8979484D01*
X12519325Y-9169960D02*
X12500277Y-9179484D01*
X12500277Y-9179484D02*
X12462182Y-9179484D01*
X12462182Y-9179484D02*
X12443134Y-9169960D01*
X12443134Y-9169960D02*
X12433611Y-9160436D01*
X12433611Y-9160436D02*
X12424087Y-9141389D01*
X12424087Y-9141389D02*
X12424087Y-9084246D01*
X12424087Y-9084246D02*
X12433611Y-9065198D01*
X12433611Y-9065198D02*
X12443134Y-9055674D01*
X12443134Y-9055674D02*
X12462182Y-9046150D01*
X12462182Y-9046150D02*
X12500277Y-9046150D01*
X12500277Y-9046150D02*
X12519325Y-9055674D01*
X12595515Y-9255674D02*
X12605039Y-9246150D01*
X12605039Y-9246150D02*
X12624087Y-9217579D01*
X12624087Y-9217579D02*
X12633611Y-9198531D01*
X12633611Y-9198531D02*
X12643134Y-9169960D01*
X12643134Y-9169960D02*
X12652658Y-9122341D01*
X12652658Y-9122341D02*
X12652658Y-9084246D01*
X12652658Y-9084246D02*
X12643134Y-9036627D01*
X12643134Y-9036627D02*
X12633611Y-9008055D01*
X12633611Y-9008055D02*
X12624087Y-8989008D01*
X12624087Y-8989008D02*
X12605039Y-8960436D01*
X12605039Y-8960436D02*
X12595515Y-8950912D01*
M02*
