%TF.GenerationSoftware,KiCad,Pcbnew,9.0.0*%
%TF.CreationDate,2025-03-14T11:53:48-04:00*%
%TF.ProjectId,RGB Clock Controller,52474220-436c-46f6-936b-20436f6e7472,rev?*%
%TF.SameCoordinates,Original*%
%TF.FileFunction,Legend,Bot*%
%TF.FilePolarity,Positive*%
%FSLAX46Y46*%
G04 Gerber Fmt 4.6, Leading zero omitted, Abs format (unit mm)*
G04 Created by KiCad (PCBNEW 9.0.0) date 2025-03-14 11:53:48*
%MOMM*%
%LPD*%
G01*
G04 APERTURE LIST*
%ADD10C,0.127000*%
G04 APERTURE END LIST*
D10*
X113696352Y-62804714D02*
X114119686Y-62199952D01*
X114422067Y-62804714D02*
X114422067Y-61534714D01*
X114422067Y-61534714D02*
X113938257Y-61534714D01*
X113938257Y-61534714D02*
X113817305Y-61595190D01*
X113817305Y-61595190D02*
X113756828Y-61655666D01*
X113756828Y-61655666D02*
X113696352Y-61776618D01*
X113696352Y-61776618D02*
X113696352Y-61958047D01*
X113696352Y-61958047D02*
X113756828Y-62078999D01*
X113756828Y-62078999D02*
X113817305Y-62139476D01*
X113817305Y-62139476D02*
X113938257Y-62199952D01*
X113938257Y-62199952D02*
X114422067Y-62199952D01*
X112486828Y-61595190D02*
X112607781Y-61534714D01*
X112607781Y-61534714D02*
X112789209Y-61534714D01*
X112789209Y-61534714D02*
X112970638Y-61595190D01*
X112970638Y-61595190D02*
X113091590Y-61716142D01*
X113091590Y-61716142D02*
X113152067Y-61837095D01*
X113152067Y-61837095D02*
X113212543Y-62078999D01*
X113212543Y-62078999D02*
X113212543Y-62260428D01*
X113212543Y-62260428D02*
X113152067Y-62502333D01*
X113152067Y-62502333D02*
X113091590Y-62623285D01*
X113091590Y-62623285D02*
X112970638Y-62744238D01*
X112970638Y-62744238D02*
X112789209Y-62804714D01*
X112789209Y-62804714D02*
X112668257Y-62804714D01*
X112668257Y-62804714D02*
X112486828Y-62744238D01*
X112486828Y-62744238D02*
X112426352Y-62683761D01*
X112426352Y-62683761D02*
X112426352Y-62260428D01*
X112426352Y-62260428D02*
X112668257Y-62260428D01*
X111458733Y-62139476D02*
X111277305Y-62199952D01*
X111277305Y-62199952D02*
X111216828Y-62260428D01*
X111216828Y-62260428D02*
X111156352Y-62381380D01*
X111156352Y-62381380D02*
X111156352Y-62562809D01*
X111156352Y-62562809D02*
X111216828Y-62683761D01*
X111216828Y-62683761D02*
X111277305Y-62744238D01*
X111277305Y-62744238D02*
X111398257Y-62804714D01*
X111398257Y-62804714D02*
X111882067Y-62804714D01*
X111882067Y-62804714D02*
X111882067Y-61534714D01*
X111882067Y-61534714D02*
X111458733Y-61534714D01*
X111458733Y-61534714D02*
X111337781Y-61595190D01*
X111337781Y-61595190D02*
X111277305Y-61655666D01*
X111277305Y-61655666D02*
X111216828Y-61776618D01*
X111216828Y-61776618D02*
X111216828Y-61897571D01*
X111216828Y-61897571D02*
X111277305Y-62018523D01*
X111277305Y-62018523D02*
X111337781Y-62078999D01*
X111337781Y-62078999D02*
X111458733Y-62139476D01*
X111458733Y-62139476D02*
X111882067Y-62139476D01*
X108918733Y-62683761D02*
X108979209Y-62744238D01*
X108979209Y-62744238D02*
X109160638Y-62804714D01*
X109160638Y-62804714D02*
X109281590Y-62804714D01*
X109281590Y-62804714D02*
X109463019Y-62744238D01*
X109463019Y-62744238D02*
X109583971Y-62623285D01*
X109583971Y-62623285D02*
X109644448Y-62502333D01*
X109644448Y-62502333D02*
X109704924Y-62260428D01*
X109704924Y-62260428D02*
X109704924Y-62078999D01*
X109704924Y-62078999D02*
X109644448Y-61837095D01*
X109644448Y-61837095D02*
X109583971Y-61716142D01*
X109583971Y-61716142D02*
X109463019Y-61595190D01*
X109463019Y-61595190D02*
X109281590Y-61534714D01*
X109281590Y-61534714D02*
X109160638Y-61534714D01*
X109160638Y-61534714D02*
X108979209Y-61595190D01*
X108979209Y-61595190D02*
X108918733Y-61655666D01*
X108193019Y-62804714D02*
X108313971Y-62744238D01*
X108313971Y-62744238D02*
X108374448Y-62623285D01*
X108374448Y-62623285D02*
X108374448Y-61534714D01*
X107527781Y-62804714D02*
X107648733Y-62744238D01*
X107648733Y-62744238D02*
X107709210Y-62683761D01*
X107709210Y-62683761D02*
X107769686Y-62562809D01*
X107769686Y-62562809D02*
X107769686Y-62199952D01*
X107769686Y-62199952D02*
X107709210Y-62078999D01*
X107709210Y-62078999D02*
X107648733Y-62018523D01*
X107648733Y-62018523D02*
X107527781Y-61958047D01*
X107527781Y-61958047D02*
X107346352Y-61958047D01*
X107346352Y-61958047D02*
X107225400Y-62018523D01*
X107225400Y-62018523D02*
X107164924Y-62078999D01*
X107164924Y-62078999D02*
X107104448Y-62199952D01*
X107104448Y-62199952D02*
X107104448Y-62562809D01*
X107104448Y-62562809D02*
X107164924Y-62683761D01*
X107164924Y-62683761D02*
X107225400Y-62744238D01*
X107225400Y-62744238D02*
X107346352Y-62804714D01*
X107346352Y-62804714D02*
X107527781Y-62804714D01*
X106015876Y-62744238D02*
X106136828Y-62804714D01*
X106136828Y-62804714D02*
X106378733Y-62804714D01*
X106378733Y-62804714D02*
X106499685Y-62744238D01*
X106499685Y-62744238D02*
X106560162Y-62683761D01*
X106560162Y-62683761D02*
X106620638Y-62562809D01*
X106620638Y-62562809D02*
X106620638Y-62199952D01*
X106620638Y-62199952D02*
X106560162Y-62078999D01*
X106560162Y-62078999D02*
X106499685Y-62018523D01*
X106499685Y-62018523D02*
X106378733Y-61958047D01*
X106378733Y-61958047D02*
X106136828Y-61958047D01*
X106136828Y-61958047D02*
X106015876Y-62018523D01*
X105471591Y-62804714D02*
X105471591Y-61534714D01*
X105350638Y-62320904D02*
X104987781Y-62804714D01*
X104987781Y-61958047D02*
X105471591Y-62441857D01*
X114603495Y-63579343D02*
X114180162Y-64849343D01*
X114180162Y-64849343D02*
X113756828Y-63579343D01*
X112668257Y-64849343D02*
X113393972Y-64849343D01*
X113031115Y-64849343D02*
X113031115Y-63579343D01*
X113031115Y-63579343D02*
X113152067Y-63760771D01*
X113152067Y-63760771D02*
X113273019Y-63881724D01*
X113273019Y-63881724D02*
X113393972Y-63942200D01*
X112123972Y-64728390D02*
X112063495Y-64788867D01*
X112063495Y-64788867D02*
X112123972Y-64849343D01*
X112123972Y-64849343D02*
X112184448Y-64788867D01*
X112184448Y-64788867D02*
X112123972Y-64728390D01*
X112123972Y-64728390D02*
X112123972Y-64849343D01*
X110853971Y-64849343D02*
X111579686Y-64849343D01*
X111216829Y-64849343D02*
X111216829Y-63579343D01*
X111216829Y-63579343D02*
X111337781Y-63760771D01*
X111337781Y-63760771D02*
X111458733Y-63881724D01*
X111458733Y-63881724D02*
X111579686Y-63942200D01*
X114059209Y-67377781D02*
X114119686Y-67317305D01*
X114119686Y-67317305D02*
X114240638Y-67135876D01*
X114240638Y-67135876D02*
X114301114Y-67014924D01*
X114301114Y-67014924D02*
X114361590Y-66833496D01*
X114361590Y-66833496D02*
X114422067Y-66531115D01*
X114422067Y-66531115D02*
X114422067Y-66289210D01*
X114422067Y-66289210D02*
X114361590Y-65986829D01*
X114361590Y-65986829D02*
X114301114Y-65805400D01*
X114301114Y-65805400D02*
X114240638Y-65684448D01*
X114240638Y-65684448D02*
X114119686Y-65503019D01*
X114119686Y-65503019D02*
X114059209Y-65442543D01*
X113031114Y-66833496D02*
X113152066Y-66893972D01*
X113152066Y-66893972D02*
X113393971Y-66893972D01*
X113393971Y-66893972D02*
X113514923Y-66833496D01*
X113514923Y-66833496D02*
X113575400Y-66773019D01*
X113575400Y-66773019D02*
X113635876Y-66652067D01*
X113635876Y-66652067D02*
X113635876Y-66289210D01*
X113635876Y-66289210D02*
X113575400Y-66168257D01*
X113575400Y-66168257D02*
X113514923Y-66107781D01*
X113514923Y-66107781D02*
X113393971Y-66047305D01*
X113393971Y-66047305D02*
X113152066Y-66047305D01*
X113152066Y-66047305D02*
X113031114Y-66107781D01*
X112607781Y-67377781D02*
X112547305Y-67317305D01*
X112547305Y-67317305D02*
X112426352Y-67135876D01*
X112426352Y-67135876D02*
X112365876Y-67014924D01*
X112365876Y-67014924D02*
X112305400Y-66833496D01*
X112305400Y-66833496D02*
X112244924Y-66531115D01*
X112244924Y-66531115D02*
X112244924Y-66289210D01*
X112244924Y-66289210D02*
X112305400Y-65986829D01*
X112305400Y-65986829D02*
X112365876Y-65805400D01*
X112365876Y-65805400D02*
X112426352Y-65684448D01*
X112426352Y-65684448D02*
X112547305Y-65503019D01*
X112547305Y-65503019D02*
X112607781Y-65442543D01*
X110733019Y-65744924D02*
X110672543Y-65684448D01*
X110672543Y-65684448D02*
X110551590Y-65623972D01*
X110551590Y-65623972D02*
X110249209Y-65623972D01*
X110249209Y-65623972D02*
X110128257Y-65684448D01*
X110128257Y-65684448D02*
X110067781Y-65744924D01*
X110067781Y-65744924D02*
X110007304Y-65865876D01*
X110007304Y-65865876D02*
X110007304Y-65986829D01*
X110007304Y-65986829D02*
X110067781Y-66168257D01*
X110067781Y-66168257D02*
X110793495Y-66893972D01*
X110793495Y-66893972D02*
X110007304Y-66893972D01*
X109221114Y-65623972D02*
X109100161Y-65623972D01*
X109100161Y-65623972D02*
X108979209Y-65684448D01*
X108979209Y-65684448D02*
X108918733Y-65744924D01*
X108918733Y-65744924D02*
X108858257Y-65865876D01*
X108858257Y-65865876D02*
X108797780Y-66107781D01*
X108797780Y-66107781D02*
X108797780Y-66410162D01*
X108797780Y-66410162D02*
X108858257Y-66652067D01*
X108858257Y-66652067D02*
X108918733Y-66773019D01*
X108918733Y-66773019D02*
X108979209Y-66833496D01*
X108979209Y-66833496D02*
X109100161Y-66893972D01*
X109100161Y-66893972D02*
X109221114Y-66893972D01*
X109221114Y-66893972D02*
X109342066Y-66833496D01*
X109342066Y-66833496D02*
X109402542Y-66773019D01*
X109402542Y-66773019D02*
X109463019Y-66652067D01*
X109463019Y-66652067D02*
X109523495Y-66410162D01*
X109523495Y-66410162D02*
X109523495Y-66107781D01*
X109523495Y-66107781D02*
X109463019Y-65865876D01*
X109463019Y-65865876D02*
X109402542Y-65744924D01*
X109402542Y-65744924D02*
X109342066Y-65684448D01*
X109342066Y-65684448D02*
X109221114Y-65623972D01*
X108011590Y-65623972D02*
X107890637Y-65623972D01*
X107890637Y-65623972D02*
X107769685Y-65684448D01*
X107769685Y-65684448D02*
X107709209Y-65744924D01*
X107709209Y-65744924D02*
X107648733Y-65865876D01*
X107648733Y-65865876D02*
X107588256Y-66107781D01*
X107588256Y-66107781D02*
X107588256Y-66410162D01*
X107588256Y-66410162D02*
X107648733Y-66652067D01*
X107648733Y-66652067D02*
X107709209Y-66773019D01*
X107709209Y-66773019D02*
X107769685Y-66833496D01*
X107769685Y-66833496D02*
X107890637Y-66893972D01*
X107890637Y-66893972D02*
X108011590Y-66893972D01*
X108011590Y-66893972D02*
X108132542Y-66833496D01*
X108132542Y-66833496D02*
X108193018Y-66773019D01*
X108193018Y-66773019D02*
X108253495Y-66652067D01*
X108253495Y-66652067D02*
X108313971Y-66410162D01*
X108313971Y-66410162D02*
X108313971Y-66107781D01*
X108313971Y-66107781D02*
X108253495Y-65865876D01*
X108253495Y-65865876D02*
X108193018Y-65744924D01*
X108193018Y-65744924D02*
X108132542Y-65684448D01*
X108132542Y-65684448D02*
X108011590Y-65623972D01*
X106439209Y-65623972D02*
X107043971Y-65623972D01*
X107043971Y-65623972D02*
X107104447Y-66228734D01*
X107104447Y-66228734D02*
X107043971Y-66168257D01*
X107043971Y-66168257D02*
X106923018Y-66107781D01*
X106923018Y-66107781D02*
X106620637Y-66107781D01*
X106620637Y-66107781D02*
X106499685Y-66168257D01*
X106499685Y-66168257D02*
X106439209Y-66228734D01*
X106439209Y-66228734D02*
X106378732Y-66349686D01*
X106378732Y-66349686D02*
X106378732Y-66652067D01*
X106378732Y-66652067D02*
X106439209Y-66773019D01*
X106439209Y-66773019D02*
X106499685Y-66833496D01*
X106499685Y-66833496D02*
X106620637Y-66893972D01*
X106620637Y-66893972D02*
X106923018Y-66893972D01*
X106923018Y-66893972D02*
X107043971Y-66833496D01*
X107043971Y-66833496D02*
X107104447Y-66773019D01*
X104866828Y-66893972D02*
X104866828Y-65623972D01*
X104866828Y-65623972D02*
X104443494Y-66531115D01*
X104443494Y-66531115D02*
X104020161Y-65623972D01*
X104020161Y-65623972D02*
X104020161Y-66893972D01*
X102871113Y-66893972D02*
X102871113Y-66228734D01*
X102871113Y-66228734D02*
X102931589Y-66107781D01*
X102931589Y-66107781D02*
X103052541Y-66047305D01*
X103052541Y-66047305D02*
X103294446Y-66047305D01*
X103294446Y-66047305D02*
X103415399Y-66107781D01*
X102871113Y-66833496D02*
X102992065Y-66893972D01*
X102992065Y-66893972D02*
X103294446Y-66893972D01*
X103294446Y-66893972D02*
X103415399Y-66833496D01*
X103415399Y-66833496D02*
X103475875Y-66712543D01*
X103475875Y-66712543D02*
X103475875Y-66591591D01*
X103475875Y-66591591D02*
X103415399Y-66470638D01*
X103415399Y-66470638D02*
X103294446Y-66410162D01*
X103294446Y-66410162D02*
X102992065Y-66410162D01*
X102992065Y-66410162D02*
X102871113Y-66349686D01*
X102266351Y-66893972D02*
X102266351Y-66047305D01*
X102266351Y-66289210D02*
X102205874Y-66168257D01*
X102205874Y-66168257D02*
X102145398Y-66107781D01*
X102145398Y-66107781D02*
X102024446Y-66047305D01*
X102024446Y-66047305D02*
X101903493Y-66047305D01*
X100935875Y-66833496D02*
X101056827Y-66893972D01*
X101056827Y-66893972D02*
X101298732Y-66893972D01*
X101298732Y-66893972D02*
X101419684Y-66833496D01*
X101419684Y-66833496D02*
X101480161Y-66773019D01*
X101480161Y-66773019D02*
X101540637Y-66652067D01*
X101540637Y-66652067D02*
X101540637Y-66289210D01*
X101540637Y-66289210D02*
X101480161Y-66168257D01*
X101480161Y-66168257D02*
X101419684Y-66107781D01*
X101419684Y-66107781D02*
X101298732Y-66047305D01*
X101298732Y-66047305D02*
X101056827Y-66047305D01*
X101056827Y-66047305D02*
X100935875Y-66107781D01*
X99423971Y-66893972D02*
X99423971Y-65623972D01*
X99423971Y-65623972D02*
X99121590Y-65623972D01*
X99121590Y-65623972D02*
X98940161Y-65684448D01*
X98940161Y-65684448D02*
X98819209Y-65805400D01*
X98819209Y-65805400D02*
X98758732Y-65926353D01*
X98758732Y-65926353D02*
X98698256Y-66168257D01*
X98698256Y-66168257D02*
X98698256Y-66349686D01*
X98698256Y-66349686D02*
X98758732Y-66591591D01*
X98758732Y-66591591D02*
X98819209Y-66712543D01*
X98819209Y-66712543D02*
X98940161Y-66833496D01*
X98940161Y-66833496D02*
X99121590Y-66893972D01*
X99121590Y-66893972D02*
X99423971Y-66893972D01*
X98153971Y-66773019D02*
X98093494Y-66833496D01*
X98093494Y-66833496D02*
X98153971Y-66893972D01*
X98153971Y-66893972D02*
X98214447Y-66833496D01*
X98214447Y-66833496D02*
X98153971Y-66773019D01*
X98153971Y-66773019D02*
X98153971Y-66893972D01*
X96642066Y-66833496D02*
X96460637Y-66893972D01*
X96460637Y-66893972D02*
X96158256Y-66893972D01*
X96158256Y-66893972D02*
X96037304Y-66833496D01*
X96037304Y-66833496D02*
X95976828Y-66773019D01*
X95976828Y-66773019D02*
X95916351Y-66652067D01*
X95916351Y-66652067D02*
X95916351Y-66531115D01*
X95916351Y-66531115D02*
X95976828Y-66410162D01*
X95976828Y-66410162D02*
X96037304Y-66349686D01*
X96037304Y-66349686D02*
X96158256Y-66289210D01*
X96158256Y-66289210D02*
X96400161Y-66228734D01*
X96400161Y-66228734D02*
X96521113Y-66168257D01*
X96521113Y-66168257D02*
X96581590Y-66107781D01*
X96581590Y-66107781D02*
X96642066Y-65986829D01*
X96642066Y-65986829D02*
X96642066Y-65865876D01*
X96642066Y-65865876D02*
X96581590Y-65744924D01*
X96581590Y-65744924D02*
X96521113Y-65684448D01*
X96521113Y-65684448D02*
X96400161Y-65623972D01*
X96400161Y-65623972D02*
X96097780Y-65623972D01*
X96097780Y-65623972D02*
X95916351Y-65684448D01*
X95372066Y-66047305D02*
X95372066Y-67317305D01*
X95372066Y-66107781D02*
X95251113Y-66047305D01*
X95251113Y-66047305D02*
X95009208Y-66047305D01*
X95009208Y-66047305D02*
X94888256Y-66107781D01*
X94888256Y-66107781D02*
X94827780Y-66168257D01*
X94827780Y-66168257D02*
X94767304Y-66289210D01*
X94767304Y-66289210D02*
X94767304Y-66652067D01*
X94767304Y-66652067D02*
X94827780Y-66773019D01*
X94827780Y-66773019D02*
X94888256Y-66833496D01*
X94888256Y-66833496D02*
X95009208Y-66893972D01*
X95009208Y-66893972D02*
X95251113Y-66893972D01*
X95251113Y-66893972D02*
X95372066Y-66833496D01*
X93739208Y-66833496D02*
X93860160Y-66893972D01*
X93860160Y-66893972D02*
X94102065Y-66893972D01*
X94102065Y-66893972D02*
X94223018Y-66833496D01*
X94223018Y-66833496D02*
X94283494Y-66712543D01*
X94283494Y-66712543D02*
X94283494Y-66228734D01*
X94283494Y-66228734D02*
X94223018Y-66107781D01*
X94223018Y-66107781D02*
X94102065Y-66047305D01*
X94102065Y-66047305D02*
X93860160Y-66047305D01*
X93860160Y-66047305D02*
X93739208Y-66107781D01*
X93739208Y-66107781D02*
X93678732Y-66228734D01*
X93678732Y-66228734D02*
X93678732Y-66349686D01*
X93678732Y-66349686D02*
X94283494Y-66470638D01*
X93134447Y-66047305D02*
X93134447Y-66893972D01*
X93134447Y-66168257D02*
X93073970Y-66107781D01*
X93073970Y-66107781D02*
X92953018Y-66047305D01*
X92953018Y-66047305D02*
X92771589Y-66047305D01*
X92771589Y-66047305D02*
X92650637Y-66107781D01*
X92650637Y-66107781D02*
X92590161Y-66228734D01*
X92590161Y-66228734D02*
X92590161Y-66893972D01*
X91441113Y-66833496D02*
X91562065Y-66893972D01*
X91562065Y-66893972D02*
X91803970Y-66893972D01*
X91803970Y-66893972D02*
X91924922Y-66833496D01*
X91924922Y-66833496D02*
X91985399Y-66773019D01*
X91985399Y-66773019D02*
X92045875Y-66652067D01*
X92045875Y-66652067D02*
X92045875Y-66289210D01*
X92045875Y-66289210D02*
X91985399Y-66168257D01*
X91985399Y-66168257D02*
X91924922Y-66107781D01*
X91924922Y-66107781D02*
X91803970Y-66047305D01*
X91803970Y-66047305D02*
X91562065Y-66047305D01*
X91562065Y-66047305D02*
X91441113Y-66107781D01*
X90413018Y-66833496D02*
X90533970Y-66893972D01*
X90533970Y-66893972D02*
X90775875Y-66893972D01*
X90775875Y-66893972D02*
X90896828Y-66833496D01*
X90896828Y-66833496D02*
X90957304Y-66712543D01*
X90957304Y-66712543D02*
X90957304Y-66228734D01*
X90957304Y-66228734D02*
X90896828Y-66107781D01*
X90896828Y-66107781D02*
X90775875Y-66047305D01*
X90775875Y-66047305D02*
X90533970Y-66047305D01*
X90533970Y-66047305D02*
X90413018Y-66107781D01*
X90413018Y-66107781D02*
X90352542Y-66228734D01*
X90352542Y-66228734D02*
X90352542Y-66349686D01*
X90352542Y-66349686D02*
X90957304Y-66470638D01*
X89808257Y-66893972D02*
X89808257Y-66047305D01*
X89808257Y-66289210D02*
X89747780Y-66168257D01*
X89747780Y-66168257D02*
X89687304Y-66107781D01*
X89687304Y-66107781D02*
X89566352Y-66047305D01*
X89566352Y-66047305D02*
X89445399Y-66047305D01*
M02*
