%TF.GenerationSoftware,KiCad,Pcbnew,9.0.0*%
%TF.CreationDate,2025-03-14T11:53:48-04:00*%
%TF.ProjectId,RGB Clock Controller,52474220-436c-46f6-936b-20436f6e7472,rev?*%
%TF.SameCoordinates,Original*%
%TF.FileFunction,Soldermask,Top*%
%TF.FilePolarity,Negative*%
%FSLAX46Y46*%
G04 Gerber Fmt 4.6, Leading zero omitted, Abs format (unit mm)*
G04 Created by KiCad (PCBNEW 9.0.0) date 2025-03-14 11:53:48*
%MOMM*%
%LPD*%
G01*
G04 APERTURE LIST*
G04 Aperture macros list*
%AMRoundRect*
0 Rectangle with rounded corners*
0 $1 Rounding radius*
0 $2 $3 $4 $5 $6 $7 $8 $9 X,Y pos of 4 corners*
0 Add a 4 corners polygon primitive as box body*
4,1,4,$2,$3,$4,$5,$6,$7,$8,$9,$2,$3,0*
0 Add four circle primitives for the rounded corners*
1,1,$1+$1,$2,$3*
1,1,$1+$1,$4,$5*
1,1,$1+$1,$6,$7*
1,1,$1+$1,$8,$9*
0 Add four rect primitives between the rounded corners*
20,1,$1+$1,$2,$3,$4,$5,0*
20,1,$1+$1,$4,$5,$6,$7,0*
20,1,$1+$1,$6,$7,$8,$9,0*
20,1,$1+$1,$8,$9,$2,$3,0*%
G04 Aperture macros list end*
%ADD10RoundRect,0.250000X-0.475000X0.337500X-0.475000X-0.337500X0.475000X-0.337500X0.475000X0.337500X0*%
%ADD11RoundRect,0.250000X0.650000X-0.412500X0.650000X0.412500X-0.650000X0.412500X-0.650000X-0.412500X0*%
%ADD12RoundRect,0.250000X0.412500X0.650000X-0.412500X0.650000X-0.412500X-0.650000X0.412500X-0.650000X0*%
%ADD13C,1.100000*%
%ADD14R,2.200000X2.200000*%
%ADD15C,2.200000*%
%ADD16RoundRect,0.250000X-0.400000X-0.625000X0.400000X-0.625000X0.400000X0.625000X-0.400000X0.625000X0*%
%ADD17R,1.700000X1.700000*%
%ADD18O,1.700000X1.700000*%
%ADD19R,0.400000X1.200000*%
%ADD20RoundRect,0.249999X0.850001X-0.850001X0.850001X0.850001X-0.850001X0.850001X-0.850001X-0.850001X0*%
%ADD21RoundRect,0.250000X0.337500X0.475000X-0.337500X0.475000X-0.337500X-0.475000X0.337500X-0.475000X0*%
%ADD22O,1.200000X2.000000*%
%ADD23C,2.000000*%
%ADD24RoundRect,0.250000X-0.625000X0.400000X-0.625000X-0.400000X0.625000X-0.400000X0.625000X0.400000X0*%
G04 APERTURE END LIST*
D10*
%TO.C,C5*%
X115824000Y-59944000D03*
X115824000Y-62019000D03*
%TD*%
D11*
%TO.C,C3*%
X69088000Y-80705000D03*
X69088000Y-77580000D03*
%TD*%
D12*
%TO.C,C1*%
X82296000Y-63500000D03*
X79171000Y-63500000D03*
%TD*%
D13*
%TO.C,J1*%
X59436000Y-58420000D03*
X59436000Y-60960000D03*
D14*
X61976000Y-58420000D03*
D15*
X61976000Y-60960000D03*
%TD*%
D16*
%TO.C,R1*%
X68580000Y-69215000D03*
X71680000Y-69215000D03*
%TD*%
D17*
%TO.C,J3*%
X125095000Y-74955400D03*
D18*
X125095000Y-72415400D03*
X125095000Y-69875400D03*
X125095000Y-67335400D03*
%TD*%
D19*
%TO.C,U2*%
X91358000Y-68834000D03*
X90708000Y-68834000D03*
X90058000Y-68834000D03*
X89408000Y-68834000D03*
X88758000Y-68834000D03*
X88108000Y-68834000D03*
X87458000Y-68834000D03*
X87458000Y-75734000D03*
X88108000Y-75734000D03*
X88758000Y-75734000D03*
X89408000Y-75734000D03*
X90058000Y-75734000D03*
X90708000Y-75734000D03*
X91358000Y-75734000D03*
%TD*%
D13*
%TO.C,J5*%
X126365000Y-63500000D03*
X126365000Y-60960000D03*
X126365000Y-58420000D03*
D20*
X123825000Y-63500000D03*
D15*
X123825000Y-60960000D03*
X123825000Y-58420000D03*
%TD*%
D21*
%TO.C,C2*%
X96690000Y-74930000D03*
X94615000Y-74930000D03*
%TD*%
D22*
%TO.C,A1*%
X74255000Y-81707000D03*
X76795000Y-81707000D03*
X79335000Y-81707000D03*
X81875000Y-81707000D03*
X84415000Y-81707000D03*
X86955000Y-81707000D03*
X89495000Y-81707000D03*
X92035000Y-81707000D03*
X94575000Y-81707000D03*
X97115000Y-81707000D03*
X99655000Y-81707000D03*
X102195000Y-81707000D03*
X104735000Y-81707000D03*
X107275000Y-81707000D03*
X109815000Y-81707000D03*
X109815000Y-58847000D03*
X107275000Y-58847000D03*
X104735000Y-58847000D03*
X102195000Y-58847000D03*
X99655000Y-58847000D03*
X97115000Y-58847000D03*
X94575000Y-58847000D03*
X92035000Y-58847000D03*
X89495000Y-58847000D03*
X86955000Y-58847000D03*
X84415000Y-58847000D03*
X81875000Y-58847000D03*
X79335000Y-58847000D03*
X76795000Y-58847000D03*
X74255000Y-58847000D03*
%TD*%
D17*
%TO.C,U1*%
X121158000Y-67360800D03*
D18*
X121158000Y-69900800D03*
X121158000Y-72440800D03*
X121158000Y-74980800D03*
%TD*%
D23*
%TO.C,SW3*%
X125984000Y-82804000D03*
X119484000Y-82804000D03*
X125984000Y-78304000D03*
X119484000Y-78304000D03*
%TD*%
D21*
%TO.C,C4*%
X70655000Y-58928000D03*
X68580000Y-58928000D03*
%TD*%
D24*
%TO.C,R4*%
X114300000Y-69925000D03*
X114300000Y-73025000D03*
%TD*%
D13*
%TO.C,J2*%
X59436000Y-77216000D03*
X59436000Y-79756000D03*
X59436000Y-82296000D03*
D14*
X61976000Y-77216000D03*
D15*
X61976000Y-79756000D03*
X61976000Y-82296000D03*
%TD*%
M02*
