%TF.GenerationSoftware,KiCad,Pcbnew,8.0.2-1*%
%TF.CreationDate,2025-02-23T00:33:37-05:00*%
%TF.ProjectId,RGB Clock Controller,52474220-436c-46f6-936b-20436f6e7472,rev?*%
%TF.SameCoordinates,Original*%
%TF.FileFunction,Copper,L2,Bot*%
%TF.FilePolarity,Positive*%
%FSLAX46Y46*%
G04 Gerber Fmt 4.6, Leading zero omitted, Abs format (unit mm)*
G04 Created by KiCad (PCBNEW 8.0.2-1) date 2025-02-23 00:33:37*
%MOMM*%
%LPD*%
G01*
G04 APERTURE LIST*
%TA.AperFunction,ComponentPad*%
%ADD10R,1.700000X1.700000*%
%TD*%
%TA.AperFunction,ComponentPad*%
%ADD11O,1.700000X1.700000*%
%TD*%
%TA.AperFunction,ComponentPad*%
%ADD12O,1.200000X2.000000*%
%TD*%
%TA.AperFunction,ComponentPad*%
%ADD13R,2.200000X2.200000*%
%TD*%
%TA.AperFunction,ComponentPad*%
%ADD14C,2.200000*%
%TD*%
%TA.AperFunction,ComponentPad*%
%ADD15C,2.000000*%
%TD*%
%TA.AperFunction,Conductor*%
%ADD16C,0.200000*%
%TD*%
%TA.AperFunction,Conductor*%
%ADD17C,0.635000*%
%TD*%
G04 APERTURE END LIST*
D10*
%TO.P,J3,1,Pin_1*%
%TO.N,GND*%
X125095000Y-69850000D03*
D11*
%TO.P,J3,2,Pin_2*%
%TO.N,+3V3*%
X125095000Y-67310000D03*
%TO.P,J3,3,Pin_3*%
%TO.N,Net-(A1-D1)*%
X125095000Y-64770000D03*
%TO.P,J3,4,Pin_4*%
%TO.N,Net-(A1-D2)*%
X125095000Y-62230000D03*
%TD*%
D12*
%TO.P,A1,1,3V3*%
%TO.N,+3V3*%
X74255000Y-81707000D03*
%TO.P,A1,2,GND*%
%TO.N,GND*%
X76795000Y-81707000D03*
%TO.P,A1,3,TX*%
%TO.N,unconnected-(A1-TX-Pad3)*%
X79335000Y-81707000D03*
%TO.P,A1,4,RX*%
%TO.N,Net-(A1-RX)*%
X81875000Y-81707000D03*
%TO.P,A1,5,D8*%
%TO.N,unconnected-(A1-D8-Pad5)*%
X84415000Y-81707000D03*
%TO.P,A1,6,D7*%
%TO.N,unconnected-(A1-D7-Pad6)*%
X86955000Y-81707000D03*
%TO.P,A1,7,D6*%
%TO.N,/~{CFG}*%
X89495000Y-81707000D03*
%TO.P,A1,8,D5*%
%TO.N,Net-(A1-D5)*%
X92035000Y-81707000D03*
%TO.P,A1,9,GND*%
%TO.N,GND*%
X94575000Y-81707000D03*
%TO.P,A1,10,3V3*%
%TO.N,+3V3*%
X97115000Y-81707000D03*
%TO.P,A1,11,D4*%
%TO.N,unconnected-(A1-D4-Pad11)*%
X99655000Y-81707000D03*
%TO.P,A1,12,D3*%
%TO.N,unconnected-(A1-D3-Pad12)*%
X102195000Y-81707000D03*
%TO.P,A1,13,D2*%
%TO.N,Net-(A1-D2)*%
X104735000Y-81707000D03*
%TO.P,A1,14,D1*%
%TO.N,Net-(A1-D1)*%
X107275000Y-81707000D03*
%TO.P,A1,15,D0*%
%TO.N,unconnected-(A1-D0-Pad15)*%
X109815000Y-81707000D03*
%TO.P,A1,16,A0*%
%TO.N,unconnected-(A1-A0-Pad16)*%
X109815000Y-58847000D03*
%TO.P,A1,17*%
%TO.N,N/C*%
X107275000Y-58847000D03*
%TO.P,A1,18*%
X104735000Y-58847000D03*
%TO.P,A1,19,SD3*%
%TO.N,unconnected-(A1-SD3-Pad19)*%
X102195000Y-58847000D03*
%TO.P,A1,20,SD2*%
%TO.N,unconnected-(A1-SD2-Pad20)*%
X99655000Y-58847000D03*
%TO.P,A1,21,SD1*%
%TO.N,unconnected-(A1-SD1-Pad21)*%
X97115000Y-58847000D03*
%TO.P,A1,22,CMD*%
%TO.N,unconnected-(A1-CMD-Pad22)*%
X94575000Y-58847000D03*
%TO.P,A1,23,SD0*%
%TO.N,unconnected-(A1-SD0-Pad23)*%
X92035000Y-58847000D03*
%TO.P,A1,24,CLK*%
%TO.N,unconnected-(A1-CLK-Pad24)*%
X89495000Y-58847000D03*
%TO.P,A1,25,GND*%
%TO.N,GND*%
X86955000Y-58847000D03*
%TO.P,A1,26,3V3*%
%TO.N,+3V3*%
X84415000Y-58847000D03*
%TO.P,A1,27,EN*%
%TO.N,unconnected-(A1-EN-Pad27)*%
X81875000Y-58847000D03*
%TO.P,A1,28,~{RST}*%
%TO.N,unconnected-(A1-~{RST}-Pad28)*%
X79335000Y-58847000D03*
%TO.P,A1,29,GND*%
%TO.N,GND*%
X76795000Y-58847000D03*
%TO.P,A1,30,V+*%
%TO.N,VCC*%
X74255000Y-58847000D03*
%TD*%
D10*
%TO.P,U1,1,GND*%
%TO.N,GND*%
X121285000Y-62230000D03*
D11*
%TO.P,U1,2,VCC*%
%TO.N,+3V3*%
X121285000Y-64770000D03*
%TO.P,U1,3,SCL*%
%TO.N,Net-(A1-D1)*%
X121285000Y-67310000D03*
%TO.P,U1,4,SDA*%
%TO.N,Net-(A1-D2)*%
X121285000Y-69850000D03*
%TD*%
D13*
%TO.P,PWR,1,Pin_1*%
%TO.N,GND*%
X61976000Y-58928000D03*
D14*
%TO.P,PWR,2,Pin_2*%
%TO.N,VCC*%
X61976000Y-61468000D03*
%TD*%
D13*
%TO.P,LEDs,1,Pin_1*%
%TO.N,GND*%
X61976000Y-76708000D03*
D14*
%TO.P,LEDs,2,Pin_2*%
%TO.N,Net-(J2-Pin_2)*%
X61976000Y-79248000D03*
%TO.P,LEDs,3,Pin_3*%
%TO.N,VCC*%
X61976000Y-81788000D03*
%TD*%
D15*
%TO.P,SW3,1,1*%
%TO.N,/~{CFG}*%
X120595000Y-81915000D03*
X120595000Y-75415000D03*
%TO.P,SW3,2,2*%
%TO.N,GND*%
X125095000Y-81915000D03*
X125095000Y-75415000D03*
%TD*%
D16*
%TO.N,GND*%
X125095000Y-75415000D02*
X125095000Y-81915000D01*
X123340000Y-68095000D02*
X125095000Y-69850000D01*
X76795000Y-80685000D02*
X78105000Y-79375000D01*
X78105000Y-79375000D02*
X92964000Y-79375000D01*
X123340000Y-68095000D02*
X123340000Y-64285000D01*
X125095000Y-75415000D02*
X125095000Y-69850000D01*
X92964000Y-79375000D02*
X94575000Y-80986000D01*
X76795000Y-81707000D02*
X76795000Y-80685000D01*
X123340000Y-64285000D02*
X121285000Y-62230000D01*
D17*
%TO.N,VCC*%
X61976000Y-61468000D02*
X71634000Y-61468000D01*
X64770000Y-64262000D02*
X64770000Y-80518000D01*
X64770000Y-80518000D02*
X63500000Y-81788000D01*
X74255000Y-58847000D02*
X71634000Y-61468000D01*
X63500000Y-81788000D02*
X61976000Y-81788000D01*
X61976000Y-61468000D02*
X64770000Y-64262000D01*
%TO.N,+3V3*%
X84415000Y-58847000D02*
X84415000Y-76200000D01*
X97115000Y-81707000D02*
X97115000Y-78700000D01*
X75247500Y-77787500D02*
X82550000Y-77787500D01*
X82550000Y-77787500D02*
X82827500Y-77787500D01*
X86002500Y-77787500D02*
X84415000Y-76200000D01*
X74255000Y-78780000D02*
X75247500Y-77787500D01*
X97115000Y-78700000D02*
X96202500Y-77787500D01*
X74255000Y-81707000D02*
X74255000Y-78780000D01*
X96202500Y-77787500D02*
X86360000Y-77787500D01*
X82827500Y-77787500D02*
X84415000Y-76200000D01*
X86360000Y-77787500D02*
X86002500Y-77787500D01*
D16*
%TO.N,/~{CFG}*%
X120595000Y-81915000D02*
X120595000Y-75415000D01*
%TO.N,Net-(A1-D2)*%
X113665000Y-77470000D02*
X121285000Y-69850000D01*
X106680000Y-77470000D02*
X113665000Y-77470000D01*
X123190000Y-60325000D02*
X125095000Y-62230000D01*
X104775000Y-81667000D02*
X104775000Y-79375000D01*
X104775000Y-79375000D02*
X106680000Y-77470000D01*
X121285000Y-69850000D02*
X119380000Y-67945000D01*
X119380000Y-67945000D02*
X119380000Y-60960000D01*
X119380000Y-60960000D02*
X120015000Y-60325000D01*
X120015000Y-60325000D02*
X123190000Y-60325000D01*
%TO.N,Net-(A1-D1)*%
X107275000Y-79375000D02*
X107275000Y-81707000D01*
X107910000Y-78740000D02*
X107275000Y-79375000D01*
X121285000Y-67310000D02*
X122872500Y-68897500D01*
X120650000Y-73025000D02*
X119380000Y-73025000D01*
X122872500Y-68897500D02*
X122872500Y-70802500D01*
X113665000Y-78740000D02*
X107910000Y-78740000D01*
X119380000Y-73025000D02*
X113665000Y-78740000D01*
X122872500Y-70802500D02*
X120650000Y-73025000D01*
%TD*%
M02*
