%TF.GenerationSoftware,KiCad,Pcbnew,8.0.2-1*%
%TF.CreationDate,2025-02-23T00:33:37-05:00*%
%TF.ProjectId,RGB Clock Controller,52474220-436c-46f6-936b-20436f6e7472,rev?*%
%TF.SameCoordinates,Original*%
%TF.FileFunction,Soldermask,Top*%
%TF.FilePolarity,Negative*%
%FSLAX46Y46*%
G04 Gerber Fmt 4.6, Leading zero omitted, Abs format (unit mm)*
G04 Created by KiCad (PCBNEW 8.0.2-1) date 2025-02-23 00:33:37*
%MOMM*%
%LPD*%
G01*
G04 APERTURE LIST*
G04 Aperture macros list*
%AMRoundRect*
0 Rectangle with rounded corners*
0 $1 Rounding radius*
0 $2 $3 $4 $5 $6 $7 $8 $9 X,Y pos of 4 corners*
0 Add a 4 corners polygon primitive as box body*
4,1,4,$2,$3,$4,$5,$6,$7,$8,$9,$2,$3,0*
0 Add four circle primitives for the rounded corners*
1,1,$1+$1,$2,$3*
1,1,$1+$1,$4,$5*
1,1,$1+$1,$6,$7*
1,1,$1+$1,$8,$9*
0 Add four rect primitives between the rounded corners*
20,1,$1+$1,$2,$3,$4,$5,0*
20,1,$1+$1,$4,$5,$6,$7,0*
20,1,$1+$1,$6,$7,$8,$9,0*
20,1,$1+$1,$8,$9,$2,$3,0*%
G04 Aperture macros list end*
%ADD10RoundRect,0.250000X0.650000X-0.412500X0.650000X0.412500X-0.650000X0.412500X-0.650000X-0.412500X0*%
%ADD11RoundRect,0.250000X0.412500X0.650000X-0.412500X0.650000X-0.412500X-0.650000X0.412500X-0.650000X0*%
%ADD12RoundRect,0.250000X-0.400000X-0.625000X0.400000X-0.625000X0.400000X0.625000X-0.400000X0.625000X0*%
%ADD13R,1.700000X1.700000*%
%ADD14O,1.700000X1.700000*%
%ADD15R,1.200000X0.400000*%
%ADD16RoundRect,0.250000X0.337500X0.475000X-0.337500X0.475000X-0.337500X-0.475000X0.337500X-0.475000X0*%
%ADD17O,1.200000X2.000000*%
%ADD18C,1.100000*%
%ADD19R,2.200000X2.200000*%
%ADD20C,2.200000*%
%ADD21C,2.000000*%
%ADD22RoundRect,0.250000X-0.625000X0.400000X-0.625000X-0.400000X0.625000X-0.400000X0.625000X0.400000X0*%
G04 APERTURE END LIST*
D10*
%TO.C,C3*%
X69088000Y-80705000D03*
X69088000Y-77580000D03*
%TD*%
D11*
%TO.C,C1*%
X82296000Y-63500000D03*
X79171000Y-63500000D03*
%TD*%
D12*
%TO.C,R1*%
X68580000Y-69215000D03*
X71680000Y-69215000D03*
%TD*%
D13*
%TO.C,J3*%
X125095000Y-69850000D03*
D14*
X125095000Y-67310000D03*
X125095000Y-64770000D03*
X125095000Y-62230000D03*
%TD*%
D15*
%TO.C,U2*%
X75692000Y-72950000D03*
X75692000Y-73600000D03*
X75692000Y-74250000D03*
X75692000Y-74900000D03*
X75692000Y-75550000D03*
X75692000Y-76200000D03*
X75692000Y-76850000D03*
X82592000Y-76850000D03*
X82592000Y-76200000D03*
X82592000Y-75550000D03*
X82592000Y-74900000D03*
X82592000Y-74250000D03*
X82592000Y-73600000D03*
X82592000Y-72950000D03*
%TD*%
D16*
%TO.C,C2*%
X96690000Y-74930000D03*
X94615000Y-74930000D03*
%TD*%
D17*
%TO.C,A1*%
X74255000Y-81707000D03*
X76795000Y-81707000D03*
X79335000Y-81707000D03*
X81875000Y-81707000D03*
X84415000Y-81707000D03*
X86955000Y-81707000D03*
X89495000Y-81707000D03*
X92035000Y-81707000D03*
X94575000Y-81707000D03*
X97115000Y-81707000D03*
X99655000Y-81707000D03*
X102195000Y-81707000D03*
X104735000Y-81707000D03*
X107275000Y-81707000D03*
X109815000Y-81707000D03*
X109815000Y-58847000D03*
X107275000Y-58847000D03*
X104735000Y-58847000D03*
X102195000Y-58847000D03*
X99655000Y-58847000D03*
X97115000Y-58847000D03*
X94575000Y-58847000D03*
X92035000Y-58847000D03*
X89495000Y-58847000D03*
X86955000Y-58847000D03*
X84415000Y-58847000D03*
X81875000Y-58847000D03*
X79335000Y-58847000D03*
X76795000Y-58847000D03*
X74255000Y-58847000D03*
%TD*%
D13*
%TO.C,U1*%
X121285000Y-62230000D03*
D14*
X121285000Y-64770000D03*
X121285000Y-67310000D03*
X121285000Y-69850000D03*
%TD*%
D18*
%TO.C,PWR*%
X59436000Y-58928000D03*
X59436000Y-61468000D03*
D19*
X61976000Y-58928000D03*
D20*
X61976000Y-61468000D03*
%TD*%
D18*
%TO.C,LEDs*%
X59436000Y-76708000D03*
X59436000Y-79248000D03*
X59436000Y-81788000D03*
D19*
X61976000Y-76708000D03*
D20*
X61976000Y-79248000D03*
X61976000Y-81788000D03*
%TD*%
D21*
%TO.C,SW3*%
X120595000Y-81915000D03*
X120595000Y-75415000D03*
X125095000Y-81915000D03*
X125095000Y-75415000D03*
%TD*%
D16*
%TO.C,C4*%
X70655000Y-58928000D03*
X68580000Y-58928000D03*
%TD*%
D22*
%TO.C,R4*%
X114300000Y-69925000D03*
X114300000Y-73025000D03*
%TD*%
M02*
